<svg viewBox="0 0 2560 200" preserveAspectRatio="none" xmlns="http://www.w3.org/2000/svg" aria-hidden="true">
<g opacity="0.65"><path d="M-40,97 -34,87 -36,79 -32,69 -32,61 -30,52 -28,44 -25,52 -23,61 -24,69 -19,79 -22,87 -16,97 Z M-27,96 -22,90 -24,85 -21,79 -21,74 -19,68 -17,63 -16,68 -14,74 -14,79 -11,85 -12,90 -7,96 Z M-18,96 -14,91 -16,87 -13,81 -13,77 -12,72 -10,67 -9,72 -8,77 -8,81 -5,87 -7,91 -3,96 Z M-10,96 -5,90 -7,85 -4,79 -4,74 -3,68 -1,63 1,68 2,74 2,79 5,85 3,90 8,96 Z M2,96 7,88 5,82 9,74 9,68 11,60 13,54 15,60 17,68 17,74 21,82 18,88 24,96 Z M16,96 21,89 19,84 23,77 22,72 25,65 27,60 29,65 31,72 30,77 34,84 32,89 37,96 Z M26,96 30,91 28,87 31,82 30,78 32,73 33,69 34,73 36,78 35,82 38,87 36,91 40,96 Z M35,96 41,88 39,81 43,73 43,67 45,59 48,53 50,59 53,67 52,73 57,81 54,88 60,96 Z M51,95 55,90 53,85 57,79 56,75 58,69 60,64 61,69 63,75 63,79 66,85 64,90 69,95 Z M63,95 68,89 66,83 69,76 69,71 71,64 73,59 75,64 77,71 76,76 80,83 78,89 83,95 Z M76,95 81,89 79,84 82,77 82,72 84,66 86,61 87,66 89,72 89,77 92,84 90,89 95,95 Z M87,95 93,87 91,81 95,73 95,67 97,59 99,53 102,59 104,67 103,73 108,81 105,87 111,95 Z M103,95 111,85 108,77 114,66 113,58 116,48 119,40 122,48 125,58 125,66 130,77 127,85 135,95 Z M122,95 125,89 124,85 126,80 126,76 127,71 128,66 130,71 131,76 131,80 133,85 132,89 135,95 Z M129,94 132,90 131,86 133,81 133,78 134,73 135,69 137,73 138,78 138,81 140,86 139,90 142,94 Z M136,94 140,88 138,82 141,75 141,70 143,63 144,57 146,63 148,70 147,75 151,82 149,88 153,94 Z M147,94 152,87 150,82 153,75 153,69 155,62 157,57 159,62 160,69 160,75 163,82 161,87 166,94 Z M158,94 162,89 160,84 163,79 163,74 164,68 165,64 167,68 168,74 168,79 170,84 169,89 172,94 Z M167,94 171,89 170,85 172,80 172,76 174,71 175,67 176,71 178,76 178,80 180,85 179,89 183,94 Z M176,94 181,87 180,81 183,74 183,68 185,61 186,55 188,61 190,68 190,74 193,81 191,87 197,94 Z M188,94 192,86 191,79 194,71 194,65 195,57 197,50 199,57 201,65 201,71 204,79 202,86 207,94 Z M199,94 207,84 204,76 209,66 208,58 211,49 214,41 217,49 220,58 219,66 224,76 221,84 229,94 Z M218,93 222,88 220,83 223,77 223,72 225,66 226,62 228,66 229,72 229,77 232,83 230,88 235,93 Z M226,93 231,87 229,82 233,76 232,71 234,64 236,59 238,64 239,71 239,76 242,82 240,87 245,93 Z M239,93 242,89 241,85 243,81 243,77 245,72 246,69 247,72 249,77 249,81 251,85 250,89 253,93 Z M248,93 251,88 250,85 252,80 252,76 253,71 255,67 256,71 257,76 257,80 259,85 258,88 261,93 Z M257,93 261,88 259,83 262,78 261,74 263,69 264,65 266,69 267,74 267,78 269,83 268,88 272,93 Z M265,93 269,87 267,83 270,78 269,73 271,68 272,63 273,68 274,73 274,78 276,83 275,87 278,93 Z M272,93 278,85 276,78 279,70 279,64 281,56 283,49 285,56 287,64 287,70 291,78 289,85 294,93 Z M285,93 288,88 287,85 289,80 289,77 290,72 291,69 293,72 294,77 294,80 296,85 295,88 298,93 Z M291,93 298,85 295,78 300,70 299,64 302,56 304,50 306,56 309,64 308,70 313,78 310,85 317,93 Z M304,92 307,87 306,83 308,78 308,74 310,68 311,64 312,68 314,74 314,78 316,83 315,87 318,92 Z M312,92 317,84 315,78 319,70 319,63 321,55 323,49 325,55 327,63 327,70 330,78 328,84 334,92 Z M325,92 333,83 330,75 335,65 334,57 337,47 340,39 343,47 346,57 346,65 351,75 348,83 355,92 Z M340,92 344,87 343,83 345,78 345,74 347,69 348,65 350,69 351,74 351,78 354,83 352,87 356,92 Z M348,92 352,87 350,83 353,78 353,74 354,69 356,65 357,69 359,74 359,78 361,83 360,87 364,92 Z M356,92 360,86 358,82 362,76 361,71 363,66 365,61 367,66 368,71 368,76 371,82 369,86 374,92 Z M367,92 370,87 369,83 371,78 371,74 372,69 373,65 374,69 376,74 375,78 378,83 376,87 379,92 Z M375,92 379,85 378,80 380,74 380,69 382,62 383,57 385,62 386,69 386,74 389,80 387,85 391,92 Z M383,92 388,84 386,77 390,69 390,62 392,54 394,48 396,54 397,62 397,69 401,77 399,84 404,92 Z M395,92 398,87 397,83 399,79 399,75 400,71 402,67 403,71 404,75 404,79 406,83 405,87 408,92 Z M401,92 406,85 404,80 408,73 407,68 409,62 411,57 413,62 415,68 415,73 418,80 416,85 421,92 Z M412,91 417,84 415,79 419,72 419,66 421,59 423,53 425,59 427,66 427,72 430,79 428,84 434,91 Z M426,91 432,84 430,79 433,72 433,67 435,60 437,54 439,60 441,67 440,72 444,79 442,84 447,91 Z M440,91 446,84 444,78 448,71 447,66 449,59 451,53 454,59 456,66 455,71 459,78 457,84 463,91 Z M453,91 456,86 455,83 457,78 457,74 458,69 459,66 461,69 462,74 462,78 464,83 463,86 466,91 Z M460,91 466,84 463,78 467,70 467,64 469,57 471,51 474,57 476,64 475,70 479,78 477,84 483,91 Z M474,91 478,85 476,80 479,74 479,69 481,63 482,59 484,63 486,69 485,74 488,80 487,85 491,91 Z M484,91 488,85 486,80 489,75 489,70 490,64 492,60 493,64 494,70 494,75 497,80 495,85 499,91 Z M493,91 497,86 496,82 498,76 498,72 500,67 501,63 503,67 504,72 504,76 506,82 505,86 509,91 Z M503,91 506,86 504,82 506,77 506,73 507,68 508,64 510,68 511,73 511,77 513,82 511,86 514,91 Z M510,91 513,86 512,82 514,77 514,74 515,69 516,65 517,69 518,74 518,77 520,82 519,86 522,91 Z M517,91 522,84 520,79 523,72 523,67 525,60 527,55 528,60 530,67 530,72 533,79 531,84 536,91 Z M526,90 532,84 529,78 533,71 533,65 535,58 537,53 539,58 541,65 541,71 545,78 542,84 548,90 Z M540,90 544,84 542,79 545,73 545,68 547,62 548,56 550,62 552,68 551,73 554,79 553,84 557,90 Z M549,90 552,85 551,81 553,76 553,71 554,66 556,62 557,66 558,71 558,76 560,81 559,85 562,90 Z M557,90 560,86 559,82 561,77 561,73 562,69 563,65 565,69 566,73 566,77 568,82 567,86 570,90 Z M564,90 568,84 566,79 569,73 568,68 570,62 571,57 573,62 574,68 574,73 576,79 575,84 579,90 Z M573,90 579,83 577,77 581,70 581,64 583,57 585,51 588,57 590,64 589,70 594,77 591,83 597,90 Z M588,90 593,82 591,76 595,68 594,62 596,54 598,48 601,54 603,62 602,68 606,76 604,82 609,90 Z M602,90 607,82 605,76 608,68 608,61 610,54 612,47 614,54 615,61 615,68 618,76 617,82 621,90 Z M615,90 619,85 617,80 620,75 620,71 621,65 623,61 624,65 626,71 626,75 628,80 627,85 631,90 Z M625,90 630,82 628,76 631,69 631,63 633,55 634,49 636,55 638,63 638,69 641,76 639,82 644,90 Z M637,90 640,85 639,81 641,76 641,72 642,67 643,63 645,67 646,72 646,76 648,81 646,85 650,90 Z M645,90 650,83 648,78 651,72 651,67 653,61 655,56 656,61 658,67 658,72 661,78 659,83 664,90 Z M657,90 663,83 661,77 664,70 664,65 666,58 668,52 670,58 672,65 672,70 675,77 673,83 679,90 Z M671,90 676,81 674,75 678,66 677,60 679,51 681,44 683,51 685,60 685,66 689,75 687,81 692,90 Z M682,90 685,84 684,80 686,75 686,71 687,66 689,61 690,66 691,71 691,75 693,80 692,84 695,90 Z M688,90 693,83 691,78 694,72 694,67 695,61 697,56 698,61 700,67 700,72 703,78 701,83 705,90 Z M700,89 703,84 702,79 704,73 704,69 706,63 707,58 708,63 710,69 710,73 712,79 711,84 714,89 Z M707,89 712,83 710,78 714,71 713,66 715,60 717,55 719,60 721,66 720,71 724,78 722,83 727,89 Z M720,89 723,85 722,81 724,76 724,73 725,68 727,64 728,68 729,73 729,76 731,81 730,85 733,89 Z M726,89 731,84 729,79 732,73 732,68 733,62 735,58 736,62 738,68 738,73 741,79 739,84 743,89 Z M736,89 742,82 740,76 744,69 743,63 746,55 748,49 750,55 753,63 752,69 756,76 754,82 760,89 Z M749,89 756,80 754,72 758,62 758,54 760,44 763,37 766,44 768,54 768,62 773,72 770,80 777,89 Z M767,89 772,81 770,75 774,67 773,60 775,52 778,45 780,52 782,60 781,67 785,75 783,81 788,89 Z M777,89 781,83 780,78 782,72 782,67 783,61 785,56 786,61 788,67 787,72 790,78 789,83 792,89 Z M787,89 791,84 790,79 792,73 792,68 793,63 795,58 796,63 798,68 798,73 800,79 799,84 802,89 Z M797,89 801,84 799,79 802,74 801,69 803,64 804,60 805,64 807,69 806,74 809,79 808,84 811,89 Z M806,89 812,81 810,74 813,65 813,59 815,50 817,43 819,50 821,59 821,65 824,74 822,81 828,89 Z M818,89 823,82 821,76 825,69 824,63 826,55 828,49 830,55 832,63 832,69 835,76 833,82 838,89 Z M828,89 833,82 831,76 835,69 834,63 836,56 838,50 840,56 842,63 842,69 845,76 843,82 848,89 Z M841,89 845,84 844,79 846,74 846,69 848,64 849,59 851,64 852,69 852,74 855,79 853,84 857,89 Z M851,89 856,82 854,76 857,68 857,62 859,55 860,49 862,55 864,62 864,68 867,76 865,82 870,89 Z M862,89 867,81 865,75 869,67 868,60 870,52 873,45 875,52 877,60 876,67 880,75 878,81 883,89 Z M873,89 876,84 875,80 877,76 877,72 878,67 880,63 881,67 882,72 882,76 884,80 883,84 886,89 Z M881,89 885,84 883,80 886,74 885,70 887,65 888,60 889,65 891,70 890,74 893,80 891,84 895,89 Z M888,89 893,83 891,77 895,71 894,66 896,59 898,54 900,59 902,66 901,71 905,77 903,83 908,89 Z M900,89 904,84 902,79 905,74 904,69 906,64 907,59 908,64 910,69 909,74 912,79 910,84 914,89 Z M907,89 912,83 910,78 913,71 913,66 915,60 917,54 919,60 921,66 920,71 924,78 922,83 927,89 Z M916,89 921,83 919,79 922,73 922,69 923,63 925,58 926,63 928,69 928,73 931,79 929,83 933,89 Z M925,89 931,82 929,75 933,68 933,62 935,54 937,48 940,54 942,62 942,68 946,75 944,82 950,89 Z M937,89 943,83 941,77 944,71 944,66 946,59 948,54 950,59 952,66 952,71 955,77 953,83 958,89 Z M949,89 953,83 951,77 954,71 954,65 956,59 958,54 959,59 961,65 961,71 964,77 962,83 967,89 Z M960,89 966,82 964,77 967,70 967,64 969,57 971,52 973,57 975,64 975,70 978,77 976,82 982,89 Z M971,89 976,82 974,77 978,70 978,65 980,58 982,53 984,58 986,65 985,70 989,77 987,82 992,89 Z M985,89 990,82 988,76 992,69 991,63 993,56 995,50 997,56 1000,63 999,69 1003,76 1001,82 1006,89 Z M997,89 1002,83 1000,77 1003,71 1003,66 1004,59 1006,54 1008,59 1010,66 1009,71 1012,77 1011,83 1015,89 Z M1008,89 1011,84 1010,80 1013,74 1012,70 1014,65 1015,60 1016,65 1018,70 1018,74 1020,80 1019,84 1022,89 Z M1016,89 1020,84 1018,80 1021,75 1020,71 1022,66 1023,62 1024,66 1025,71 1025,75 1027,80 1026,84 1029,89 Z M1024,89 1029,82 1027,75 1031,68 1030,61 1032,54 1034,47 1036,54 1039,61 1038,68 1042,75 1040,82 1045,89 Z M1038,89 1043,82 1041,76 1045,69 1044,63 1047,56 1049,50 1051,56 1053,63 1052,69 1056,76 1054,82 1059,89 Z M1051,89 1055,84 1053,80 1056,75 1056,70 1057,65 1058,61 1060,65 1061,70 1061,75 1064,80 1062,84 1066,89 Z M1060,89 1064,84 1062,79 1065,73 1064,69 1066,63 1067,58 1068,63 1070,69 1070,73 1072,79 1071,84 1074,89 Z M1069,89 1073,84 1072,80 1074,74 1074,70 1075,65 1076,60 1078,65 1079,70 1079,74 1081,80 1080,84 1083,89 Z M1077,89 1080,85 1079,81 1081,76 1080,72 1082,67 1083,63 1084,67 1085,72 1085,76 1087,81 1086,85 1089,89 Z M1084,89 1091,80 1089,72 1094,62 1093,55 1096,45 1099,37 1102,45 1105,55 1104,62 1110,72 1107,80 1114,89 Z M1098,90 1103,82 1101,76 1104,69 1104,63 1106,56 1107,50 1109,56 1111,63 1110,69 1113,76 1112,82 1116,90 Z M1108,90 1112,83 1110,78 1114,71 1113,66 1115,59 1117,54 1119,59 1121,66 1120,71 1124,78 1122,83 1126,90 Z M1117,90 1121,83 1120,78 1123,71 1123,66 1124,59 1126,54 1128,59 1130,66 1129,71 1133,78 1131,83 1136,90 Z M1128,90 1133,81 1131,74 1135,65 1135,58 1137,49 1139,42 1141,49 1144,58 1143,65 1147,74 1145,81 1151,90 Z M1141,90 1145,84 1144,79 1147,73 1147,68 1148,62 1150,57 1152,62 1153,68 1153,73 1156,79 1154,84 1159,90 Z M1150,90 1154,82 1153,76 1156,69 1155,63 1157,55 1159,49 1161,55 1162,63 1162,69 1165,76 1163,82 1168,90 Z M1161,90 1165,85 1163,80 1166,75 1165,71 1167,65 1168,61 1170,65 1171,71 1171,75 1174,80 1172,85 1176,90 Z M1169,90 1173,85 1171,80 1174,75 1174,71 1175,66 1176,62 1178,66 1179,71 1179,75 1182,80 1180,85 1184,90 Z M1178,90 1182,84 1180,80 1183,74 1183,70 1184,64 1185,59 1187,64 1188,70 1188,74 1190,80 1189,84 1193,90 Z M1185,90 1189,85 1187,81 1190,76 1190,72 1191,68 1192,64 1193,68 1195,72 1194,76 1197,81 1195,85 1199,90 Z M1192,90 1196,83 1195,78 1198,71 1197,66 1199,59 1200,54 1202,59 1204,66 1203,71 1206,78 1205,83 1209,90 Z M1202,90 1208,83 1206,76 1209,69 1209,63 1211,55 1213,49 1216,55 1218,63 1217,69 1221,76 1219,83 1225,90 Z M1216,90 1222,82 1220,76 1224,68 1223,61 1225,53 1228,47 1230,53 1232,61 1231,68 1235,76 1233,82 1239,90 Z M1227,90 1230,85 1229,81 1231,76 1231,72 1232,67 1233,63 1234,67 1236,72 1235,76 1238,81 1236,85 1239,90 Z M1234,90 1238,84 1237,80 1240,74 1239,69 1241,63 1243,58 1244,63 1246,69 1246,74 1249,80 1247,84 1251,90 Z M1243,90 1248,83 1246,77 1250,69 1249,63 1251,56 1253,50 1255,56 1257,63 1257,69 1261,77 1259,83 1264,90 Z M1256,90 1259,86 1258,82 1260,78 1260,74 1261,70 1262,66 1264,70 1265,74 1265,78 1267,82 1266,86 1269,90 Z M1263,91 1268,83 1266,76 1269,69 1269,62 1271,55 1273,48 1274,55 1276,62 1276,69 1279,76 1277,83 1282,91 Z M1275,91 1279,86 1277,82 1280,78 1279,74 1281,69 1282,66 1284,69 1285,74 1285,78 1287,82 1286,86 1289,91 Z M1282,91 1287,84 1285,79 1289,73 1288,68 1290,62 1292,57 1294,62 1296,68 1295,73 1299,79 1297,84 1302,91 Z M1292,91 1296,85 1294,80 1297,73 1297,68 1298,62 1300,57 1301,62 1303,68 1303,73 1305,80 1304,85 1308,91 Z M1302,91 1306,85 1304,81 1307,75 1307,70 1308,65 1310,60 1311,65 1313,70 1312,75 1315,81 1314,85 1318,91 Z M1312,91 1316,85 1315,80 1317,74 1317,69 1318,63 1320,58 1321,63 1322,69 1322,74 1325,80 1323,85 1327,91 Z M1320,91 1324,85 1323,80 1326,74 1325,69 1327,62 1329,57 1331,62 1333,69 1332,74 1336,80 1334,85 1339,91 Z M1330,91 1335,84 1333,78 1337,71 1336,65 1338,58 1340,52 1342,58 1344,65 1344,71 1348,78 1346,84 1351,91 Z M1341,91 1348,82 1346,75 1351,66 1350,59 1353,50 1355,42 1358,50 1361,59 1360,66 1365,75 1362,82 1369,91 Z M1356,91 1362,83 1359,77 1363,69 1363,62 1365,54 1367,47 1369,54 1371,62 1371,69 1375,77 1373,83 1378,91 Z M1368,91 1371,87 1370,83 1372,78 1372,74 1373,69 1374,65 1376,69 1377,74 1377,78 1379,83 1377,87 1381,91 Z M1376,91 1380,86 1379,81 1381,76 1381,71 1382,66 1383,61 1385,66 1386,71 1386,76 1388,81 1387,86 1390,91 Z M1386,92 1389,87 1388,83 1390,78 1390,74 1391,69 1392,65 1394,69 1395,74 1395,78 1397,83 1396,87 1399,92 Z M1394,92 1399,85 1397,79 1400,72 1400,67 1401,60 1403,55 1405,60 1407,67 1406,72 1409,79 1408,85 1412,92 Z M1404,92 1410,84 1408,77 1412,70 1412,63 1414,55 1417,49 1419,55 1421,63 1421,70 1425,77 1423,84 1429,92 Z M1416,92 1421,85 1419,79 1422,72 1422,66 1424,59 1425,54 1427,59 1429,66 1429,72 1432,79 1430,85 1435,92 Z M1428,92 1433,85 1431,79 1434,72 1434,67 1436,60 1438,54 1440,60 1442,67 1442,72 1445,79 1443,85 1448,92 Z M1438,92 1444,84 1442,78 1446,70 1445,63 1448,55 1450,49 1452,55 1455,63 1454,70 1458,78 1456,84 1462,92 Z M1452,92 1457,85 1455,80 1458,73 1458,68 1460,61 1461,56 1463,61 1465,68 1465,73 1468,80 1466,85 1471,92 Z M1463,92 1469,84 1467,77 1471,68 1470,61 1473,52 1475,45 1477,52 1479,61 1479,68 1483,77 1481,84 1487,92 Z M1475,92 1479,86 1477,80 1480,73 1480,68 1481,61 1483,56 1485,61 1486,68 1486,73 1489,80 1487,86 1491,92 Z M1483,92 1488,85 1486,79 1490,72 1489,66 1491,59 1493,53 1495,59 1497,66 1497,72 1500,79 1498,85 1503,92 Z M1494,93 1498,88 1497,84 1499,79 1499,75 1501,70 1502,66 1503,70 1505,75 1505,79 1507,84 1506,88 1510,93 Z M1503,93 1506,88 1505,85 1507,80 1507,77 1508,72 1509,69 1511,72 1512,77 1512,80 1514,85 1513,88 1516,93 Z M1511,93 1516,86 1514,81 1518,74 1518,69 1520,62 1522,57 1524,62 1526,69 1525,74 1529,81 1527,86 1532,93 Z M1524,93 1529,86 1527,80 1530,73 1530,67 1531,60 1533,54 1535,60 1536,67 1536,73 1539,80 1537,86 1542,93 Z M1535,93 1541,86 1539,80 1542,72 1542,66 1544,59 1546,53 1548,59 1550,66 1550,72 1554,80 1552,86 1557,93 Z M1546,93 1550,88 1548,84 1551,79 1551,75 1552,70 1553,66 1555,70 1556,75 1556,79 1558,84 1557,88 1561,93 Z M1554,93 1558,87 1556,81 1559,75 1559,69 1561,62 1562,57 1564,62 1566,69 1565,75 1568,81 1566,87 1571,93 Z M1565,93 1569,88 1567,84 1570,79 1569,74 1571,69 1572,65 1573,69 1575,74 1574,79 1577,84 1576,88 1579,93 Z M1573,93 1578,86 1576,80 1579,73 1579,67 1581,60 1582,54 1584,60 1586,67 1585,73 1588,80 1587,86 1591,93 Z M1582,94 1588,86 1586,79 1590,72 1589,65 1591,58 1594,51 1596,58 1598,65 1597,72 1601,79 1599,86 1605,94 Z M1595,94 1601,86 1599,80 1603,73 1602,67 1605,60 1607,53 1609,60 1612,67 1611,73 1615,80 1613,86 1619,94 Z M1609,94 1613,88 1611,83 1614,77 1614,72 1616,66 1617,61 1619,66 1620,72 1620,77 1623,83 1621,88 1626,94 Z M1618,94 1622,89 1621,85 1623,80 1623,76 1624,72 1626,68 1627,72 1629,76 1628,80 1631,85 1629,89 1633,94 Z M1627,94 1631,89 1629,85 1632,80 1631,77 1633,72 1634,68 1636,72 1637,77 1637,80 1639,85 1638,89 1641,94 Z M1636,94 1640,89 1638,84 1641,78 1640,74 1642,68 1643,64 1645,68 1646,74 1646,78 1648,84 1647,89 1650,94 Z M1644,94 1650,84 1648,76 1652,66 1652,58 1655,48 1657,40 1660,48 1662,58 1662,66 1667,76 1664,84 1671,94 Z M1657,94 1661,88 1660,83 1663,77 1662,72 1664,65 1666,60 1668,65 1670,72 1669,77 1673,83 1671,88 1675,94 Z M1668,94 1673,88 1671,82 1675,75 1674,70 1676,63 1678,58 1680,63 1682,70 1681,75 1685,82 1683,88 1688,94 Z M1678,95 1682,88 1680,82 1684,76 1683,70 1685,63 1687,58 1688,63 1690,70 1690,76 1693,82 1691,88 1696,95 Z M1687,95 1690,90 1689,87 1691,82 1691,79 1692,74 1693,71 1695,74 1696,79 1696,82 1698,87 1697,90 1700,95 Z M1694,95 1698,90 1696,85 1699,80 1699,76 1700,71 1702,66 1704,71 1705,76 1705,80 1708,85 1706,90 1710,95 Z M1702,95 1707,89 1705,85 1708,79 1708,74 1710,68 1712,64 1713,68 1715,74 1715,79 1718,85 1716,89 1721,95 Z M1713,95 1718,89 1716,84 1719,79 1719,74 1720,68 1722,63 1724,68 1725,74 1725,79 1728,84 1727,89 1731,95 Z M1724,95 1728,90 1727,86 1729,81 1729,78 1730,73 1731,69 1733,73 1734,78 1734,81 1736,86 1735,90 1739,95 Z M1733,95 1740,86 1737,78 1742,68 1742,60 1744,50 1747,42 1749,50 1752,60 1752,68 1756,78 1754,86 1760,95 Z M1751,95 1757,87 1754,79 1758,70 1758,63 1760,54 1762,47 1765,54 1767,63 1766,70 1770,79 1768,87 1774,95 Z M1762,96 1768,87 1766,81 1770,73 1769,66 1771,58 1773,51 1776,58 1778,66 1777,73 1781,81 1779,87 1784,96 Z M1776,96 1780,89 1778,84 1781,77 1781,71 1782,65 1784,59 1785,65 1787,71 1786,77 1789,84 1788,89 1792,96 Z M1784,96 1790,88 1787,82 1792,74 1791,68 1793,60 1796,54 1798,60 1800,68 1800,74 1804,82 1802,88 1807,96 Z M1795,96 1800,90 1798,85 1802,78 1801,73 1803,67 1805,62 1807,67 1809,73 1809,78 1813,85 1811,90 1816,96 Z M1809,96 1813,90 1811,84 1814,78 1814,73 1815,66 1817,61 1818,66 1820,73 1819,78 1822,84 1821,90 1824,96 Z M1816,96 1821,90 1819,85 1822,79 1821,74 1823,68 1825,63 1826,68 1828,74 1828,79 1831,85 1829,90 1833,96 Z M1827,96 1831,90 1830,84 1833,78 1832,72 1834,66 1836,61 1838,66 1840,72 1839,78 1842,84 1841,90 1845,96 Z M1836,96 1839,91 1838,87 1840,82 1840,78 1841,73 1843,69 1844,73 1845,78 1845,82 1847,87 1846,91 1850,96 Z M1845,97 1849,90 1847,85 1851,78 1850,73 1852,66 1854,61 1856,66 1857,73 1857,78 1860,85 1858,90 1863,97 Z M1856,97 1862,89 1859,83 1863,76 1863,70 1865,63 1868,57 1870,63 1872,70 1872,76 1876,83 1873,89 1879,97 Z M1870,97 1876,90 1874,84 1878,77 1877,71 1879,64 1881,59 1884,64 1886,71 1885,77 1889,84 1887,90 1893,97 Z M1885,97 1891,90 1888,84 1892,77 1892,71 1894,64 1896,58 1899,64 1901,71 1900,77 1904,84 1902,90 1908,97 Z M1898,97 1903,90 1901,84 1905,77 1904,71 1906,64 1908,58 1910,64 1912,71 1912,77 1915,84 1913,90 1918,97 Z M1912,97 1916,92 1914,87 1917,82 1917,78 1919,72 1920,68 1922,72 1924,78 1923,82 1926,87 1925,92 1929,97 Z M1921,97 1926,91 1924,85 1928,79 1927,73 1929,67 1931,61 1933,67 1935,73 1935,79 1939,85 1937,91 1942,97 Z M1935,98 1940,91 1938,85 1941,79 1941,73 1943,67 1945,61 1947,67 1949,73 1948,79 1952,85 1950,91 1955,98 Z M1945,98 1953,88 1950,81 1955,71 1955,63 1958,54 1960,46 1963,54 1966,63 1966,71 1971,81 1968,88 1975,98 Z M1960,98 1965,91 1963,85 1967,78 1966,73 1968,66 1970,60 1972,66 1974,73 1973,78 1977,85 1975,91 1979,98 Z M1972,98 1976,92 1975,87 1977,82 1977,77 1978,71 1980,66 1981,71 1982,77 1982,82 1985,87 1983,92 1987,98 Z M1979,98 1984,92 1982,87 1986,81 1985,76 1987,70 1989,65 1991,70 1993,76 1993,81 1996,87 1994,92 1999,98 Z M1990,98 1995,91 1993,84 1997,77 1997,71 1999,63 2001,57 2003,63 2005,71 2004,77 2008,84 2006,91 2011,98 Z M2004,98 2007,94 2006,90 2008,86 2008,82 2009,78 2010,74 2011,78 2013,82 2012,86 2014,90 2013,94 2016,98 Z M2010,98 2014,94 2012,90 2015,86 2014,82 2016,78 2017,74 2018,78 2020,82 2019,86 2022,90 2020,94 2024,98 Z M2019,99 2024,91 2022,84 2026,76 2026,70 2028,62 2030,56 2032,62 2034,70 2033,76 2037,84 2035,91 2041,99 Z M2032,99 2037,93 2035,89 2038,83 2037,79 2039,73 2041,69 2042,73 2044,79 2043,83 2046,89 2045,93 2049,99 Z M2041,99 2049,89 2046,82 2051,72 2050,65 2053,55 2056,48 2059,55 2061,65 2061,72 2066,82 2063,89 2070,99 Z M2057,99 2060,94 2059,90 2061,86 2061,82 2062,77 2064,73 2065,77 2066,82 2066,86 2068,90 2067,94 2070,99 Z M2065,99 2069,93 2068,89 2071,83 2070,79 2072,73 2074,69 2075,73 2077,79 2077,83 2079,89 2078,93 2082,99 Z M2074,99 2077,94 2076,90 2078,85 2078,80 2079,75 2081,71 2082,75 2083,80 2083,85 2086,90 2084,94 2088,99 Z M2080,99 2083,94 2082,90 2084,86 2084,82 2085,77 2086,73 2087,77 2088,82 2088,86 2090,90 2089,94 2092,99 Z M2086,99 2090,93 2088,89 2091,83 2091,78 2092,72 2094,68 2095,72 2096,78 2096,83 2099,89 2097,93 2101,99 Z M2095,99 2100,93 2098,87 2101,81 2101,75 2102,69 2104,63 2106,69 2107,75 2107,81 2110,87 2108,93 2113,99 Z M2104,99 2109,92 2107,86 2111,79 2111,73 2113,66 2115,60 2118,66 2120,73 2119,79 2123,86 2121,92 2127,99 Z M2116,100 2122,92 2119,86 2124,78 2123,72 2125,64 2128,58 2130,64 2132,72 2132,78 2136,86 2134,92 2139,100 Z M2130,100 2135,92 2133,85 2137,77 2136,71 2138,63 2141,56 2143,63 2145,71 2144,77 2148,85 2146,92 2152,100 Z M2144,100 2150,92 2147,86 2152,78 2151,72 2153,64 2156,58 2158,64 2161,72 2160,78 2164,86 2162,92 2168,100 Z M2156,100 2161,94 2159,88 2162,82 2162,77 2163,71 2165,65 2167,71 2169,77 2169,82 2172,88 2170,94 2175,100 Z M2168,100 2173,93 2171,87 2174,79 2174,73 2176,66 2178,59 2180,66 2182,73 2181,79 2185,87 2183,93 2188,100 Z M2181,100 2185,94 2183,90 2186,84 2186,79 2188,73 2189,68 2191,73 2193,79 2193,84 2196,90 2194,94 2198,100 Z M2189,100 2194,92 2192,86 2196,78 2196,72 2198,64 2200,58 2202,64 2204,72 2203,78 2207,86 2205,92 2210,100 Z M2201,100 2205,95 2204,90 2207,84 2206,80 2208,74 2209,69 2211,74 2212,80 2212,84 2215,90 2213,95 2217,100 Z M2212,100 2217,93 2215,87 2219,79 2219,73 2221,65 2223,59 2225,65 2227,73 2227,79 2230,87 2228,93 2234,100 Z M2226,101 2231,93 2229,87 2232,80 2232,74 2234,67 2236,61 2238,67 2240,74 2239,80 2243,87 2241,93 2246,101 Z M2238,101 2243,94 2241,88 2244,81 2244,75 2246,68 2248,62 2250,68 2251,75 2251,81 2254,88 2252,94 2257,101 Z M2247,101 2251,96 2249,93 2252,88 2251,84 2253,80 2254,76 2255,80 2257,84 2256,88 2259,93 2257,96 2261,101 Z M2255,101 2259,94 2258,89 2261,83 2261,77 2262,71 2264,66 2266,71 2267,77 2267,83 2270,89 2268,94 2273,101 Z M2266,101 2271,93 2269,87 2273,79 2273,73 2275,65 2277,59 2279,65 2281,73 2281,79 2285,87 2283,93 2288,101 Z M2277,101 2282,95 2280,91 2283,85 2283,81 2284,75 2286,70 2287,75 2289,81 2289,85 2292,91 2290,95 2294,101 Z M2287,101 2292,94 2290,88 2293,81 2293,76 2295,69 2296,63 2298,69 2300,76 2300,81 2303,88 2301,94 2306,101 Z M2296,101 2301,95 2299,90 2303,83 2302,78 2304,72 2306,66 2308,72 2310,78 2309,83 2313,90 2311,95 2316,101 Z M2306,101 2312,94 2310,88 2314,80 2313,74 2315,66 2318,60 2320,66 2322,74 2321,80 2325,88 2323,94 2329,101 Z M2318,101 2325,94 2322,87 2327,80 2326,73 2328,66 2331,60 2333,66 2336,73 2335,80 2340,87 2337,94 2343,101 Z M2333,101 2337,95 2335,90 2338,84 2338,79 2339,73 2340,68 2342,73 2343,79 2343,84 2345,90 2344,95 2348,101 Z M2342,101 2347,94 2345,88 2349,81 2349,75 2351,68 2353,62 2355,68 2357,75 2357,81 2361,88 2358,94 2364,101 Z M2355,102 2360,94 2358,87 2361,79 2361,73 2363,65 2365,58 2367,65 2368,73 2368,79 2371,87 2370,94 2374,102 Z M2368,102 2372,96 2371,92 2374,86 2373,82 2375,76 2376,72 2378,76 2380,82 2379,86 2382,92 2381,96 2385,102 Z M2378,102 2383,95 2381,90 2385,84 2384,79 2386,72 2388,67 2390,72 2392,79 2392,84 2395,90 2393,95 2398,102 Z M2391,102 2396,96 2394,92 2397,86 2397,81 2398,76 2400,71 2402,76 2404,81 2403,86 2406,92 2405,96 2409,102 Z M2402,102 2408,94 2406,88 2409,80 2409,73 2411,66 2413,59 2415,66 2417,73 2416,80 2420,88 2418,94 2423,102 Z M2413,102 2419,95 2417,90 2421,83 2420,77 2422,70 2424,65 2426,70 2429,77 2428,83 2432,90 2430,95 2435,102 Z M2425,102 2431,93 2429,85 2433,76 2432,68 2435,58 2437,51 2440,58 2442,68 2441,76 2446,85 2443,93 2450,102 Z M2439,102 2443,96 2441,90 2444,84 2444,79 2445,72 2447,67 2448,72 2450,79 2449,84 2452,90 2451,96 2454,102 Z M2448,102 2452,96 2450,92 2454,86 2453,82 2455,76 2457,71 2458,76 2460,82 2460,86 2463,92 2461,96 2466,102 Z M2459,102 2463,97 2461,92 2464,86 2464,82 2465,76 2467,71 2468,76 2470,82 2469,86 2472,92 2470,97 2474,102 Z M2467,102 2471,96 2469,91 2472,85 2472,80 2473,74 2475,68 2477,74 2478,80 2478,85 2481,91 2479,96 2483,102 Z M2476,102 2480,97 2478,92 2481,86 2481,81 2482,76 2484,71 2486,76 2487,81 2487,86 2490,92 2488,97 2492,102 Z M2485,102 2490,96 2488,91 2491,85 2491,80 2492,74 2494,69 2496,74 2498,80 2497,85 2500,91 2499,96 2503,102 Z M2494,102 2501,93 2498,85 2503,75 2502,68 2505,58 2507,50 2510,58 2513,68 2512,75 2517,85 2514,93 2521,102 Z M2512,102 2517,95 2515,88 2518,80 2518,74 2520,66 2521,59 2523,66 2525,74 2525,80 2528,88 2526,95 2531,102 Z M2522,103 2526,97 2524,93 2527,88 2526,83 2528,78 2529,73 2531,78 2532,83 2532,88 2535,93 2533,97 2537,103 Z M2530,103 2536,94 2534,88 2538,80 2537,73 2540,65 2542,58 2545,65 2547,73 2546,80 2551,88 2548,94 2554,103 Z M2545,103 2550,96 2548,90 2552,83 2551,77 2553,70 2555,65 2557,70 2559,77 2559,83 2563,90 2560,96 2566,103 Z M2558,103 2564,95 2561,89 2565,82 2565,76 2567,68 2570,62 2572,68 2574,76 2574,82 2578,89 2575,95 2581,103 Z M2569,103 2574,96 2572,90 2575,84 2575,78 2577,71 2578,66 2580,71 2582,78 2581,84 2585,90 2583,96 2587,103 Z M2580,103 2585,97 2583,91 2587,85 2586,80 2588,74 2590,69 2592,74 2594,80 2594,85 2597,91 2595,97 2600,103 Z M2593,103 2597,97 2595,92 2598,87 2598,82 2599,76 2600,72 2602,76 2603,82 2603,87 2605,92 2604,97 2608,103 Z M2600,103 2604,97 2603,92 2605,86 2605,80 2607,74 2608,69 2610,74 2612,80 2611,86 2614,92 2612,97 2617,103 Z M2611,103 2616,96 2614,90 2617,82 2617,76 2618,69 2620,63 2622,69 2624,76 2623,82 2626,90 2625,96 2629,103 Z M-20,96 4,96 28,96 52,95 76,95 100,95 124,95 148,94 172,94 196,94 220,93 244,93 268,93 292,93 316,92 340,92 364,92 388,92 412,91 436,91 460,91 484,91 508,91 532,90 556,90 580,90 604,90 628,90 652,90 676,90 700,89 724,89 748,89 772,89 796,89 820,89 844,89 868,89 892,89 916,89 940,89 964,89 988,89 1012,89 1036,89 1060,89 1084,89 1108,90 1132,90 1156,90 1180,90 1204,90 1228,90 1252,90 1276,91 1300,91 1324,91 1348,91 1372,91 1396,92 1420,92 1444,92 1468,92 1492,93 1516,93 1540,93 1564,93 1588,94 1612,94 1636,94 1660,94 1684,95 1708,95 1732,95 1756,96 1780,96 1804,96 1828,96 1852,97 1876,97 1900,97 1924,97 1948,98 1972,98 1996,98 2020,99 2044,99 2068,99 2092,99 2116,100 2140,100 2164,100 2188,100 2212,100 2236,101 2260,101 2284,101 2308,101 2332,101 2356,102 2380,102 2404,102 2428,102 2452,102 2476,102 2500,102 2524,103 2548,103 2572,103 2596,103 2600,177 -20,177 Z" fill="#5f8571"/></g>
<g opacity="0.82"><path d="M-40,140 -35,134 -38,130 -34,125 -35,121 -33,116 -33,111 -31,106 -30,102 -28,106 -27,111 -27,116 -24,121 -26,125 -22,130 -25,134 -20,140 Z M-28,140 -21,133 -25,127 -20,121 -22,115 -18,108 -19,103 -16,96 -14,91 -12,96 -10,103 -11,108 -7,115 -9,121 -4,127 -7,133 -1,140 Z M-12,140 -7,131 -9,125 -5,116 -6,109 -4,101 -2,94 0,101 2,109 2,116 6,125 4,131 9,140 Z M-1,140 5,131 3,123 6,114 6,107 8,98 10,90 12,98 14,107 14,114 17,123 15,131 21,140 Z M10,140 18,130 15,122 20,112 20,103 23,93 26,85 29,93 32,103 31,112 37,122 34,130 42,140 Z M26,140 34,130 30,122 36,112 34,104 38,94 37,86 40,76 43,68 45,76 48,86 47,94 52,104 49,112 56,122 51,130 59,140 Z M41,140 46,133 44,126 48,118 48,112 50,104 52,98 54,104 56,112 56,118 60,126 58,133 63,140 Z M51,140 56,134 54,128 57,122 57,116 59,110 60,104 62,110 64,116 63,122 66,128 65,134 69,140 Z M63,141 70,131 67,123 72,113 72,105 75,95 78,87 80,95 83,105 83,113 88,123 85,131 92,141 Z M80,141 85,133 83,126 87,118 86,111 89,103 91,96 93,103 95,111 94,118 98,126 96,133 102,141 Z M93,141 97,136 95,133 98,128 97,125 99,120 99,116 100,112 101,108 102,112 104,116 103,120 105,125 104,128 107,133 105,136 109,141 Z M103,141 111,130 108,121 113,110 113,101 116,90 119,82 123,90 126,101 125,110 131,121 128,130 136,141 Z M119,141 125,132 123,124 127,115 127,108 129,98 132,91 134,98 137,108 136,115 141,124 138,132 145,141 Z M132,141 138,135 135,130 140,124 138,119 141,113 141,108 143,102 145,97 146,102 148,108 148,113 151,119 149,124 154,130 151,135 157,141 Z M146,141 153,134 149,128 155,121 152,115 156,107 156,101 158,94 160,88 162,94 164,101 164,107 168,115 165,121 171,128 167,134 174,141 Z M161,142 167,133 165,126 169,117 169,109 171,101 173,93 176,101 178,109 178,117 182,126 180,133 186,142 Z M174,142 180,133 178,125 182,116 181,108 184,99 186,91 188,99 191,108 190,116 194,125 192,133 198,142 Z M185,142 189,137 187,132 190,127 189,123 191,117 190,113 192,107 193,103 194,107 196,113 195,117 198,123 196,127 200,132 197,137 201,142 Z M194,142 202,134 198,127 204,119 201,113 205,105 205,98 207,90 210,84 212,90 215,98 214,105 218,113 216,119 222,127 218,134 225,142 Z M214,142 218,137 216,133 220,128 218,124 221,119 220,115 222,110 223,106 225,110 226,115 226,119 228,124 227,128 231,133 228,137 233,142 Z M223,143 227,136 226,131 229,124 228,119 230,112 232,107 233,112 235,119 235,124 238,131 236,136 240,143 Z M233,143 238,136 236,130 240,123 239,117 241,110 243,104 245,110 247,117 247,123 251,130 249,136 254,143 Z M245,143 251,134 248,127 253,118 252,111 254,102 257,95 259,102 261,111 261,118 265,127 263,134 269,143 Z M257,143 263,135 261,128 265,120 265,113 267,105 270,98 272,105 275,113 274,120 279,128 276,135 283,143 Z M270,143 274,136 273,131 276,124 275,118 277,111 278,105 280,111 282,118 281,124 284,131 283,136 287,143 Z M279,143 286,135 282,129 288,121 286,114 290,106 289,99 292,91 294,85 296,91 299,99 298,106 302,114 300,121 305,129 301,135 309,143 Z M293,144 297,139 295,135 298,130 297,126 299,121 298,117 300,112 301,108 302,112 303,117 303,121 305,126 304,130 307,135 305,139 309,144 Z M301,144 307,136 304,130 309,122 307,115 310,108 310,101 311,94 313,87 315,94 317,101 317,108 320,115 318,122 323,130 320,136 326,144 Z M317,144 324,136 320,130 326,122 323,115 327,107 327,101 329,93 331,87 333,93 336,101 335,107 339,115 337,122 342,130 338,136 345,144 Z M335,144 344,132 340,122 346,110 346,100 349,88 352,78 356,88 359,100 358,110 364,122 361,132 370,144 Z M356,145 360,140 358,136 361,131 360,127 362,123 361,119 362,114 364,110 365,114 366,119 365,123 367,127 366,131 369,136 367,140 371,145 Z M365,145 370,139 367,135 371,129 370,125 373,120 372,115 374,110 375,105 377,110 379,115 378,120 381,125 379,129 384,135 381,139 386,145 Z M374,145 379,137 377,130 381,122 380,115 382,107 384,100 386,107 388,115 388,122 391,130 389,137 394,145 Z M385,145 392,135 389,126 395,116 394,107 397,97 400,88 403,97 406,107 406,116 411,126 408,135 416,145 Z M401,145 409,134 406,124 411,112 411,103 414,91 417,81 420,91 423,103 422,112 427,124 424,134 432,145 Z M420,146 424,140 422,136 425,131 423,127 426,121 425,117 427,112 428,108 429,112 430,117 430,121 432,127 431,131 434,136 432,140 436,146 Z M429,146 433,140 431,135 434,129 434,124 436,118 437,113 439,118 440,124 440,129 443,135 441,140 446,146 Z M439,146 446,139 443,134 448,128 446,122 449,116 449,111 451,104 453,99 455,104 457,111 457,116 460,122 458,128 463,134 460,139 466,146 Z M451,146 455,142 453,138 456,134 455,130 456,126 456,122 457,118 458,114 459,118 460,122 460,126 462,130 461,134 464,138 462,142 465,146 Z M459,146 466,138 462,131 468,123 465,117 469,108 469,102 471,94 473,87 476,94 478,102 477,108 481,117 479,123 485,131 481,138 488,146 Z M473,146 479,137 477,129 481,120 481,112 483,103 486,95 488,103 491,112 490,120 495,129 492,137 499,146 Z M487,147 493,141 490,137 494,132 492,128 495,122 495,118 496,113 498,109 500,113 501,118 501,122 504,128 502,132 506,137 503,141 508,147 Z M500,147 507,140 503,134 509,127 507,121 510,114 510,108 512,101 514,95 516,101 518,108 518,114 521,121 519,127 525,134 521,140 528,147 Z M514,147 522,140 518,133 524,126 522,120 526,112 525,106 528,98 530,92 533,98 535,106 535,112 539,120 536,126 543,133 538,140 546,147 Z M529,147 536,138 534,131 538,122 538,114 541,105 543,98 546,105 548,114 548,122 553,131 550,138 557,147 Z M542,148 548,141 545,136 549,130 548,125 551,119 550,114 552,108 554,103 556,108 557,114 557,119 560,125 558,130 563,136 559,141 565,148 Z M553,148 561,135 558,124 563,111 563,100 566,87 569,76 572,87 575,100 575,111 580,124 577,135 585,148 Z M569,148 574,143 572,138 575,133 574,128 576,123 576,118 577,113 579,108 580,113 582,118 581,123 584,128 583,133 586,138 584,143 588,148 Z M581,148 589,140 585,134 590,126 588,120 592,112 591,106 594,98 596,91 598,98 600,106 600,112 604,120 601,126 607,134 603,140 610,148 Z M596,148 603,141 599,136 604,128 602,123 606,116 605,110 608,103 610,97 612,103 614,110 613,116 617,123 615,128 620,136 617,141 623,148 Z M610,149 614,142 612,137 615,130 615,125 616,118 618,113 620,118 621,125 621,130 624,137 622,142 626,149 Z M619,149 624,142 622,136 626,130 625,124 627,117 629,112 631,117 633,124 633,130 636,136 634,142 640,149 Z M630,149 634,144 632,140 635,135 634,131 636,126 636,121 637,116 638,112 639,116 641,121 640,126 643,131 641,135 644,140 642,144 646,149 Z M638,149 645,138 642,130 647,119 646,110 649,99 652,91 655,99 658,110 657,119 662,130 659,138 667,149 Z M654,149 658,143 656,138 659,132 658,127 661,121 660,117 662,111 663,106 665,111 666,117 666,121 668,127 667,132 670,138 668,143 673,149 Z M664,149 671,143 667,137 672,130 670,124 674,117 673,112 675,105 677,99 680,105 682,112 681,117 685,124 683,130 688,137 684,143 691,149 Z M679,150 687,141 683,134 689,126 686,119 691,110 690,103 693,95 696,88 698,95 701,103 700,110 705,119 702,126 709,134 704,141 713,150 Z M695,150 704,138 700,128 707,115 706,105 710,93 713,83 717,93 720,105 720,115 726,128 722,138 732,150 Z M715,150 719,145 717,141 720,137 719,133 721,128 720,124 722,119 723,115 724,119 725,124 725,128 727,133 726,137 728,141 726,145 730,150 Z M724,150 728,144 726,139 730,133 729,128 731,122 733,117 735,122 737,128 736,133 740,139 738,144 743,150 Z M733,150 739,143 736,136 740,128 738,122 742,114 741,108 743,100 745,94 747,100 749,108 749,114 752,122 750,128 755,136 751,143 758,150 Z M746,151 752,143 750,137 753,129 753,123 755,116 757,109 759,116 761,123 761,129 765,137 763,143 768,151 Z M760,151 768,141 765,132 770,122 769,114 772,104 775,96 778,104 781,114 781,122 786,132 783,141 791,151 Z M778,151 785,144 781,137 787,130 785,124 788,116 788,110 790,102 792,96 794,102 796,110 796,116 800,124 797,130 803,137 799,144 806,151 Z M792,151 798,144 795,138 799,130 799,124 801,117 803,111 806,117 808,124 807,130 812,138 809,144 815,151 Z M805,151 813,142 810,134 815,124 814,116 817,106 820,98 823,106 826,116 826,124 831,134 828,142 835,151 Z M819,152 826,143 823,136 828,127 827,120 829,111 832,104 834,111 837,120 836,127 840,136 838,143 844,152 Z M832,152 838,142 836,133 840,123 840,115 842,105 845,96 848,105 850,115 850,123 854,133 852,142 858,152 Z M847,152 851,147 849,143 852,139 851,135 853,130 852,126 854,122 855,118 856,122 857,126 857,130 859,135 858,139 860,143 858,147 862,152 Z M854,152 864,140 860,130 867,118 866,108 870,96 873,86 877,96 881,108 880,118 886,130 883,140 892,152 Z M873,152 878,144 876,138 880,129 880,123 882,115 884,108 886,115 888,123 888,129 891,138 889,144 895,152 Z M884,152 890,143 888,135 892,125 892,118 895,108 897,100 900,108 902,118 902,125 906,135 904,143 911,152 Z M898,153 903,147 900,143 905,138 903,133 906,128 905,124 907,118 909,114 910,118 912,124 912,128 915,133 913,138 917,143 914,147 920,153 Z M908,153 916,142 913,133 918,122 918,113 921,102 924,93 927,102 930,113 929,122 934,133 931,142 939,153 Z M923,153 927,146 925,141 928,134 928,129 929,122 931,116 933,122 934,129 934,134 937,141 935,146 939,153 Z M931,153 939,144 935,136 940,127 938,120 942,110 941,103 944,94 946,86 948,94 950,103 950,110 954,120 952,127 957,136 953,144 961,153 Z M944,153 948,148 946,144 949,139 948,135 950,130 950,126 951,121 953,117 954,121 955,126 955,130 957,135 956,139 959,144 957,148 961,153 Z M953,153 957,146 955,139 958,132 958,126 960,118 961,112 963,118 965,126 964,132 968,139 966,146 970,153 Z M961,153 968,145 965,139 970,131 968,124 972,116 971,110 973,102 975,95 978,102 980,110 979,116 983,124 981,131 986,139 982,145 989,153 Z M977,153 984,145 980,139 985,131 983,125 987,117 986,110 988,102 990,96 993,102 995,110 994,117 998,125 996,131 1001,139 997,145 1004,153 Z M993,154 999,146 996,139 1000,131 999,125 1002,117 1001,111 1003,103 1005,97 1007,103 1009,111 1008,117 1012,125 1010,131 1015,139 1011,146 1017,154 Z M1006,154 1010,147 1008,141 1011,134 1011,128 1012,121 1014,115 1016,121 1017,128 1017,134 1020,141 1018,147 1022,154 Z M1015,154 1023,140 1020,129 1026,116 1025,105 1028,92 1031,81 1035,92 1038,105 1037,116 1043,129 1040,140 1048,154 Z M1034,154 1039,147 1037,141 1041,134 1040,128 1042,121 1044,115 1046,121 1048,128 1048,134 1051,141 1049,147 1055,154 Z M1044,154 1051,146 1048,139 1053,131 1052,124 1055,116 1057,109 1059,116 1062,124 1061,131 1066,139 1063,146 1070,154 Z M1060,154 1064,149 1062,145 1065,140 1064,136 1066,131 1066,127 1067,122 1069,118 1070,122 1071,127 1071,131 1073,136 1072,140 1075,145 1073,149 1077,154 Z M1069,154 1078,142 1074,133 1080,121 1080,112 1083,100 1087,90 1090,100 1094,112 1093,121 1099,133 1096,142 1104,154 Z M1085,154 1089,149 1087,146 1090,141 1089,137 1091,132 1091,128 1092,123 1093,119 1095,123 1096,128 1096,132 1098,137 1097,141 1100,146 1098,149 1102,154 Z M1095,154 1099,148 1097,143 1100,136 1100,131 1101,124 1103,119 1104,124 1105,131 1105,136 1108,143 1106,148 1110,154 Z M1102,154 1110,141 1107,130 1113,116 1112,105 1115,92 1119,81 1122,92 1125,105 1124,116 1130,130 1127,141 1135,154 Z M1122,154 1126,150 1124,146 1127,141 1126,137 1128,133 1128,129 1129,124 1131,120 1132,124 1133,129 1133,133 1135,137 1134,141 1137,146 1135,150 1139,154 Z M1130,155 1135,148 1133,142 1137,135 1136,129 1138,122 1140,117 1142,122 1144,129 1144,135 1148,142 1146,148 1151,155 Z M1143,155 1149,148 1146,143 1151,136 1149,131 1152,124 1152,119 1154,112 1156,107 1158,112 1160,119 1159,124 1162,131 1161,136 1165,143 1162,148 1168,155 Z M1159,155 1163,150 1161,146 1164,141 1162,137 1164,132 1164,128 1165,124 1167,120 1168,124 1169,128 1169,132 1171,137 1170,141 1173,146 1170,150 1174,155 Z M1167,155 1171,149 1169,145 1173,139 1171,135 1174,129 1173,125 1175,119 1176,115 1178,119 1179,125 1179,129 1181,135 1180,139 1184,145 1181,149 1186,155 Z M1177,155 1187,142 1183,131 1190,118 1189,108 1193,95 1196,84 1200,95 1204,108 1203,118 1210,131 1206,142 1215,155 Z M1199,155 1204,148 1201,142 1206,135 1204,129 1207,123 1206,117 1208,110 1210,104 1212,110 1213,117 1213,123 1216,129 1214,135 1218,142 1215,148 1221,155 Z M1210,155 1215,149 1212,144 1216,137 1214,132 1217,126 1217,121 1218,115 1220,110 1221,115 1223,121 1222,126 1225,132 1224,137 1227,144 1225,149 1230,155 Z M1221,155 1228,146 1225,138 1230,129 1229,122 1232,113 1234,106 1237,113 1239,122 1239,129 1243,138 1241,146 1247,155 Z M1235,155 1240,147 1238,141 1242,133 1241,127 1243,119 1245,113 1247,119 1248,127 1248,133 1251,141 1250,147 1254,155 Z M1247,155 1254,144 1252,136 1257,125 1256,117 1259,106 1262,98 1264,106 1267,117 1267,125 1272,136 1269,144 1276,155 Z M1265,155 1271,147 1269,140 1272,132 1272,125 1274,117 1276,110 1279,117 1281,125 1280,132 1284,140 1282,147 1288,155 Z M1276,155 1282,148 1279,142 1284,135 1282,130 1285,123 1285,117 1287,110 1288,104 1290,110 1292,117 1292,123 1295,130 1293,135 1298,142 1294,148 1300,155 Z M1290,155 1295,148 1292,143 1296,136 1295,131 1297,124 1297,119 1298,112 1300,107 1302,112 1303,119 1303,124 1306,131 1304,136 1308,143 1305,148 1310,155 Z M1300,155 1306,148 1303,141 1307,134 1306,128 1309,120 1308,114 1310,107 1312,101 1314,107 1316,114 1315,120 1318,128 1316,134 1321,141 1318,148 1323,155 Z M1314,155 1322,147 1318,141 1323,134 1321,128 1325,120 1324,114 1327,107 1329,100 1331,107 1333,114 1333,120 1337,128 1335,134 1340,141 1336,147 1344,155 Z M1330,155 1338,144 1335,135 1340,124 1339,115 1342,104 1345,95 1348,104 1351,115 1351,124 1356,135 1353,144 1361,155 Z M1345,155 1352,145 1350,136 1355,126 1354,118 1357,108 1359,99 1362,108 1365,118 1364,126 1369,136 1366,145 1373,155 Z M1361,155 1366,150 1363,145 1367,140 1365,136 1368,131 1368,127 1369,121 1371,117 1372,121 1374,127 1373,131 1376,136 1374,140 1378,145 1375,150 1380,155 Z M1371,155 1378,145 1375,137 1380,128 1380,120 1383,110 1385,102 1388,110 1391,120 1390,128 1395,137 1392,145 1400,155 Z M1385,155 1393,146 1389,140 1395,131 1393,124 1397,116 1396,109 1399,101 1401,94 1404,101 1406,109 1406,116 1410,124 1408,131 1414,140 1409,146 1417,155 Z M1402,155 1408,147 1406,141 1410,133 1409,127 1411,119 1413,113 1416,119 1418,127 1417,133 1421,141 1419,147 1425,155 Z M1415,155 1422,147 1418,141 1424,134 1422,128 1426,121 1425,114 1428,107 1430,101 1433,107 1435,114 1434,121 1439,128 1436,134 1442,141 1438,147 1446,155 Z M1429,155 1434,146 1432,140 1436,131 1435,124 1437,116 1440,109 1442,116 1444,124 1443,131 1447,140 1445,146 1451,155 Z M1439,155 1444,150 1441,146 1445,141 1443,136 1446,131 1445,127 1447,122 1448,118 1450,122 1451,127 1451,131 1453,136 1452,141 1455,146 1453,150 1458,155 Z M1451,155 1458,147 1454,141 1459,134 1457,128 1461,121 1461,115 1463,108 1465,102 1467,108 1470,115 1469,121 1473,128 1471,134 1476,141 1472,147 1479,155 Z M1467,155 1472,149 1469,145 1473,139 1471,135 1474,129 1473,125 1475,119 1476,115 1478,119 1479,125 1479,129 1482,135 1480,139 1484,145 1481,149 1486,155 Z M1477,155 1483,146 1481,140 1485,131 1485,124 1487,116 1490,109 1492,116 1495,124 1494,131 1499,140 1496,146 1503,155 Z M1490,155 1497,146 1494,140 1499,131 1498,125 1501,116 1503,110 1506,116 1508,125 1508,131 1512,140 1510,146 1516,155 Z M1505,155 1512,146 1508,139 1513,131 1511,124 1515,116 1514,109 1516,100 1519,94 1521,100 1523,109 1522,116 1526,124 1524,131 1529,139 1526,146 1532,155 Z M1522,154 1527,148 1525,144 1529,137 1527,133 1530,127 1530,122 1531,116 1533,111 1534,116 1536,122 1536,127 1539,133 1537,137 1541,144 1538,148 1544,154 Z M1535,154 1543,144 1540,136 1545,126 1544,118 1547,108 1550,100 1553,108 1556,118 1555,126 1560,136 1558,144 1565,154 Z M1554,154 1560,147 1557,142 1562,135 1560,129 1563,122 1563,117 1565,110 1567,104 1569,110 1571,117 1570,122 1573,129 1572,135 1576,142 1573,147 1579,154 Z M1566,154 1573,144 1570,136 1575,126 1574,118 1577,108 1579,99 1581,108 1584,118 1583,126 1588,136 1585,144 1591,154 Z M1578,154 1584,146 1582,140 1586,132 1585,126 1588,118 1590,112 1592,118 1594,126 1594,132 1598,140 1596,146 1602,154 Z M1593,154 1600,145 1597,137 1602,127 1602,120 1605,110 1608,103 1610,110 1613,120 1613,127 1618,137 1615,145 1622,154 Z M1607,154 1610,149 1608,146 1611,141 1610,138 1612,133 1612,129 1613,125 1614,121 1615,125 1617,129 1616,133 1618,138 1617,141 1620,146 1618,149 1622,154 Z M1616,154 1621,147 1618,142 1623,135 1621,130 1624,123 1624,118 1625,111 1627,106 1629,111 1630,118 1630,123 1633,130 1631,135 1635,142 1633,147 1638,154 Z M1626,154 1632,144 1630,137 1634,127 1634,120 1636,111 1639,103 1641,111 1643,120 1643,127 1647,137 1645,144 1651,154 Z M1639,154 1643,149 1641,145 1644,140 1643,136 1645,132 1644,128 1646,123 1647,119 1648,123 1649,128 1649,132 1651,136 1650,140 1653,145 1651,149 1655,154 Z M1649,154 1656,145 1653,138 1658,129 1657,122 1660,113 1662,106 1665,113 1668,122 1667,129 1672,138 1669,145 1676,154 Z M1661,154 1670,145 1665,139 1672,130 1669,124 1674,116 1673,109 1676,101 1679,94 1681,101 1684,109 1683,116 1688,124 1685,130 1692,139 1687,145 1696,154 Z M1683,153 1689,145 1686,138 1690,129 1690,122 1692,113 1695,106 1697,113 1699,122 1699,129 1703,138 1701,145 1707,153 Z M1694,153 1700,145 1698,137 1702,129 1702,122 1704,113 1707,106 1709,113 1712,122 1711,129 1716,137 1713,145 1720,153 Z M1709,153 1715,146 1712,139 1717,132 1715,125 1718,118 1718,111 1720,104 1722,97 1724,104 1726,111 1725,118 1729,125 1727,132 1732,139 1728,146 1735,153 Z M1724,153 1731,146 1727,141 1732,134 1730,128 1734,122 1733,116 1736,109 1738,104 1740,109 1742,116 1742,122 1746,128 1743,134 1749,141 1745,146 1752,153 Z M1740,153 1745,146 1742,141 1746,134 1745,129 1748,122 1747,116 1749,110 1751,104 1752,110 1754,116 1754,122 1757,129 1755,134 1759,141 1756,146 1762,153 Z M1751,153 1758,144 1755,137 1760,128 1758,121 1761,113 1761,106 1763,97 1765,90 1767,97 1769,106 1769,113 1772,121 1770,128 1776,137 1772,144 1779,153 Z M1765,153 1769,146 1767,141 1770,135 1770,130 1771,123 1773,118 1774,123 1776,130 1775,135 1778,141 1777,146 1780,153 Z M1774,153 1781,145 1777,139 1782,131 1780,125 1783,118 1783,111 1785,104 1787,98 1788,104 1790,111 1790,118 1793,125 1791,131 1796,139 1793,145 1799,153 Z M1790,152 1796,143 1794,135 1798,125 1798,118 1800,108 1803,100 1805,108 1808,118 1807,125 1812,135 1809,143 1816,152 Z M1804,152 1808,148 1806,144 1809,140 1808,136 1810,131 1810,127 1811,123 1812,119 1813,123 1815,127 1814,131 1817,136 1815,140 1819,144 1816,148 1821,152 Z M1813,152 1819,143 1817,135 1821,126 1821,118 1823,109 1825,101 1828,109 1830,118 1830,126 1834,135 1831,143 1837,152 Z M1829,152 1834,147 1831,143 1835,138 1833,134 1836,129 1836,124 1837,119 1839,115 1840,119 1842,124 1841,129 1844,134 1842,138 1846,143 1844,147 1848,152 Z M1838,152 1843,143 1841,136 1845,127 1844,120 1846,111 1848,104 1850,111 1852,120 1852,127 1856,136 1854,143 1859,152 Z M1850,152 1855,145 1853,139 1856,131 1856,125 1858,118 1859,112 1861,118 1863,125 1863,131 1866,139 1864,145 1869,152 Z M1859,152 1865,143 1862,136 1866,127 1866,120 1868,111 1870,104 1872,111 1874,120 1873,127 1877,136 1875,143 1880,152 Z M1871,152 1876,144 1874,138 1878,131 1877,125 1879,117 1881,111 1883,117 1885,125 1885,131 1888,138 1886,144 1891,152 Z M1882,152 1890,144 1886,137 1891,129 1889,122 1893,114 1892,108 1895,100 1897,93 1899,100 1902,108 1901,114 1905,122 1903,129 1909,137 1905,144 1912,152 Z M1900,151 1905,143 1903,136 1907,127 1906,120 1908,111 1911,104 1913,111 1915,120 1914,127 1918,136 1916,143 1921,151 Z M1912,151 1918,141 1916,133 1920,123 1919,115 1921,105 1924,97 1926,105 1928,115 1928,123 1932,133 1929,141 1935,151 Z M1923,151 1927,145 1925,140 1928,134 1928,129 1929,123 1931,118 1932,123 1933,129 1933,134 1936,140 1934,145 1938,151 Z M1930,151 1934,146 1932,142 1935,137 1934,133 1936,128 1936,123 1937,118 1938,114 1940,118 1941,123 1941,128 1943,133 1941,137 1945,142 1942,146 1947,151 Z M1940,151 1948,140 1945,130 1950,119 1950,109 1953,98 1956,89 1959,98 1962,109 1961,119 1966,130 1963,140 1971,151 Z M1958,151 1967,137 1964,126 1970,113 1969,101 1972,88 1976,77 1979,88 1982,101 1981,113 1987,126 1984,137 1993,151 Z M1976,151 1981,144 1979,138 1982,131 1982,125 1984,118 1985,112 1987,118 1989,125 1989,131 1992,138 1990,144 1995,151 Z M1988,151 1992,143 1990,137 1994,130 1993,124 1995,117 1997,111 1999,117 2001,124 2000,130 2004,137 2002,143 2006,151 Z M1998,151 2003,144 2000,139 2004,133 2002,128 2005,122 2005,117 2006,111 2008,106 2009,111 2011,117 2011,122 2013,128 2012,133 2016,139 2013,144 2018,151 Z M2007,150 2013,142 2011,136 2014,128 2014,121 2016,113 2018,106 2021,113 2023,121 2022,128 2026,136 2024,142 2030,150 Z M2020,150 2026,144 2023,139 2027,133 2025,128 2028,122 2028,117 2030,110 2031,105 2033,110 2035,117 2034,122 2037,128 2036,133 2040,139 2037,144 2042,150 Z M2031,150 2039,143 2035,137 2041,129 2039,123 2043,115 2042,109 2045,102 2047,96 2049,102 2052,109 2051,115 2055,123 2053,129 2059,137 2055,143 2063,150 Z M2051,150 2056,143 2054,137 2057,130 2057,125 2059,118 2060,112 2062,118 2064,125 2063,130 2067,137 2065,143 2069,150 Z M2061,150 2068,141 2065,134 2069,125 2069,118 2071,109 2074,102 2076,109 2078,118 2078,125 2082,134 2080,141 2086,150 Z M2075,150 2081,141 2079,133 2083,124 2083,117 2085,108 2088,100 2090,108 2093,117 2092,124 2097,133 2094,141 2101,150 Z M2090,150 2096,143 2093,138 2097,131 2095,126 2098,119 2098,113 2100,107 2101,101 2103,107 2105,113 2105,119 2108,126 2106,131 2110,138 2107,143 2113,150 Z M2104,150 2109,142 2107,136 2111,129 2110,123 2112,116 2114,110 2117,116 2119,123 2118,129 2122,136 2120,142 2125,150 Z M2113,150 2118,142 2116,136 2120,128 2120,122 2122,115 2124,109 2126,115 2127,122 2127,128 2131,136 2129,142 2134,150 Z M2125,149 2134,139 2130,130 2136,119 2136,111 2139,100 2142,91 2145,100 2148,111 2148,119 2153,130 2150,139 2158,149 Z M2146,149 2154,141 2150,134 2156,126 2154,119 2158,111 2157,104 2160,96 2162,89 2165,96 2167,104 2167,111 2171,119 2169,126 2175,134 2170,141 2179,149 Z M2165,149 2172,141 2168,134 2173,126 2171,120 2175,112 2174,105 2176,97 2178,90 2181,97 2183,105 2182,112 2186,120 2183,126 2189,134 2185,141 2191,149 Z M2177,149 2180,143 2179,138 2181,132 2181,127 2183,121 2184,117 2185,121 2186,127 2186,132 2189,138 2187,143 2191,149 Z M2185,149 2190,143 2187,139 2191,133 2189,128 2192,123 2192,118 2193,112 2194,108 2196,112 2197,118 2197,123 2199,128 2198,133 2201,139 2199,143 2204,149 Z M2196,149 2201,140 2199,133 2203,124 2203,116 2205,107 2207,100 2209,107 2211,116 2210,124 2214,133 2212,140 2218,149 Z M2209,149 2215,142 2212,136 2216,129 2214,124 2218,117 2217,111 2219,104 2221,99 2223,104 2224,111 2224,117 2227,124 2225,129 2230,136 2227,142 2232,149 Z M2222,149 2227,143 2224,139 2228,133 2227,129 2230,124 2229,119 2231,114 2232,109 2234,114 2235,119 2235,124 2238,129 2236,133 2240,139 2237,143 2242,149 Z M2235,149 2242,142 2238,136 2244,129 2241,123 2245,116 2245,111 2247,104 2249,98 2251,104 2253,111 2253,116 2257,123 2254,129 2260,136 2256,142 2263,149 Z M2252,148 2258,140 2256,133 2259,125 2259,118 2261,109 2263,102 2265,109 2267,118 2267,125 2271,133 2268,140 2274,148 Z M2265,148 2271,142 2267,137 2272,131 2270,126 2273,120 2273,115 2275,109 2277,104 2279,109 2281,115 2280,120 2283,126 2281,131 2286,137 2283,142 2289,148 Z M2279,148 2284,141 2282,135 2286,127 2286,121 2288,113 2290,107 2292,113 2294,121 2294,127 2297,135 2295,141 2301,148 Z M2292,148 2300,136 2297,126 2303,114 2302,104 2306,92 2309,82 2312,92 2316,104 2315,114 2321,126 2318,136 2326,148 Z M2313,148 2316,143 2314,139 2317,135 2316,131 2318,126 2318,122 2319,117 2320,113 2321,117 2323,122 2322,126 2324,131 2323,135 2326,139 2324,143 2328,148 Z M2320,148 2325,142 2323,136 2327,130 2325,124 2328,118 2328,113 2329,106 2331,101 2333,106 2334,113 2334,118 2337,124 2335,130 2339,136 2336,142 2342,148 Z M2334,148 2341,141 2337,135 2343,128 2341,122 2344,115 2344,109 2346,102 2348,97 2351,102 2353,109 2352,115 2356,122 2354,128 2360,135 2356,141 2363,148 Z M2351,148 2357,141 2355,136 2358,129 2358,123 2360,117 2362,111 2364,117 2366,123 2366,129 2369,136 2367,141 2372,148 Z M2362,148 2366,140 2364,134 2368,126 2367,120 2369,112 2371,106 2373,112 2374,120 2374,126 2377,134 2375,140 2380,148 Z M2373,148 2381,138 2378,129 2383,119 2382,110 2385,100 2388,92 2391,100 2394,110 2393,119 2398,129 2396,138 2403,148 Z M2391,148 2397,140 2394,134 2399,127 2397,121 2400,114 2400,108 2402,100 2404,94 2406,100 2408,108 2407,114 2411,121 2409,127 2414,134 2410,140 2417,148 Z M2406,148 2413,141 2409,135 2414,128 2412,123 2416,116 2415,110 2417,103 2419,98 2421,103 2423,110 2423,116 2427,123 2424,128 2430,135 2426,141 2433,148 Z M2419,148 2423,143 2421,139 2424,134 2423,130 2425,125 2425,121 2426,117 2428,113 2429,117 2430,121 2430,125 2432,130 2431,134 2434,139 2432,143 2436,148 Z M2427,148 2431,143 2429,139 2432,134 2431,130 2433,125 2433,122 2434,117 2436,113 2437,117 2439,122 2438,125 2441,130 2439,134 2443,139 2440,143 2445,148 Z M2435,148 2439,143 2437,139 2440,134 2439,129 2441,124 2441,120 2442,115 2443,111 2444,115 2446,120 2445,124 2447,129 2446,134 2449,139 2447,143 2451,148 Z M2443,148 2450,141 2446,135 2452,128 2449,123 2453,116 2453,110 2455,103 2457,97 2459,103 2462,110 2461,116 2465,123 2463,128 2468,135 2464,141 2471,148 Z M2456,148 2463,139 2459,133 2464,125 2462,118 2466,110 2465,103 2468,95 2470,89 2472,95 2474,103 2474,110 2478,118 2475,125 2481,133 2477,139 2484,148 Z M2470,148 2476,140 2473,134 2477,126 2476,120 2479,113 2478,107 2480,99 2482,93 2484,99 2486,107 2485,113 2488,120 2487,126 2491,134 2488,140 2494,148 Z M2481,147 2488,140 2484,134 2489,127 2487,121 2491,113 2490,107 2492,100 2494,94 2496,100 2498,107 2498,113 2501,121 2499,127 2504,134 2501,140 2507,147 Z M2493,147 2501,138 2497,131 2503,122 2500,114 2504,105 2504,98 2506,88 2509,81 2511,88 2513,98 2513,105 2517,114 2514,122 2520,131 2516,138 2524,147 Z M2510,147 2518,139 2514,133 2520,125 2517,118 2521,110 2521,103 2523,95 2526,88 2528,95 2530,103 2530,110 2534,118 2531,125 2537,133 2533,139 2541,147 Z M2529,147 2535,140 2532,133 2537,125 2535,119 2538,111 2538,104 2540,96 2542,90 2544,96 2546,104 2545,111 2548,119 2546,125 2551,133 2548,140 2554,147 Z M2540,147 2549,138 2544,130 2551,120 2548,112 2553,102 2552,94 2554,84 2557,76 2560,84 2562,94 2562,102 2566,112 2564,120 2570,130 2566,138 2574,147 Z M2561,147 2565,141 2563,136 2566,130 2566,125 2567,119 2569,113 2571,119 2572,125 2572,130 2575,136 2573,141 2578,147 Z M2569,147 2575,140 2573,134 2576,127 2576,121 2578,114 2580,108 2582,114 2584,121 2584,127 2587,134 2585,140 2590,147 Z M2580,147 2587,139 2584,132 2589,124 2588,117 2591,109 2593,102 2596,109 2598,117 2598,124 2602,132 2600,139 2606,147 Z M2593,147 2602,137 2597,129 2605,119 2602,110 2607,100 2606,92 2609,81 2612,73 2615,81 2618,92 2617,100 2623,110 2620,119 2627,129 2622,137 2632,147 Z M2610,147 2618,140 2614,133 2620,126 2617,120 2622,112 2621,106 2623,98 2626,92 2628,98 2631,106 2630,112 2634,120 2632,126 2638,133 2634,140 2641,147 Z M-20,140 4,140 28,140 52,140 76,141 100,141 124,141 148,142 172,142 196,142 220,143 244,143 268,143 292,144 316,144 340,144 364,145 388,145 412,145 436,146 460,146 484,147 508,147 532,147 556,148 580,148 604,149 628,149 652,149 676,150 700,150 724,150 748,151 772,151 796,151 820,152 844,152 868,152 892,153 916,153 940,153 964,153 988,154 1012,154 1036,154 1060,154 1084,154 1108,154 1132,155 1156,155 1180,155 1204,155 1228,155 1252,155 1276,155 1300,155 1324,155 1348,155 1372,155 1396,155 1420,155 1444,155 1468,155 1492,155 1516,154 1540,154 1564,154 1588,154 1612,154 1636,154 1660,154 1684,153 1708,153 1732,153 1756,153 1780,153 1804,152 1828,152 1852,152 1876,152 1900,151 1924,151 1948,151 1972,151 1996,151 2020,150 2044,150 2068,150 2092,150 2116,149 2140,149 2164,149 2188,149 2212,149 2236,149 2260,148 2284,148 2308,148 2332,148 2356,148 2380,148 2404,148 2428,148 2452,148 2476,147 2500,147 2524,147 2548,147 2572,147 2596,147 2600,232 -20,232 Z" fill="#367059"/></g>
<g opacity="1.0"><path d="M-40,208 -34,200 -37,192 -32,184 -34,177 -31,168 -31,161 -30,152 -28,145 -26,152 -24,161 -24,168 -21,177 -23,184 -18,192 -21,200 -15,208 Z M-29,208 -18,196 -24,187 -16,175 -19,165 -13,153 -14,144 -11,132 -8,122 -4,132 -1,144 -2,153 4,165 0,175 9,187 3,196 13,208 Z M-5,209 6,197 -1,187 8,175 3,165 10,153 7,143 12,131 11,121 14,109 17,99 20,109 23,121 22,131 27,143 24,153 31,165 26,175 35,187 28,197 39,209 Z M17,209 27,197 22,187 30,175 27,165 32,153 31,143 34,130 37,121 40,130 43,143 43,153 48,165 45,175 53,187 47,197 57,209 Z M36,209 43,200 39,193 45,183 43,176 47,167 46,159 49,150 51,143 54,150 56,159 55,167 59,176 57,183 63,193 59,200 66,209 Z M53,209 62,198 57,189 64,178 61,170 66,159 65,150 68,139 71,130 74,139 77,150 76,159 81,170 78,178 85,189 80,198 89,209 Z M73,209 78,204 75,200 79,195 77,191 80,185 79,181 81,176 81,172 82,166 84,162 85,166 87,172 86,176 88,181 87,185 90,191 88,195 92,200 89,204 94,209 Z M84,210 91,203 87,197 92,190 89,184 94,177 92,171 95,164 94,159 96,152 98,146 100,152 102,159 101,164 104,171 102,177 107,184 104,190 109,197 105,203 112,210 Z M100,210 111,197 105,186 113,173 110,163 116,150 115,139 118,126 122,116 125,126 128,139 128,150 134,163 130,173 139,186 133,197 144,210 Z M120,210 125,203 123,197 126,190 125,185 127,178 127,172 129,165 130,160 132,165 133,172 133,178 135,185 134,190 137,197 135,203 140,210 Z M131,210 140,201 135,193 142,183 138,175 144,166 141,158 145,148 145,141 147,131 149,123 152,131 154,141 153,148 157,158 155,166 161,175 157,183 164,193 158,201 167,210 Z M150,210 157,204 153,199 159,192 155,187 160,180 158,175 162,169 161,163 163,157 165,152 167,157 170,163 169,169 172,175 170,180 175,187 172,192 178,199 173,204 181,210 Z M164,211 172,199 168,189 174,178 172,168 176,157 176,147 178,135 181,126 183,135 186,147 185,157 190,168 187,178 194,189 189,199 197,211 Z M183,211 192,199 187,190 195,178 192,169 197,157 196,147 199,136 202,126 205,136 207,147 207,157 212,169 209,178 216,190 211,199 220,211 Z M203,211 211,203 206,195 212,187 210,180 214,171 214,164 216,155 218,148 221,155 223,164 223,171 227,180 224,187 231,195 226,203 234,211 Z M216,211 225,204 219,197 226,190 222,183 228,175 226,169 230,161 229,155 231,147 233,141 236,147 238,155 237,161 241,169 239,175 245,183 241,190 248,197 242,204 251,211 Z M231,212 241,201 235,191 243,180 240,171 246,160 245,151 248,140 251,131 254,140 257,151 256,160 262,171 259,180 266,191 261,201 271,212 Z M250,212 254,207 251,202 255,197 253,193 256,187 255,183 257,178 256,173 258,168 259,164 260,168 261,173 261,178 263,183 262,187 265,193 263,197 266,202 264,207 268,212 Z M259,212 270,197 264,185 273,170 269,158 275,144 274,131 278,117 281,105 285,117 288,131 287,144 294,158 290,170 299,185 293,197 304,212 Z M279,212 286,206 282,201 287,195 284,190 288,184 286,179 289,173 289,168 290,162 292,157 294,162 296,168 295,173 298,179 296,184 300,190 297,195 303,201 299,206 305,212 Z M290,213 301,203 295,194 304,184 299,176 306,166 303,158 308,148 307,140 310,130 312,122 315,130 318,140 317,148 322,158 319,166 326,176 321,184 330,194 324,203 335,213 Z M311,213 318,207 314,202 319,196 316,192 320,186 319,181 322,175 321,170 323,165 325,160 327,165 328,170 328,175 331,181 329,186 333,192 330,196 336,202 332,207 338,213 Z M327,213 336,201 331,191 338,179 335,170 340,158 339,148 342,136 344,126 347,136 350,148 349,158 354,170 351,179 358,191 353,201 362,213 Z M345,213 352,206 349,200 354,193 352,187 356,180 355,174 357,166 360,160 362,166 364,174 363,180 367,187 365,193 370,200 367,206 374,213 Z M362,214 368,206 365,200 370,192 368,186 371,178 371,172 373,164 374,158 376,164 378,172 378,178 381,186 379,192 384,200 381,206 387,214 Z M374,214 383,204 378,197 385,187 382,179 387,170 387,162 390,152 392,145 395,152 398,162 397,170 402,179 400,187 407,197 402,204 411,214 Z M393,214 403,206 397,199 405,190 400,183 407,175 404,168 408,159 408,152 410,144 413,137 416,144 418,152 417,159 422,168 419,175 426,183 421,190 429,199 423,206 433,214 Z M415,215 423,206 419,200 425,192 423,185 427,177 426,170 429,162 431,156 434,162 436,170 435,177 440,185 437,192 443,200 439,206 447,215 Z M433,215 443,203 438,194 446,183 443,174 448,162 447,153 451,142 454,132 457,142 460,153 459,162 465,174 462,183 469,194 464,203 474,215 Z M454,215 461,207 457,201 463,193 459,187 464,179 462,173 466,165 465,159 467,151 469,145 471,151 473,159 472,165 476,173 474,179 478,187 475,193 481,201 476,207 484,215 Z M466,215 478,204 472,194 480,182 477,173 483,161 482,151 486,140 489,130 493,140 496,151 495,161 501,173 498,182 507,194 501,204 512,215 Z M493,216 501,206 496,198 503,189 500,181 504,172 504,164 506,154 509,147 511,154 514,164 513,172 517,181 515,189 521,198 517,206 525,216 Z M509,216 517,208 512,201 519,193 515,187 520,179 518,172 521,164 521,157 523,149 525,143 527,149 529,157 528,164 532,172 530,179 535,187 531,193 538,201 533,208 541,216 Z M522,216 528,209 524,203 530,196 527,190 531,183 529,177 532,170 531,164 533,157 535,151 536,157 538,164 538,170 541,177 539,183 543,190 540,196 545,203 541,209 548,216 Z M534,216 543,204 538,194 545,182 542,172 547,160 547,150 549,138 552,128 555,138 558,150 557,160 562,172 559,182 566,194 561,204 570,216 Z M554,217 565,205 559,195 567,184 564,174 569,162 569,153 572,141 575,131 578,141 582,153 581,162 586,174 583,184 591,195 586,205 596,217 Z M577,217 589,207 581,198 591,188 586,180 593,169 590,161 595,151 594,142 597,132 600,124 603,132 606,142 605,151 610,161 607,169 614,180 609,188 619,198 611,207 623,217 Z M604,217 613,206 608,198 615,187 612,178 617,167 617,158 620,147 623,138 626,147 628,158 628,167 633,178 630,187 637,198 632,206 642,217 Z M621,218 627,212 623,207 628,201 625,196 629,190 628,186 630,180 630,175 631,169 633,164 634,169 636,175 635,180 638,186 636,190 640,196 637,201 642,207 639,212 644,218 Z M631,218 639,210 634,203 640,196 637,189 642,181 640,175 643,167 642,160 645,152 647,146 649,152 651,160 650,167 654,175 652,181 657,189 653,196 660,203 655,210 663,218 Z M644,218 655,207 649,197 657,186 654,176 660,165 659,156 662,144 665,135 669,144 672,156 671,165 677,176 673,186 681,197 676,207 686,218 Z M665,218 672,208 668,200 674,191 671,183 675,173 675,165 677,155 679,147 681,155 683,165 683,173 687,183 684,191 690,200 686,208 693,218 Z M680,218 688,210 683,203 690,194 686,187 691,178 689,171 693,162 692,155 694,146 697,139 699,146 701,155 700,162 704,171 702,178 707,187 704,194 710,203 705,210 713,218 Z M697,219 708,207 702,197 711,186 707,176 713,164 712,155 716,143 719,133 722,143 726,155 725,164 731,176 727,186 736,197 730,207 741,219 Z M719,219 728,210 722,203 730,195 726,188 732,179 729,172 734,163 733,156 735,148 738,140 740,148 743,156 742,163 746,172 744,179 750,188 746,195 753,203 747,210 757,219 Z M737,219 747,211 740,203 748,195 744,188 750,179 748,172 752,163 751,156 754,147 756,140 759,147 762,156 761,163 765,172 763,179 769,188 764,195 772,203 766,211 776,219 Z M754,219 768,208 759,198 771,186 764,176 773,164 770,155 776,143 775,133 778,121 782,112 786,121 790,133 788,143 795,155 791,164 800,176 794,186 805,198 796,208 810,219 Z M778,220 785,212 781,206 786,199 784,193 788,186 787,180 789,172 792,167 794,172 796,180 795,186 799,193 797,199 802,206 799,212 806,220 Z M790,220 799,210 794,202 801,192 799,184 804,174 803,166 806,157 808,149 811,157 814,166 813,174 818,184 816,192 823,202 818,210 827,220 Z M810,220 821,205 815,192 824,177 820,164 826,149 825,136 829,121 832,108 835,121 839,136 838,149 844,164 840,177 849,192 843,205 854,220 Z M836,220 841,214 838,209 842,203 840,199 843,193 842,188 844,182 844,177 845,171 846,166 848,171 849,177 849,182 851,188 850,193 853,199 851,203 855,209 852,214 857,220 Z M846,220 856,209 851,199 858,187 855,177 860,165 859,156 862,144 865,134 868,144 871,156 870,165 875,177 872,187 879,199 874,209 883,220 Z M864,221 877,209 869,199 879,187 874,177 881,165 878,156 884,144 883,134 886,122 889,113 892,122 896,134 895,144 900,156 897,165 905,177 899,187 909,199 902,209 914,221 Z M885,221 897,209 891,199 900,187 896,177 902,165 901,155 905,143 908,133 912,143 916,155 915,165 921,177 917,187 926,199 920,209 931,221 Z M911,221 919,213 914,206 921,197 917,190 922,182 920,175 924,166 923,160 925,151 927,144 929,151 932,160 931,166 935,175 932,182 938,190 934,197 940,206 935,213 943,221 Z M929,221 939,209 933,198 941,186 938,176 943,163 942,153 945,141 948,130 951,141 954,153 953,163 958,176 955,186 963,198 958,209 967,221 Z M947,221 954,213 950,206 956,198 953,191 957,183 957,176 959,168 961,161 963,168 965,176 965,183 969,191 966,198 972,206 968,213 975,221 Z M961,221 974,209 966,199 977,186 971,176 979,164 976,154 982,141 980,131 984,119 988,109 991,119 995,131 994,141 1000,154 996,164 1005,176 999,186 1009,199 1001,209 1014,221 Z M992,222 1001,212 996,204 1003,194 1000,186 1005,176 1004,168 1007,159 1010,151 1013,159 1016,168 1015,176 1020,186 1017,194 1024,204 1019,212 1028,222 Z M1010,222 1019,212 1014,204 1021,194 1018,186 1024,176 1023,168 1026,159 1029,151 1032,159 1035,168 1034,176 1039,186 1036,194 1044,204 1038,212 1048,222 Z M1030,222 1035,216 1032,212 1036,206 1033,202 1036,197 1035,192 1037,187 1037,182 1038,177 1040,172 1041,177 1042,182 1042,187 1044,192 1043,197 1046,202 1044,206 1048,212 1045,216 1049,222 Z M1038,222 1046,215 1041,210 1047,204 1044,198 1049,192 1047,187 1050,180 1050,175 1052,168 1054,163 1056,168 1058,175 1057,180 1061,187 1059,192 1064,198 1060,204 1067,210 1062,215 1070,222 Z M1054,222 1063,214 1058,208 1065,201 1061,195 1066,187 1064,181 1068,173 1067,167 1069,160 1072,154 1074,160 1076,167 1076,173 1080,181 1077,187 1083,195 1079,201 1086,208 1080,214 1089,222 Z M1074,222 1081,216 1077,211 1082,205 1079,200 1083,194 1081,189 1084,183 1083,178 1085,172 1087,167 1088,172 1090,178 1089,183 1092,189 1091,194 1095,200 1092,205 1097,211 1093,216 1099,222 Z M1085,222 1094,213 1088,205 1096,196 1092,188 1098,179 1095,171 1099,162 1099,154 1101,145 1104,137 1106,145 1109,154 1108,162 1112,171 1110,179 1116,188 1111,196 1119,205 1113,213 1123,222 Z M1107,222 1116,212 1111,203 1118,192 1115,184 1120,173 1120,165 1122,154 1125,146 1128,154 1131,165 1130,173 1135,184 1132,192 1140,203 1135,212 1144,222 Z M1122,222 1128,215 1125,210 1129,203 1127,197 1130,190 1130,185 1132,178 1134,173 1135,178 1137,185 1137,190 1140,197 1138,203 1143,210 1139,215 1145,222 Z M1133,222 1138,215 1135,210 1139,204 1137,198 1140,192 1139,186 1141,180 1142,174 1144,180 1145,186 1145,192 1147,198 1146,204 1150,210 1147,215 1152,222 Z M1141,222 1146,217 1143,213 1147,207 1145,203 1148,198 1147,194 1149,188 1149,184 1150,179 1152,175 1153,179 1155,184 1154,188 1157,194 1155,198 1159,203 1156,207 1161,213 1157,217 1163,222 Z M1151,222 1161,211 1156,201 1163,190 1160,180 1166,169 1165,159 1168,148 1171,138 1174,148 1177,159 1177,169 1182,180 1179,190 1187,201 1181,211 1191,222 Z M1169,222 1181,207 1175,195 1184,180 1180,167 1187,152 1186,140 1189,125 1193,113 1197,125 1201,140 1200,152 1206,167 1202,180 1212,195 1205,207 1217,222 Z M1197,222 1204,214 1200,207 1205,199 1203,193 1207,185 1206,178 1209,170 1211,163 1213,170 1215,178 1215,185 1218,193 1216,199 1222,207 1218,214 1225,222 Z M1210,222 1220,213 1213,206 1222,197 1217,189 1224,180 1221,173 1225,164 1225,156 1227,147 1230,140 1233,147 1236,156 1235,164 1239,173 1237,180 1243,189 1238,197 1247,206 1240,213 1251,222 Z M1233,222 1242,212 1236,204 1244,194 1240,185 1246,175 1243,167 1247,157 1247,149 1249,139 1252,130 1254,139 1257,149 1256,157 1260,167 1258,175 1263,185 1259,194 1267,204 1261,212 1270,222 Z M1248,222 1259,210 1253,200 1262,188 1258,178 1264,166 1263,156 1267,144 1270,134 1273,144 1277,156 1276,166 1282,178 1278,188 1287,200 1281,210 1292,222 Z M1269,222 1275,216 1271,212 1276,207 1273,202 1277,197 1276,192 1278,187 1278,182 1279,177 1281,172 1283,177 1284,182 1284,187 1287,192 1285,197 1289,202 1286,207 1291,212 1287,216 1294,222 Z M1279,222 1287,215 1282,209 1288,202 1285,196 1289,189 1287,184 1291,177 1290,171 1292,164 1294,158 1296,164 1298,171 1297,177 1301,184 1299,189 1303,196 1300,202 1306,209 1301,215 1309,222 Z M1296,222 1306,212 1299,204 1307,193 1303,185 1309,175 1307,167 1311,157 1310,149 1313,139 1315,130 1318,139 1321,149 1320,157 1324,167 1322,175 1328,185 1323,193 1331,204 1325,212 1335,222 Z M1317,222 1323,215 1319,210 1324,203 1322,198 1325,192 1325,186 1327,180 1329,175 1331,180 1332,186 1332,192 1335,198 1333,203 1338,210 1335,215 1341,222 Z M1329,222 1338,214 1332,208 1340,200 1336,194 1341,187 1339,181 1343,173 1342,167 1345,159 1347,153 1349,159 1352,167 1351,173 1355,181 1353,187 1359,194 1354,200 1362,208 1356,214 1365,222 Z M1344,222 1351,214 1348,208 1353,201 1351,195 1355,188 1354,182 1356,175 1358,169 1360,175 1363,182 1362,188 1366,195 1364,201 1369,208 1365,214 1372,222 Z M1357,221 1368,208 1362,197 1371,184 1367,173 1373,160 1372,149 1376,136 1379,125 1383,136 1386,149 1386,160 1392,173 1388,184 1397,197 1391,208 1402,221 Z M1380,221 1389,212 1384,204 1391,195 1389,187 1394,177 1393,169 1396,160 1399,152 1401,160 1404,169 1404,177 1409,187 1406,195 1413,204 1408,212 1417,221 Z M1398,221 1406,211 1402,203 1408,193 1406,185 1410,175 1410,167 1412,157 1415,149 1418,157 1420,167 1420,175 1424,185 1422,193 1428,203 1424,211 1432,221 Z M1414,221 1424,211 1418,203 1426,193 1422,185 1428,175 1425,167 1430,157 1429,149 1432,139 1434,131 1437,139 1439,149 1439,157 1443,167 1440,175 1447,185 1442,193 1450,203 1444,211 1454,221 Z M1435,221 1441,215 1437,210 1442,204 1439,199 1443,193 1442,188 1444,181 1444,176 1445,170 1447,165 1449,170 1450,176 1450,181 1452,188 1451,193 1455,199 1452,204 1457,210 1453,215 1459,221 Z M1447,221 1453,215 1449,210 1454,204 1451,199 1455,193 1453,188 1456,182 1455,177 1457,171 1458,167 1460,171 1462,177 1461,182 1464,188 1462,193 1466,199 1463,204 1468,210 1464,215 1470,221 Z M1457,221 1462,215 1459,210 1463,204 1461,200 1464,194 1463,189 1465,183 1465,179 1466,173 1467,168 1469,173 1470,179 1470,183 1472,189 1471,194 1474,200 1472,204 1476,210 1472,215 1478,221 Z M1466,221 1474,214 1469,208 1475,201 1472,196 1477,189 1475,184 1478,177 1478,171 1480,164 1482,159 1484,164 1486,171 1486,177 1489,184 1487,189 1492,196 1489,201 1495,208 1490,214 1498,221 Z M1481,220 1493,209 1485,199 1495,187 1490,178 1497,166 1494,156 1499,145 1498,135 1501,123 1504,114 1507,123 1510,135 1509,145 1514,156 1511,166 1518,178 1513,187 1523,199 1515,209 1527,220 Z M1507,220 1519,208 1513,198 1522,186 1518,176 1525,164 1524,155 1527,143 1531,133 1535,143 1538,155 1537,164 1544,176 1540,186 1549,198 1543,208 1554,220 Z M1529,220 1537,211 1533,204 1539,195 1536,187 1541,179 1540,171 1543,162 1545,155 1547,162 1550,171 1549,179 1554,187 1551,195 1557,204 1553,211 1561,220 Z M1542,220 1548,212 1545,206 1550,198 1548,191 1551,184 1551,177 1553,170 1555,163 1556,170 1558,177 1558,184 1561,191 1559,198 1564,206 1561,212 1567,220 Z M1553,220 1564,207 1558,196 1566,183 1563,173 1569,160 1568,149 1572,136 1575,126 1578,136 1582,149 1581,160 1587,173 1583,183 1592,196 1586,207 1597,220 Z M1573,219 1585,206 1578,194 1588,180 1584,169 1590,155 1589,144 1593,130 1597,119 1601,130 1604,144 1603,155 1610,169 1606,180 1615,194 1609,206 1621,219 Z M1601,219 1607,213 1604,207 1609,201 1607,196 1610,190 1610,184 1612,178 1613,173 1615,178 1617,184 1617,190 1620,196 1618,201 1623,207 1620,213 1626,219 Z M1615,219 1626,209 1619,202 1628,192 1623,184 1630,175 1627,167 1632,157 1631,150 1634,140 1637,132 1639,140 1642,150 1641,157 1646,167 1643,175 1650,184 1645,192 1654,202 1647,209 1658,219 Z M1635,219 1649,203 1642,190 1652,174 1648,162 1656,146 1654,133 1659,118 1663,105 1667,118 1672,133 1671,146 1678,162 1674,174 1684,190 1677,203 1691,219 Z M1659,218 1668,208 1663,200 1670,189 1667,181 1672,171 1671,162 1674,152 1677,144 1680,152 1682,162 1682,171 1686,181 1684,189 1691,200 1686,208 1695,218 Z M1677,218 1684,209 1680,201 1685,192 1683,185 1687,175 1686,168 1688,159 1690,151 1692,159 1694,168 1694,175 1697,185 1695,192 1700,201 1697,209 1703,218 Z M1691,218 1698,211 1693,205 1699,197 1696,191 1700,184 1698,178 1701,171 1701,165 1703,158 1704,152 1706,158 1708,165 1707,171 1710,178 1709,184 1713,191 1710,197 1715,205 1711,211 1718,218 Z M1704,218 1714,209 1708,201 1716,192 1712,185 1718,176 1715,168 1720,159 1719,152 1722,143 1725,136 1728,143 1730,152 1729,159 1734,168 1731,176 1738,185 1733,192 1742,201 1735,209 1746,218 Z M1723,217 1731,208 1727,201 1733,192 1731,185 1735,176 1734,168 1737,159 1739,152 1742,159 1744,168 1744,176 1748,185 1746,192 1752,201 1747,208 1755,217 Z M1742,217 1750,207 1745,198 1752,188 1749,179 1754,169 1753,160 1756,150 1758,141 1761,150 1763,160 1763,169 1767,179 1765,188 1771,198 1767,207 1775,217 Z M1756,217 1767,205 1761,195 1769,183 1766,174 1772,162 1771,152 1774,141 1778,131 1781,141 1785,152 1784,162 1790,174 1786,183 1795,195 1789,205 1800,217 Z M1775,216 1783,205 1779,196 1785,185 1783,176 1787,165 1787,156 1789,145 1792,136 1795,145 1798,156 1797,165 1802,176 1799,185 1806,196 1801,205 1810,216 Z M1791,216 1798,210 1793,204 1799,198 1796,192 1800,186 1798,180 1801,174 1801,168 1803,162 1805,156 1806,162 1808,168 1808,174 1811,180 1809,186 1813,192 1810,198 1816,204 1811,210 1818,216 Z M1803,216 1813,206 1807,197 1815,187 1810,178 1817,168 1814,160 1819,149 1818,141 1821,131 1823,122 1826,131 1829,141 1828,149 1833,160 1830,168 1836,178 1832,187 1840,197 1834,206 1844,216 Z M1822,216 1832,205 1827,197 1834,187 1831,178 1836,168 1836,160 1839,150 1842,141 1845,150 1848,160 1847,168 1852,178 1849,187 1857,197 1851,205 1861,216 Z M1841,215 1847,208 1844,202 1849,195 1847,190 1850,182 1850,177 1852,170 1854,164 1856,170 1858,177 1857,182 1861,190 1859,195 1864,202 1860,208 1866,215 Z M1853,215 1860,207 1856,201 1862,193 1860,186 1863,178 1863,172 1865,164 1867,157 1869,164 1871,172 1871,178 1875,186 1872,193 1878,201 1874,207 1881,215 Z M1867,215 1872,208 1869,203 1873,197 1871,191 1874,185 1874,180 1875,173 1877,168 1878,173 1880,180 1879,185 1882,191 1881,197 1884,203 1882,208 1887,215 Z M1875,215 1884,205 1879,196 1885,186 1883,178 1887,168 1887,159 1889,149 1892,141 1894,149 1897,159 1896,168 1900,178 1898,186 1904,196 1900,205 1908,215 Z M1893,214 1898,207 1895,200 1900,192 1898,186 1901,178 1901,172 1902,164 1904,157 1906,164 1907,172 1907,178 1910,186 1908,192 1912,200 1909,207 1915,214 Z M1903,214 1911,207 1906,202 1912,195 1908,190 1913,183 1911,177 1915,170 1914,165 1916,158 1918,153 1921,158 1923,165 1922,170 1926,177 1923,183 1929,190 1925,195 1931,202 1926,207 1934,214 Z M1921,214 1930,204 1924,196 1932,187 1927,179 1933,169 1931,161 1935,152 1934,144 1937,134 1939,126 1942,134 1944,144 1944,152 1948,161 1945,169 1951,179 1947,187 1955,196 1949,204 1958,214 Z M1942,214 1950,203 1946,195 1951,185 1949,177 1953,167 1953,158 1955,148 1957,140 1960,148 1962,158 1962,167 1966,177 1963,185 1969,195 1965,203 1973,214 Z M1960,213 1967,205 1963,198 1968,189 1966,183 1970,174 1969,167 1971,159 1973,152 1975,159 1977,167 1977,174 1980,183 1978,189 1983,198 1980,205 1986,213 Z M1975,213 1982,207 1977,202 1983,196 1980,191 1985,184 1983,179 1986,173 1986,168 1987,162 1989,157 1991,162 1993,168 1993,173 1996,179 1994,184 1999,191 1995,196 2001,202 1997,207 2004,213 Z M1991,213 2005,201 1996,191 2007,180 2001,170 2009,158 2006,149 2012,137 2011,128 2014,116 2018,106 2021,116 2025,128 2024,137 2030,149 2026,158 2035,170 2029,180 2040,191 2031,201 2045,213 Z M2020,212 2032,197 2025,184 2034,169 2031,156 2037,141 2036,128 2040,113 2043,101 2047,113 2051,128 2050,141 2056,156 2053,169 2062,184 2055,197 2067,212 Z M2042,212 2052,203 2046,196 2054,187 2050,180 2056,171 2053,164 2058,155 2057,148 2060,139 2063,131 2066,139 2068,148 2068,155 2072,164 2069,171 2076,180 2071,187 2080,196 2073,203 2084,212 Z M2065,211 2076,202 2069,195 2078,186 2073,178 2080,169 2077,162 2082,153 2081,145 2084,136 2086,128 2089,136 2092,145 2091,153 2096,162 2093,169 2099,178 2095,186 2103,195 2097,202 2107,211 Z M2083,211 2088,205 2085,200 2090,194 2087,189 2091,183 2089,178 2092,172 2091,167 2093,161 2094,156 2096,161 2097,167 2097,172 2100,178 2098,183 2102,189 2099,194 2104,200 2100,205 2106,211 Z M2092,211 2100,204 2095,198 2101,190 2098,184 2103,177 2101,171 2104,163 2104,157 2106,150 2108,144 2110,150 2112,157 2111,163 2115,171 2113,177 2118,184 2114,190 2120,198 2116,204 2123,211 Z M2106,211 2114,202 2110,195 2116,187 2114,180 2118,171 2118,165 2120,156 2123,149 2125,156 2128,165 2127,171 2132,180 2129,187 2135,195 2131,202 2139,211 Z M2122,210 2130,200 2126,191 2132,180 2129,171 2134,160 2133,152 2136,141 2138,132 2140,141 2143,152 2142,160 2147,171 2144,180 2150,191 2146,200 2154,210 Z M2138,210 2146,202 2141,196 2148,188 2144,182 2150,174 2147,167 2151,159 2150,153 2153,145 2155,139 2157,145 2159,153 2159,159 2162,167 2160,174 2165,182 2162,188 2168,196 2163,202 2172,210 Z M2153,210 2164,195 2158,183 2167,168 2163,156 2169,141 2168,129 2172,114 2175,102 2178,114 2182,129 2181,141 2187,156 2183,168 2192,183 2186,195 2197,210 Z M2178,209 2187,198 2182,189 2189,177 2186,168 2191,156 2190,147 2193,135 2196,126 2198,135 2201,147 2200,156 2205,168 2202,177 2209,189 2204,198 2213,209 Z M2194,209 2202,200 2197,193 2203,184 2200,177 2205,168 2203,160 2206,151 2206,144 2208,135 2210,128 2212,135 2214,144 2214,151 2217,160 2215,168 2220,177 2217,184 2223,193 2218,200 2226,209 Z M2207,209 2213,201 2210,194 2214,186 2212,180 2215,172 2215,165 2217,157 2218,150 2220,157 2222,165 2221,172 2224,180 2223,186 2227,194 2224,201 2230,209 Z M2218,209 2227,198 2222,189 2229,179 2226,170 2231,159 2230,151 2233,140 2236,131 2238,140 2241,151 2241,159 2245,170 2243,179 2250,189 2245,198 2254,209 Z M2235,209 2242,201 2238,194 2244,186 2242,180 2245,172 2245,165 2247,157 2249,151 2252,157 2254,165 2253,172 2257,180 2255,186 2260,194 2257,201 2264,209 Z M2250,208 2259,198 2255,190 2261,180 2259,172 2263,162 2263,154 2266,144 2268,136 2271,144 2274,154 2273,162 2278,172 2275,180 2282,190 2277,198 2286,208 Z M2269,208 2276,199 2272,192 2278,182 2276,175 2280,166 2279,158 2281,149 2284,142 2286,149 2288,158 2288,166 2292,175 2289,182 2295,192 2291,199 2299,208 Z M2283,208 2296,196 2288,186 2299,174 2293,165 2301,153 2297,143 2303,131 2302,121 2306,110 2309,100 2313,110 2316,121 2315,131 2321,143 2318,153 2326,165 2320,174 2331,186 2323,196 2336,208 Z M2312,208 2320,201 2315,195 2322,188 2318,182 2323,175 2321,170 2325,163 2324,157 2326,150 2328,145 2331,150 2333,157 2332,163 2336,170 2334,175 2339,182 2335,188 2342,195 2337,201 2345,208 Z M2331,207 2343,194 2337,183 2346,169 2343,158 2349,144 2348,133 2352,120 2356,109 2359,120 2363,133 2362,144 2369,158 2365,169 2374,183 2368,194 2380,207 Z M2354,207 2360,201 2357,195 2362,189 2360,184 2363,177 2363,172 2364,166 2366,160 2368,166 2370,172 2370,177 2373,184 2371,189 2376,195 2372,201 2379,207 Z M2368,207 2382,191 2374,178 2385,162 2380,150 2388,134 2387,121 2391,105 2395,92 2400,105 2404,121 2403,134 2411,150 2406,162 2417,178 2409,191 2423,207 Z M2395,206 2400,199 2397,194 2402,187 2400,181 2403,174 2403,168 2404,161 2406,155 2408,161 2409,168 2409,174 2412,181 2410,187 2415,194 2412,199 2417,206 Z M2406,206 2416,196 2410,188 2418,178 2413,170 2420,160 2417,151 2422,141 2421,133 2424,123 2427,115 2429,123 2432,133 2431,141 2436,151 2433,160 2440,170 2435,178 2444,188 2437,196 2447,206 Z M2425,206 2434,196 2429,187 2436,177 2433,168 2438,158 2437,149 2440,139 2443,130 2445,139 2448,149 2447,158 2452,168 2449,177 2456,187 2451,196 2460,206 Z M2443,206 2456,195 2448,186 2459,175 2453,166 2461,156 2457,147 2463,136 2462,127 2466,116 2469,107 2473,116 2476,127 2475,136 2481,147 2477,156 2486,166 2480,175 2490,186 2482,195 2495,206 Z M2467,206 2475,195 2471,185 2477,174 2474,165 2479,154 2478,145 2481,133 2483,124 2486,133 2488,145 2487,154 2492,165 2489,174 2495,185 2491,195 2499,206 Z M2480,206 2489,194 2484,184 2491,171 2488,162 2493,149 2492,140 2495,127 2498,118 2501,127 2503,140 2503,149 2507,162 2505,171 2511,184 2507,194 2515,206 Z M2498,205 2505,198 2501,191 2507,184 2505,177 2509,169 2508,163 2510,155 2513,149 2515,155 2517,163 2517,169 2521,177 2518,184 2524,191 2520,198 2528,205 Z M2514,205 2524,193 2519,183 2527,170 2523,160 2529,148 2528,137 2532,125 2535,115 2538,125 2541,137 2541,148 2546,160 2543,170 2551,183 2546,193 2556,205 Z M2535,205 2544,196 2538,189 2546,180 2542,173 2548,164 2545,157 2549,148 2549,141 2551,132 2554,125 2556,132 2558,141 2558,148 2562,157 2559,164 2565,173 2561,180 2569,189 2563,196 2572,205 Z M2551,205 2562,193 2556,182 2564,170 2561,160 2566,147 2566,137 2569,125 2572,114 2575,125 2579,137 2578,147 2583,160 2580,170 2588,182 2583,193 2593,205 Z M2573,205 2585,191 2579,180 2587,167 2584,156 2590,142 2589,131 2592,117 2596,106 2599,117 2603,131 2602,142 2608,156 2605,167 2613,180 2607,191 2618,205 Z M2593,205 2599,199 2596,194 2601,188 2598,183 2602,177 2600,173 2603,167 2602,162 2604,156 2605,151 2607,156 2609,162 2608,167 2611,173 2609,177 2613,183 2610,188 2615,194 2612,199 2618,205 Z M2605,205 2611,199 2607,195 2612,189 2609,185 2613,180 2611,175 2614,170 2613,165 2615,160 2617,155 2618,160 2620,165 2619,170 2622,175 2620,180 2624,185 2621,189 2626,195 2622,199 2628,205 Z M2617,205 2629,192 2621,182 2631,169 2626,159 2634,147 2630,136 2636,124 2635,113 2638,101 2642,91 2645,101 2648,113 2647,124 2653,136 2650,147 2658,159 2652,169 2662,182 2654,192 2667,205 Z M-20,208 4,209 28,209 52,209 76,210 100,210 124,210 148,210 172,211 196,211 220,211 244,212 268,212 292,213 316,213 340,213 364,214 388,214 412,214 436,215 460,215 484,216 508,216 532,216 556,217 580,217 604,217 628,218 652,218 676,218 700,219 724,219 748,219 772,220 796,220 820,220 844,220 868,221 892,221 916,221 940,221 964,221 988,222 1012,222 1036,222 1060,222 1084,222 1108,222 1132,222 1156,222 1180,222 1204,222 1228,222 1252,222 1276,222 1300,222 1324,222 1348,222 1372,221 1396,221 1420,221 1444,221 1468,221 1492,220 1516,220 1540,220 1564,220 1588,219 1612,219 1636,219 1660,218 1684,218 1708,218 1732,217 1756,217 1780,216 1804,216 1828,216 1852,215 1876,215 1900,214 1924,214 1948,213 1972,213 1996,213 2020,212 2044,212 2068,211 2092,211 2116,211 2140,210 2164,210 2188,209 2212,209 2236,209 2260,208 2284,208 2308,208 2332,207 2356,207 2380,207 2404,206 2428,206 2452,206 2476,206 2500,205 2524,205 2548,205 2572,205 2596,205 2600,299 -20,299 Z" fill="#173f36"/></g>
</svg>
