<?xml version="1.0" encoding="utf-8"?>
<!-- Generator: Adobe Illustrator 18.1.1, SVG Export Plug-In . SVG Version: 6.00 Build 0)  -->
<svg version="1.1" id="Layer_1" xmlns="http://www.w3.org/2000/svg" xmlns:xlink="http://www.w3.org/1999/xlink" x="0px" y="0px"
	 viewBox="0 0 838.5 139" enable-background="new 0 0 838.5 139" xml:space="preserve">
<text transform="matrix(1 0 0 1 4.8044 81.5)"><tspan x="0" y="0" fill="#BCBCBC" stroke="#BCBBBB" stroke-width="1.5" stroke-miterlimit="10" font-family="'BernhardModern-Bold'" font-size="118">A</tspan><tspan x="89.6" y="0" fill="#BCBCBC" stroke="#BCBBBB" stroke-width="1.5" stroke-miterlimit="10" font-family="'BernhardModern-Bold'" font-size="67">LEXIS </tspan><tspan x="296.9" y="0" fill="#BCBCBC" stroke="#BCBBBB" stroke-width="1.5" stroke-miterlimit="10" font-family="'BernhardModern-Bold'" font-size="90">P</tspan><tspan x="351.8" y="0" fill="#BCBCBC" stroke="#BCBBBB" stroke-width="1.5" stroke-miterlimit="10" font-family="'BernhardModern-Bold'" font-size="67">ARTY </tspan><tspan x="551.6" y="0" fill="#BCBCBC" stroke="#BCBBBB" stroke-width="1.5" stroke-miterlimit="10" font-family="'BernhardModern-Bold'" font-size="90">R</tspan><tspan x="609.9" y="0" fill="#BCBCBC" stroke="#BCBBBB" stroke-width="1.5" stroke-miterlimit="10" font-family="'BernhardModern-Bold'" font-size="67">ENTAL</tspan></text>
<text transform="matrix(1 0 0 1 6.3044 81.5)"><tspan x="0" y="0" font-family="'BernhardModern-Bold'" font-size="118">A</tspan><tspan x="89.6" y="0" font-family="'BernhardModern-Bold'" font-size="67">LEXIS </tspan><tspan x="296.9" y="0" font-family="'BernhardModern-Bold'" font-size="90">P</tspan><tspan x="351.8" y="0" font-family="'BernhardModern-Bold'" font-size="67">ARTY </tspan><tspan x="551.6" y="0" font-family="'BernhardModern-Bold'" font-size="90">R</tspan><tspan x="609.9" y="0" font-family="'BernhardModern-Bold'" font-size="67">ENTAL</tspan></text>
<path d="M230.6,17.7c1.4,0.2,2.1,0.1,2.7,0.4c4.5,2.2,7.3,0.2,9.4-3.7c0.5-0.9,1.2-1.6,2.2-2.8c0.5,2.9,1,5.3,1.3,7.7
	c0.2,1.4,0.7,2.2,2.2,2.4c2,0.4,3.9,1,5.8,1.4c0,0.3,0.1,0.5,0.1,0.8c-1.9,0.9-3.9,1.7-5.6,2.8c-0.8,0.5-1.5,1.6-1.7,2.5
	c-0.3,2.3-0.2,4.7-0.3,7.7c-2-1.9-3.6-3.4-5-4.9c-1-1.1-2-1.3-3.5-0.8c-2,0.7-4,1.1-6.7,1.9c1.3-2.5,2.2-4.5,3.3-6.3
	c0.9-1.5,0.9-2.6-0.3-4C233.1,21.4,232.1,19.8,230.6,17.7z"/>
<line fill="none" stroke="#000000" stroke-width="4" stroke-miterlimit="10" x1="0" y1="94.5" x2="838.5" y2="94"/>
<text transform="matrix(1 0 0 1 92.8449 134)" stroke="#000000" stroke-miterlimit="10" font-family="'BernhardModernStd-Bold'" font-size="35">FOR WEDDINGS AND SPECIAL EVENTS</text>
</svg>
