<?xml version="1.0" encoding="utf-8"?>
<!-- Generator: Adobe Illustrator 25.0.0, SVG Export Plug-In . SVG Version: 6.00 Build 0)  -->
<svg version="1.1" id="Layer_1" xmlns="http://www.w3.org/2000/svg" xmlns:xlink="http://www.w3.org/1999/xlink" x="0px" y="0px"
	 viewBox="0 0 241.462 58.997" style="enable-background:new 0 0 241.462 58.997;" xml:space="preserve">
<g>
	<path style="fill:none;" d="M19.913,44.735c-0.601,0.017-1.208,0.032-1.783,0.058c0.03-0.676,0.066-1.352,0.104-2.027l-0.007-0.009
		c-0.043,0.69-0.081,1.373-0.114,2.054c0.591-0.025,1.192-0.047,1.809-0.064L19.913,44.735z"/>
	<path style="fill:none;" d="M17.543,44.837c0.001,0,0.002,0,0.002,0c0.004-0.081,0.007-0.164,0.011-0.245
		C17.552,44.674,17.547,44.755,17.543,44.837z"/>
	<path style="fill:none;" d="M15.656,39.802c-0.113,0.017-0.243,0.01-0.381-0.01C15.414,39.815,15.542,39.819,15.656,39.802z"/>
	<polygon style="fill:none;" points="17.663,28.388 17.699,28.352 17.662,28.388 	"/>
	<path style="fill:none;" d="M13.636,34.627l0.238-0.001c0.098-0.001,0.183,0.005,0.268,0.011c-0.084-0.007-0.167-0.014-0.263-0.014
		h-0.236l-0.156-0.157c-0.234-0.235-0.422-0.399-0.577-0.506c0.152,0.11,0.334,0.271,0.56,0.498L13.636,34.627z"/>
	<path style="fill:none;" d="M20.325,29.354c0.016,0.007,0.031,0.011,0.047,0.017c-0.043-0.017-0.085-0.038-0.127-0.056
		C20.271,29.327,20.298,29.342,20.325,29.354z"/>
	<path style="fill:none;" d="M21.32,29.709c-0.074-0.023-0.149-0.045-0.223-0.069C21.171,29.665,21.246,29.686,21.32,29.709z"/>
	<path style="fill:none;" d="M22.659,30.036c-0.077-0.014-0.154-0.028-0.231-0.044C22.505,30.007,22.582,30.024,22.659,30.036z"/>
	<path style="fill:none;" d="M27.839,14.95c0.037,0,0.078-0.003,0.116-0.004c-0.166,0.001-0.333,0.004-0.499,0.004H27.839z"/>
	<path style="fill:none;" d="M17.644,42.932c0.007-0.117,0.012-0.233,0.019-0.351c0.009-0.148,0.023-0.3,0.032-0.448l0,0
		c-0.009,0.147-0.023,0.296-0.032,0.443C17.656,42.694,17.651,42.814,17.644,42.932z"/>
	<path style="fill:none;" d="M14.559,34.704c0.011,0.003,0.019,0.009,0.03,0.012C14.578,34.713,14.57,34.707,14.559,34.704z"/>
	<path style="fill:none;" d="M16.001,36.417l-0.035-0.071c-0.057-0.107-0.108-0.197-0.161-0.292c0.05,0.092,0.1,0.179,0.153,0.281
		L16.001,36.417z"/>
	<path style="fill:none;" d="M15.848,32.997c-0.264,0.134-0.515,0.271-0.762,0.408C15.332,33.268,15.585,33.132,15.848,32.997z"/>
	<path style="fill:none;" d="M16.358,36.64c0.054,0.017,0.096,0.04,0.127,0.067C16.454,36.673,16.409,36.647,16.358,36.64z"/>
	<path style="fill:none;" d="M14.249,34.643c0.021,0.002,0.038,0.008,0.059,0.011C14.287,34.651,14.27,34.646,14.249,34.643z"/>
	<polygon style="fill:none;" points="14.588,38.839 14.766,38.721 14.89,38.624 14.758,38.718 	"/>
	<polygon style="fill:none;" points="16.185,36.589 16.073,36.555 16.077,36.562 	"/>
	<path style="fill:none;" d="M16.586,37.262c-0.043,0.188-0.135,0.36-0.261,0.468l-0.003,0.003c-0.146,0.129-0.261,0.264-0.37,0.399
		c0.113-0.136,0.231-0.276,0.38-0.403c0.13-0.104,0.208-0.288,0.261-0.47c0.025-0.105,0.025-0.235,0.025-0.338
		c-0.021-0.067-0.047-0.126-0.083-0.16c0.031,0.046,0.058,0.098,0.07,0.167C16.624,37.029,16.614,37.146,16.586,37.262z"/>
	<polygon style="fill:none;" points="28.568,14.925 28.653,13.931 28.567,14.925 	"/>
	<path style="fill:none;" d="M23.624,16.199c0.285-0.032,0.569-0.057,0.851-0.075C24.193,16.141,23.909,16.168,23.624,16.199z"/>
	<path style="fill:none;" d="M28.529,16.138c-0.003-0.031-0.009-0.06-0.011-0.091c-0.055,0-0.107,0.006-0.16,0.006
		c0.051-0.001,0.103,0,0.154-0.001C28.515,16.081,28.525,16.108,28.529,16.138z"/>
	<path style="fill:none;" d="M28.866,17.449c-0.057-0.145-0.127-0.282-0.167-0.437c-0.002-0.007-0.003-0.014-0.005-0.02
		c0.002,0.009,0.003,0.018,0.005,0.027C28.743,17.169,28.81,17.306,28.866,17.449z"/>
	<path style="fill:none;" d="M25.052,16.094c0.08-0.003,0.159-0.006,0.238-0.008C25.211,16.088,25.131,16.091,25.052,16.094z"/>
	<path style="fill:none;" d="M16.247,25.658l0.05,0.025l0.425,0.213l0.166-0.447c0.086-0.235,0.141-0.459,0.182-0.677
		c-0.042,0.215-0.099,0.436-0.19,0.667l-0.155,0.444l-0.42-0.209l-0.053-0.025l-0.286-0.157l0.005-0.032l-0.01,0.054L16.247,25.658z
		"/>
	<polygon style="fill:none;" points="18.733,31.595 18.733,31.598 18.704,31.614 18.733,31.6 	"/>
	<path style="fill:none;" d="M20.815,1.258c0.261,0.049,0.516,0.114,0.764,0.195C21.333,1.371,21.077,1.307,20.815,1.258z"/>
	<path style="fill:none;" d="M14.304,22.662c0.158-0.01,0.319,0.005,0.482,0.066c0.764,0.279,1.172,0.894,1.268,1.593
		c0.018,0.126,0.021,0.26,0.018,0.396c0.022-0.127-0.001-0.276-0.001-0.401c-0.105-0.703-0.522-1.33-1.278-1.59
		c-0.155-0.079-0.314-0.079-0.469-0.079c-0.184,0.027-0.341,0.053-0.497,0.105c-0.261,0.169-0.496,0.358-0.695,0.564
		c0.198-0.202,0.428-0.386,0.685-0.544C13.98,22.715,14.143,22.675,14.304,22.662z"/>
	<path style="fill:none;" d="M30.358,19.664c0.002,0.002,0.004,0.005,0.007,0.007c-0.007-0.008-0.015-0.016-0.022-0.025
		c-0.008-0.008-0.016-0.018-0.023-0.026C30.332,19.635,30.345,19.65,30.358,19.664z"/>
	<path style="fill:none;" d="M16.07,24.785c-0.005,0.11-0.02,0.222-0.04,0.333C16.061,25.014,16.07,24.901,16.07,24.785z"/>
	<path style="fill:none;" d="M22.69,16.332c0.209-0.038,0.417-0.072,0.624-0.099C23.108,16.26,22.899,16.296,22.69,16.332z"/>
	<path style="fill:none;" d="M17.32,18.746c0.165-0.125,0.33-0.247,0.494-0.361C17.65,18.5,17.486,18.62,17.32,18.746z"/>
	<path style="fill:none;" d="M16.619,19.311c0.113-0.096,0.227-0.193,0.339-0.283C16.845,19.119,16.732,19.215,16.619,19.311z"/>
	<path style="fill:none;" d="M15.954,19.902c0.056-0.052,0.113-0.109,0.169-0.16C16.068,19.793,16.011,19.849,15.954,19.902z"/>
	<path style="fill:none;" d="M18.046,18.225c0.208-0.139,0.414-0.269,0.619-0.39C18.46,17.956,18.254,18.086,18.046,18.225z"/>
	<path style="fill:none;" d="M21.995,16.463c-0.345,0.082-0.691,0.192-1.041,0.315c0.526-0.177,1.044-0.313,1.556-0.412
		C22.338,16.399,22.168,16.423,21.995,16.463z"/>
	<path style="fill:none;" d="M19.582,17.338c0.116-0.056,0.231-0.103,0.346-0.155C19.813,17.234,19.698,17.282,19.582,17.338z"/>
	<path style="fill:none;" d="M18.798,17.755c0.215-0.124,0.427-0.236,0.638-0.342C19.225,17.518,19.012,17.632,18.798,17.755z"/>
	<path style="fill:none;" d="M26.22,30.109c0.071-0.01,0.139-0.025,0.209-0.036c-0.117,0.018-0.233,0.031-0.35,0.045
		C26.127,30.112,26.173,30.115,26.22,30.109z"/>
	<polygon style="fill:none;" points="27.719,32.242 27.665,32.226 27.664,32.23 	"/>
	<path style="fill:none;" d="M26.481,31.191c0.072-0.01,0.144-0.022,0.216-0.033C26.626,31.17,26.554,31.181,26.481,31.191z"/>
	<path style="fill:none;" d="M27.752,31.7l-0.04,0.239l0.047-0.238l0.08-0.494l0.05-0.289l-0.022,0.012
		c0.004-0.001,0.008-0.001,0.013-0.002L27.752,31.7z"/>
	<path style="fill:none;" d="M22.434,32.179c0.418-0.169,0.84-0.322,1.268-0.458C23.274,31.858,22.852,32.014,22.434,32.179z"/>
	<path style="fill:none;" d="M25.309,31.309c-0.001,0-0.003,0.001-0.004,0.001c0.012-0.001,0.024-0.003,0.036-0.004
		C25.331,31.307,25.319,31.308,25.309,31.309z"/>
	<path style="fill:none;" d="M22.295,32.235c-0.1,0.04-0.201,0.078-0.3,0.119c-0.55,0.235-1.097,0.494-1.67,0.756
		c-0.261,0.13-0.547,0.288-0.836,0.417c-0.262,2.124-0.647,4.139-0.932,6.145l0.006,0.007c0.288-2.013,0.68-4.029,0.941-6.158
		C20.446,33.063,21.364,32.617,22.295,32.235z"/>
	<path style="fill:none;" d="M36.429,44.149c-0.195,0.38-0.319,0.781-0.371,1.208c-0.412-0.055-0.844-0.107-1.295-0.158
		c-0.164-0.113-0.326-0.26-0.485-0.422c0.168,0.176,0.339,0.331,0.511,0.454c0.459,0.05,0.895,0.103,1.31,0.158
		c0.049-0.424,0.149-0.834,0.351-1.215c0.653-1.254,1.564-1.982,2.584-2.243l-0.019-0.016C38,42.188,37.072,42.913,36.429,44.149z"
		/>
	<path style="fill:none;" d="M29.659,32.728c1.047,0.341,1.781,0.769,2.384,1.372c0.109,0.109,0.215,0.225,0.318,0.347
		c-0.098-0.116-0.194-0.239-0.293-0.345C31.454,33.489,30.715,33.064,29.659,32.728z"/>
	<path style="fill:none;" d="M31.899,41.943c-0.376-0.03-0.592,0.158-0.63,0.611v0.009v0.038l0.033,2.307
		c-2.317-0.146-4.934-0.23-7.698-0.23c-0.236,0-0.459,0.006-0.693,0.007l0.013,0.015c0.221-0.001,0.437-0.004,0.66-0.004
		c2.784,0,5.4,0.088,7.722,0.238l-0.022-2.301v-0.051c0.023-0.47,0.259-0.651,0.625-0.627c0.367,0.055,0.653,0.47,1.042,1.07
		l0.105,0.155c0.042,0.062,0.091,0.133,0.136,0.198c-0.089-0.133-0.18-0.269-0.258-0.389C32.547,42.403,32.266,41.972,31.899,41.943
		z"/>
	<path style="fill:none;" d="M34.588,38.222l0.008,0.018l1.226,1.012l-1.201-1.002l-0.028-0.026v-0.025
		c-0.597-1.146-1.066-2.061-1.537-2.792c-0.021-0.035-0.044-0.062-0.066-0.097c0.487,0.754,0.972,1.695,1.58,2.879L34.588,38.222z"
		/>
	<path style="fill:none;" d="M93.62,15.552c-0.089-0.196-0.235-0.367-0.436-0.51c-0.201-0.139-0.485-0.209-0.842-0.209
		c-0.379,0-0.674,0.071-0.879,0.21c-0.2,0.142-0.341,0.313-0.433,0.523c-0.088,0.206-0.145,0.427-0.168,0.657
		c-0.02,0.205-0.029,0.398-0.029,0.591v3.081h1.976c0.302,0,0.555-0.036,0.751-0.107c0.17-0.064,0.256-0.324,0.256-0.773v-2.202
		c0-0.165-0.01-0.364-0.03-0.61C93.766,15.972,93.71,15.752,93.62,15.552z"/>
	<path style="fill:none;" d="M37.622,49.625c0.028,0.045,0.058,0.081,0.088,0.121c-0.033-0.046-0.062-0.104-0.093-0.157
		c-1.917,0.417-3.986,0.736-6.123,0.961C33.633,50.335,35.703,50.027,37.622,49.625z"/>
	<path style="fill:none;" d="M37.145,49.435c0.141,0.062,0.292,0.097,0.44,0.1c-0.012-0.023-0.026-0.041-0.038-0.065
		c-0.158,0-0.316-0.053-0.444-0.105c-0.158-0.078-0.314-0.156-0.417-0.287c-0.039-0.031-0.075-0.07-0.112-0.106
		c0.047,0.06,0.079,0.127,0.135,0.179C36.833,49.269,36.984,49.369,37.145,49.435z"/>
	<path style="fill:none;" d="M32.362,34.448c0.137,0.162,0.27,0.341,0.401,0.528C32.632,34.788,32.499,34.61,32.362,34.448z"/>
	<path style="fill:none;" d="M18.473,29.943c0.009,0.03,0.013,0.059,0.024,0.089c0.032,0.09,0.066,0.184,0.098,0.281
		c-0.031-0.096-0.064-0.191-0.096-0.285C18.489,29.998,18.483,29.972,18.473,29.943z"/>
	<path style="fill:none;" d="M33.527,43.857c-0.047-0.066-0.096-0.13-0.141-0.196C33.432,43.728,33.479,43.791,33.527,43.857z"/>
	<path style="fill:none;" d="M36.408,48.753c-0.004-0.007-0.009-0.013-0.012-0.021c0.001,0.002,0.001,0.005,0.002,0.007
		C36.401,48.744,36.406,48.748,36.408,48.753z"/>
	<path style="fill:none;" d="M34.054,44.525c-0.074-0.085-0.149-0.168-0.221-0.259C33.905,44.357,33.98,44.438,34.054,44.525z"/>
	<path style="fill:none;" d="M17.714,36.738c-0.029-0.17-0.091-0.328-0.171-0.478C17.621,36.416,17.683,36.575,17.714,36.738z"/>
	<polygon style="fill:none;" points="16.855,35.615 16.857,35.616 16.854,35.614 	"/>
	<path style="fill:none;" d="M18.103,36.954c-0.03,0.323-0.074,0.654-0.101,0.975C18.029,37.609,18.073,37.276,18.103,36.954z"/>
	<path style="fill:none;" d="M15.381,33.846c-0.09-0.051-0.188-0.092-0.285-0.131C15.194,33.754,15.29,33.796,15.381,33.846z"/>
	<path style="fill:none;" d="M17.927,38.947c0.017-0.211,0.028-0.418,0.046-0.629C17.955,38.529,17.944,38.737,17.927,38.947
		L17.927,38.947z"/>
	<path style="fill:none;" d="M18.607,32.96c0.011-0.014,0.021-0.027,0.034-0.042C18.629,32.933,18.618,32.946,18.607,32.96z"/>
	<path style="fill:none;" d="M15.619,34.004c0.046,0.033,0.094,0.06,0.139,0.097c0.041,0.033,0.077,0.075,0.116,0.111
		c-0.04-0.039-0.078-0.083-0.12-0.119C15.71,34.057,15.662,34.036,15.619,34.004z"/>
	<path style="fill:none;" d="M14.726,33.608c0.082,0.018,0.163,0.037,0.239,0.062c-0.073-0.024-0.138-0.058-0.216-0.076
		C14.741,33.598,14.734,33.603,14.726,33.608z"/>
	<path style="fill:none;" d="M12.503,44.074c0-0.003,0-0.006,0-0.009c-0.205,0.22-0.416,0.439-0.637,0.649
		C12.087,44.506,12.297,44.291,12.503,44.074z"/>
	<path style="fill:none;" d="M19.379,30.159c0.091,0.042,0.184,0.075,0.275,0.115C19.563,30.234,19.471,30.202,19.379,30.159z"/>
	<path style="fill:none;" d="M11.098,45.382c0,0-0.001,0.001-0.001,0.001c0.017-0.002,0.032-0.005,0.049-0.007
		C11.131,45.378,11.114,45.38,11.098,45.382z"/>
	<path style="fill:none;" d="M18.392,29.64c0,0.003,0.001,0.005,0.002,0.008c0.214,0.122,0.431,0.227,0.648,0.336
		C18.824,29.872,18.605,29.764,18.392,29.64z"/>
	<path style="fill:none;" d="M33.057,44.983c-0.261-0.34-0.494-0.681-0.728-0.991l0.023,1.015c0.264,0.02,0.516,0.042,0.771,0.063
		C33.101,45.043,33.078,45.004,33.057,44.983z"/>
	<path style="fill:none;" d="M20.359,30.565c0.14,0.052,0.282,0.093,0.423,0.139C20.642,30.658,20.503,30.617,20.359,30.565z"/>
	<path style="fill:none;" d="M20.325,31.962c0.522-0.234,1.12-0.442,1.67-0.625c0.208-0.052,0.364-0.13,0.55-0.185
		c-1.218,0.381-2.606,0.905-3.4,1.388C19.461,32.35,19.868,32.153,20.325,31.962z"/>
	<path style="fill:none;" d="M21.294,30.864c0.116,0.033,0.233,0.064,0.349,0.093C21.527,30.927,21.41,30.897,21.294,30.864z"/>
	<path style="fill:none;" d="M19.019,32.618c-0.053,0.035-0.106,0.07-0.152,0.104C18.914,32.688,18.965,32.653,19.019,32.618z"/>
	<path style="fill:none;" d="M23.957,31.646c0.43-0.129,0.865-0.244,1.313-0.328C24.825,31.401,24.389,31.516,23.957,31.646z"/>
	<path style="fill:none;" d="M37.18,48.556c-0.053-0.052-0.105-0.103-0.131-0.182c-0.052-0.08-0.052-0.133-0.025-0.158
		c0.575-0.6,1.042-1.227,1.356-1.877c0.312-0.681,0.469-1.384,0.392-2.14c-0.017,0.03-0.033,0.068-0.05,0.1
		c0.04,0.527-0.028,1.029-0.189,1.515c0.001,0,0.002,0,0.003,0.001c-0.053,0.184-0.13,0.341-0.208,0.523
		c-0.314,0.65-0.781,1.277-1.358,1.877c-0.024,0.024-0.023,0.053,0,0.101c0.007,0.02,0.011,0.04,0.027,0.057
		c0.027,0.078,0.078,0.13,0.13,0.209c0.081,0.051,0.131,0.104,0.208,0.131c0.078,0.045,0.16,0.054,0.238,0.041
		c-0.062-0.003-0.127-0.018-0.186-0.041C37.313,48.688,37.23,48.634,37.18,48.556z"/>
	<path style="fill:none;" d="M41.225,50.096c0.442-0.523,1.278-1.434,0.992-2.296c-0.008,0.017-0.019,0.04-0.027,0.058v0.022v0.023
		v0.025h0.027v0.104c0.025,0.079,0.025,0.157,0,0.235c-0.052,0.705-0.678,1.408-1.022,1.854c0.056,0.078,0.108,0.131,0.186,0.155
		c0.056,0.015,0.129,0.011,0.217-0.008c-0.069,0.007-0.134,0.006-0.192-0.018C41.352,50.228,41.277,50.175,41.225,50.096z"/>
	<path style="fill:none;" d="M40.244,42.527c-0.023-0.006-0.046-0.025-0.091-0.025h-0.05H40.05h-0.103h-0.106h-0.025h-0.028
		l0.265,0.024C40.117,42.527,40.18,42.523,40.244,42.527z"/>
	<path style="fill:none;" d="M38.249,49.208c0.678-0.443,2.712-2.4,1.723-3.156c-0.004,0.013-0.011,0.024-0.015,0.037
		c0.055,0.049,0.104,0.104,0.146,0.145c0.009,0.016,0.012,0.034,0.019,0.051c0.002,0.001,0.004,0.001,0.006,0.003
		c0.005,0.01,0.003,0.023,0.008,0.034c0.025,0.065,0.041,0.133,0.046,0.204c0.003,0.032,0.009,0.062,0.008,0.096
		c-0.003,0.091-0.022,0.185-0.047,0.281c-0.005,0.017-0.009,0.035-0.015,0.052c-0.009,0.03-0.015,0.059-0.026,0.089
		c-0.027,0.068-0.066,0.139-0.102,0.209c-0.013,0.026-0.023,0.051-0.038,0.077c-0.049,0.089-0.106,0.179-0.167,0.268
		c-0.021,0.032-0.037,0.064-0.06,0.096c-0.001,0-0.002,0.001-0.003,0.001c-0.473,0.666-1.181,1.298-1.536,1.513
		c0.166,0.29,0.368,0.377,0.587,0.337C38.584,49.56,38.402,49.476,38.249,49.208z"/>
	<path style="fill:none;" d="M41.016,47.382c0.003,0.013-0.002,0.032-0.001,0.046c0.275,0.318,0.032,0.835-0.341,1.337
		c-0.156,0.209-0.311,0.391-0.47,0.574v0.025l-0.078,0.053v0.027l-0.025,0.025l-0.078,0.078l-0.158,0.183l-0.025,0.024h0.025v0.028
		h0.028v0.024h0.025v0.025h0.028l0.025,0.027c0.025,0,0.053,0.025,0.053,0.025h0.025h0.052h0.025
		c0.015,0.002,0.027-0.003,0.042-0.002c-0.099-0.002-0.201-0.027-0.276-0.129C40.519,49.051,41.614,47.88,41.016,47.382z"/>
	<path style="fill:none;" d="M41.172,42.712c-0.032,0-0.045-0.008-0.063-0.016c0.021,0.007,0.042,0.018,0.063,0.025V42.712z"/>
	<path style="fill:none;" d="M37.127,44.513c0.674-1.336,1.721-1.948,2.814-1.985l-0.153-0.026
		c-1.044,0.079-2.061,0.706-2.714,1.983c-0.188,0.365-0.286,0.768-0.308,1.2c-0.003,0.074,0.002,0.151,0.004,0.227
		c0.002,0.157,0.005,0.314,0.028,0.479c0.038,0.255,0.09,0.514,0.171,0.782c0.017-0.007,0.031-0.022,0.048-0.03
		C36.711,46.14,36.742,45.261,37.127,44.513z"/>
	<path style="fill:none;" d="M40.469,49.854c-0.083,0.019-0.168,0.032-0.256,0.028C40.302,49.885,40.389,49.877,40.469,49.854z"/>
	<path style="fill:none;" d="M40.032,50.583c-0.05-0.003-0.101-0.007-0.149-0.018C39.931,50.576,39.982,50.579,40.032,50.583z"/>
	<path style="fill:none;" d="M40.675,42.582l-0.05-0.026h-0.027h-0.078h-0.028l0.137,0.02c0.014,0.002,0.028,0.003,0.041,0.006
		L40.675,42.582z"/>
	<path style="fill:none;" d="M39.742,50.517c-0.028-0.011-0.056-0.019-0.083-0.032C39.686,50.499,39.714,50.506,39.742,50.517z"/>
	<path style="fill:none;" d="M38.53,48.227c-0.079,0.061-0.177,0.103-0.263,0.158C38.352,48.329,38.452,48.288,38.53,48.227z"/>
	<path style="fill:none;" d="M39.446,50.342c0.001,0.001,0.002,0.001,0.003,0.002C39.448,50.343,39.447,50.343,39.446,50.342z"/>
	<path style="fill:none;" d="M40.73,42.582h-0.028h-0.027l0.12,0.017C40.776,42.596,40.762,42.598,40.73,42.582z"/>
	<path style="fill:none;" d="M202.287,15.84c-0.085-0.198-0.23-0.368-0.434-0.508c-0.199-0.14-0.482-0.211-0.843-0.211
		c-0.382,0-0.676,0.071-0.875,0.211c-0.203,0.137-0.349,0.313-0.434,0.522c-0.09,0.207-0.145,0.422-0.169,0.658
		c-0.022,0.224-0.031,0.417-0.031,0.591v3.081h1.98c0.304,0,0.556-0.036,0.75-0.108c0.169-0.064,0.258-0.332,0.258-0.774v-2.199
		c0-0.162-0.014-0.347-0.035-0.61C202.438,16.27,202.382,16.05,202.287,15.84z"/>
	<path style="fill:none;" d="M238.459,32.813c-0.094-0.037-0.277-0.056-0.547-0.056h-0.582v0.936h0.625
		c0.314,0,0.527-0.045,0.634-0.133c0.107-0.085,0.157-0.197,0.157-0.342c0-0.092-0.025-0.171-0.075-0.244
		C238.62,32.904,238.551,32.85,238.459,32.813z"/>
	<path style="fill:none;" d="M172.72,26.785c0.227,0.059,0.427,0.088,0.612,0.088h0.723c0.345,0,0.66-0.081,0.938-0.24
		c0.273-0.154,0.411-0.506,0.411-1.045V20.31h-1.976c-0.315,0-0.561,0.034-0.753,0.105c-0.169,0.063-0.255,0.324-0.255,0.773v4.997
		C172.42,26.531,172.518,26.728,172.72,26.785z"/>
	<path style="fill:none;" d="M79.516,15.043c-0.2-0.139-0.484-0.21-0.846-0.21c-0.379,0-0.673,0.071-0.873,0.21
		c-0.205,0.142-0.346,0.313-0.432,0.522c-0.092,0.214-0.149,0.435-0.169,0.658c-0.023,0.248-0.034,0.436-0.034,0.592v3.081h1.984
		c0.302,0,0.553-0.036,0.747-0.107c0.169-0.062,0.255-0.323,0.255-0.773v-2.202c0-0.163-0.01-0.362-0.03-0.61
		c-0.016-0.223-0.073-0.442-0.169-0.652C79.86,15.352,79.718,15.185,79.516,15.043z"/>
	<path style="fill:none;" d="M161.498,36.187c-0.424,0-0.824,0.081-1.199,0.242c-0.374,0.162-0.7,0.396-0.979,0.704
		c-0.285,0.308-0.514,0.688-0.684,1.142c-0.17,0.454-0.254,0.901-0.254,1.342c0,0.451,0.088,0.889,0.266,1.312
		c0.178,0.423,0.417,0.771,0.719,1.042c0.517,0.467,1.197,0.699,2.039,0.699c0.725,0,1.344-0.199,1.853-0.6
		c0.37-0.297,0.656-0.676,0.858-1.134c0.2-0.459,0.301-0.968,0.301-1.526c0-0.959-0.27-1.732-0.811-2.322
		C163.051,36.488,162.348,36.187,161.498,36.187z"/>
	<path style="fill:none;" d="M240.443,35.252c0.233-0.419,0.352-0.864,0.352-1.323c0-0.462-0.12-0.912-0.357-1.337
		s-0.572-0.756-0.995-0.984c-0.426-0.229-0.866-0.346-1.309-0.346c-0.446,0-0.887,0.116-1.311,0.346
		c-0.423,0.229-0.758,0.56-0.994,0.984c-0.24,0.427-0.361,0.876-0.361,1.337c0,0.457,0.119,0.901,0.354,1.323
		c0.235,0.419,0.567,0.751,0.987,0.985c0.85,0.471,1.808,0.468,2.651,0C239.881,36.001,240.212,35.67,240.443,35.252z
		 M238.925,35.798l-0.331-0.587c-0.239-0.426-0.433-0.694-0.575-0.798c-0.094-0.073-0.233-0.109-0.418-0.109h-0.271v1.494h-0.693
		v-3.643h1.272c0.425,0,0.726,0.033,0.917,0.102c0.197,0.068,0.355,0.19,0.473,0.363c0.116,0.172,0.176,0.356,0.176,0.551
		c0,0.272-0.098,0.512-0.292,0.715c-0.152,0.157-0.344,0.262-0.571,0.311c0.052,0.033,0.098,0.068,0.138,0.107
		c0.146,0.143,0.319,0.375,0.529,0.709l0.489,0.785H238.925z"/>
	<path style="fill:none;" d="M119.819,26.611c0.203,0.129,0.503,0.194,0.895,0.194c0.36,0,0.638-0.069,0.824-0.206
		c0.189-0.138,0.332-0.31,0.422-0.511c0.093-0.206,0.149-0.426,0.168-0.654c0.018-0.246,0.03-0.444,0.03-0.605V16.94
		c0-0.161-0.012-0.36-0.03-0.608c-0.019-0.225-0.075-0.445-0.168-0.654c-0.091-0.202-0.234-0.369-0.436-0.509
		c-0.199-0.137-0.481-0.207-0.84-0.207c-0.386,0-0.681,0.07-0.878,0.207c-0.196,0.138-0.341,0.315-0.433,0.524
		c-0.092,0.213-0.149,0.433-0.168,0.655c-0.022,0.219-0.033,0.418-0.033,0.592v7.889c0,0.196,0.011,0.411,0.032,0.637
		c0.02,0.234,0.076,0.453,0.168,0.652C119.463,26.323,119.609,26.484,119.819,26.611z"/>
	<path style="fill:none;" d="M160.057,10.009c-0.196-0.113-0.397-0.193-0.614-0.244c-0.203-0.047-0.378-0.072-0.532-0.078v3.295
		c0.444-0.028,0.862-0.15,1.242-0.365c0.385-0.219,0.58-0.665,0.58-1.327c0-0.324-0.066-0.593-0.198-0.8
		C160.403,10.279,160.243,10.117,160.057,10.009z"/>
	<path style="fill:none;" d="M107.893,25.434c0.018-0.246,0.03-0.444,0.03-0.605v-8.236c0-0.186-0.021-0.376-0.062-0.566
		c-0.043-0.19-0.116-0.363-0.225-0.529c-0.116-0.163-0.263-0.29-0.451-0.385c-0.189-0.101-0.438-0.151-0.742-0.151
		c-0.383,0-0.677,0.07-0.873,0.207c-0.196,0.135-0.338,0.307-0.433,0.524c-0.089,0.205-0.145,0.42-0.17,0.657
		c-0.018,0.207-0.027,0.406-0.027,0.591v7.889c0,0.208,0.009,0.422,0.028,0.638c0.025,0.246,0.081,0.459,0.169,0.651
		c0.093,0.208,0.239,0.369,0.448,0.493c0.203,0.129,0.503,0.194,0.895,0.194c0.36,0,0.638-0.069,0.824-0.206
		c0.191-0.138,0.334-0.31,0.424-0.511C107.819,25.879,107.875,25.659,107.893,25.434z"/>
	<path style="fill:none;" d="M134.637,40.955c-0.208-0.25-0.485-0.449-0.832-0.596c-0.347-0.146-0.717-0.219-1.109-0.219
		c-0.662,0-1.242,0.189-1.738,0.568c-0.497,0.38-0.791,0.858-0.885,1.431h4.992C135.01,41.626,134.867,41.232,134.637,40.955z"/>
	<path style="fill:none;" d="M161.895,20.967c0-0.419-0.046-0.851-0.142-1.322c-0.092-0.468-0.255-0.937-0.498-1.433
		c-0.233-0.482-0.553-0.963-0.949-1.431c-0.37-0.439-0.839-0.851-1.396-1.228v10.762c0.633-0.432,1.149-0.901,1.537-1.397
		c0.391-0.496,0.704-1.009,0.933-1.526c0.217-0.492,0.358-0.951,0.422-1.365C161.864,21.606,161.895,21.259,161.895,20.967z"/>
	<path style="fill:none;" d="M23.971,2.918c0.157,0.159,0.302,0.33,0.439,0.506c-0.127-0.188-0.288-0.359-0.432-0.527
		c-0.186-0.182-0.367-0.339-0.575-0.496c-0.417-0.339-0.889-0.6-1.409-0.809c-0.075-0.03-0.154-0.049-0.23-0.077
		c0.601,0.218,1.158,0.521,1.646,0.903C23.606,2.573,23.795,2.738,23.971,2.918z"/>
	<path style="fill:none;" d="M5.091,42.189c0.006-0.104,0.034-0.199,0.078-0.287C5.131,41.989,5.097,42.088,5.091,42.189z"/>
	<path style="fill:none;" d="M8.695,13.314C8.607,13.159,8.529,13,8.467,12.845c-0.207-0.498-0.319-1.037-0.319-1.602h0.005v-0.002
		H8.148c0-1.207,0.512-2.3,1.338-3.095c0.831-0.797,1.981-1.294,3.249-1.294v0.004c0.098,0,0.168,0,0.206,0.004
		c0.04,0,0.106,0.005,0.198,0.012l0.558,0.048l0.006-0.067l-0.006,0.062l-0.573-0.052c-0.078,0-0.158-0.026-0.184-0.026H12.73
		c-1.275,0-2.423,0.495-3.262,1.303C8.66,8.925,8.14,10.019,8.14,11.221c0,0.572,0.102,1.12,0.312,1.617
		c0.081,0.156,0.158,0.313,0.236,0.47c0.065,0.115,0.146,0.219,0.221,0.327C8.836,13.529,8.758,13.427,8.695,13.314z"/>
	<path style="fill:none;" d="M12.987,39.961c0.156,0.213,0.306,0.435,0.454,0.659C13.296,40.395,13.145,40.174,12.987,39.961z"/>
	<path style="fill:none;" d="M12.574,39.424c-0.005-0.006-0.011-0.012-0.016-0.018c0.006,0.007,0.012,0.014,0.018,0.021
		C12.576,39.426,12.575,39.425,12.574,39.424z"/>
	<polygon style="fill:none;" points="10.815,15.231 10.835,15.266 10.819,15.233 	"/>
	<path style="fill:none;" d="M17.204,1.647c0.372-0.161,0.768-0.286,1.175-0.372c0.415-0.089,0.841-0.135,1.275-0.135v0.003h0.005
		c0.323,0,0.637,0.032,0.945,0.079c-0.095-0.014-0.183-0.04-0.28-0.049c-0.208-0.023-0.444-0.05-0.678-0.05
		c-0.444,0-0.864,0.05-1.278,0.131c-0.393,0.102-0.808,0.209-1.177,0.39c-1.821,0.799-3.154,2.463-3.403,4.434
		C14.061,4.102,15.378,2.445,17.204,1.647z"/>
	<path style="fill:none;" d="M26.559,3.447h0.003V3.444c1.263,0,2.404,0.491,3.237,1.282c-0.001-0.001-0.002-0.003-0.003-0.004
		c-0.524-0.522-1.2-0.913-1.956-1.122c-0.417-0.105-0.836-0.183-1.28-0.183v0.027V3.447z"/>
	<path style="fill:none;" d="M24.467,3.487V3.49l0.239,0.312l0.378-0.123c0.196-0.062,0.395-0.114,0.596-0.151
		c0.042-0.01,0.083-0.016,0.12-0.023c0.246-0.039,0.502-0.06,0.759-0.06V3.418c-0.104,0-0.234,0.027-0.339,0.027
		c-0.128,0-0.289,0.025-0.415,0.052c-0.053,0-0.078,0-0.13,0.028c-0.211,0.025-0.394,0.077-0.603,0.129l-0.366,0.13L24.47,3.47
		h-0.02c0.004,0.005,0.008,0.009,0.012,0.014L24.467,3.487z"/>
	<path style="fill:none;" d="M22.453,15.236c-0.086,0.015-0.171,0.028-0.257,0.045C22.282,15.263,22.367,15.251,22.453,15.236z"/>
	<path style="fill:none;" d="M31.146,7.832c0,0.371-0.064,0.725-0.154,1.069c0.095-0.345,0.162-0.699,0.162-1.073
		c0-1.116-0.447-2.109-1.153-2.871c0.706,0.773,1.15,1.773,1.15,2.875H31.146z"/>
	<path style="fill:none;" d="M37.909,49.977c0.385,0.366,0.828,0.379,1.307,0.171C38.751,50.341,38.287,50.333,37.909,49.977z"/>
	<path style="fill:none;" d="M8.778,45.406c-0.185,0.049-0.369,0.067-0.551,0.07C8.41,45.478,8.594,45.456,8.778,45.406z"/>
	<polygon style="fill:none;" points="28.846,11.736 28.855,11.649 28.854,11.65 	"/>
	<path style="fill:none;" d="M37.716,49.755c0.053,0.072,0.107,0.135,0.162,0.191C37.822,49.89,37.768,49.827,37.716,49.755z"/>
	<path style="fill:none;" d="M9.882,44.879c-0.048,0.031-0.096,0.06-0.144,0.089C9.786,44.938,9.834,44.91,9.882,44.879z"/>
	<path style="fill:none;" d="M9.352,45.182c-0.168,0.081-0.337,0.152-0.504,0.201C9.016,45.332,9.184,45.265,9.352,45.182z"/>
	<path style="fill:#FFFFFF;" d="M17.644,42.932c0.007-0.118,0.012-0.238,0.019-0.357c0.009-0.147,0.023-0.296,0.032-0.443
		l-1.989-2.334c-0.015,0.003-0.034,0.001-0.05,0.003c-0.114,0.017-0.242,0.013-0.381-0.01c-0.032-0.005-0.055,0.004-0.089-0.002
		l-0.472,0.339l-0.156,0.105c0.105,0.18,0.208,0.391,0.339,0.572l0.233,0.392l-0.337,0.313c-0.208,0.184-0.522,0.549-0.889,0.991
		c-0.112,0.128-0.239,0.276-0.36,0.418c0.051,0.381,0.121,1.496,0.101,2.18c1.196-0.108,2.505-0.197,3.898-0.264
		c0.004-0.082,0.009-0.163,0.013-0.246C17.582,44.038,17.612,43.486,17.644,42.932z"/>
	<path style="fill:#FFFFFF;" d="M14.749,33.593c0.078,0.018,0.143,0.052,0.216,0.076c0.044,0.014,0.088,0.03,0.131,0.046
		c0.097,0.038,0.196,0.08,0.285,0.131c0.082,0.046,0.16,0.102,0.238,0.158c0.044,0.032,0.092,0.053,0.134,0.089
		c0.042,0.036,0.08,0.08,0.12,0.119c0.36,0.334,0.653,0.789,0.981,1.402c0.001,0,0.002,0.001,0.003,0.002
		c0.205,0.078,0.363,0.208,0.52,0.364c0.069,0.089,0.118,0.185,0.166,0.28c0.08,0.15,0.142,0.308,0.171,0.478
		c0.05,0.262,0.027,0.521-0.022,0.781c-0.071,0.262-0.205,0.508-0.37,0.731l0.606,0.697c0.017-0.21,0.028-0.418,0.046-0.629
		c0.011-0.131,0.017-0.258,0.028-0.389c0.028-0.321,0.071-0.653,0.101-0.975c0.118-1.252,0.239-2.506,0.394-3.792
		c0.01-0.063,0.053-0.131,0.11-0.201c0.011-0.014,0.021-0.027,0.034-0.042c0.059-0.064,0.134-0.129,0.226-0.197
		c0.046-0.035,0.099-0.069,0.152-0.104c0.039-0.026,0.082-0.051,0.125-0.077c0.794-0.483,2.182-1.007,3.4-1.388
		c-0.186-0.024-0.367-0.051-0.55-0.102c-0.117-0.028-0.235-0.063-0.352-0.094c-0.117-0.029-0.233-0.06-0.349-0.093
		c-0.168-0.048-0.34-0.105-0.511-0.16c-0.141-0.046-0.283-0.087-0.423-0.139c-0.012-0.004-0.023-0.007-0.035-0.011
		c-0.224-0.081-0.447-0.182-0.67-0.28c-0.091-0.04-0.184-0.073-0.275-0.115c-0.114-0.054-0.225-0.118-0.338-0.175
		c-0.217-0.109-0.434-0.214-0.648-0.336c0.021,0.098,0.048,0.197,0.079,0.296c0.01,0.029,0.016,0.055,0.026,0.085
		c0.032,0.094,0.065,0.188,0.096,0.285c0.098,0.293,0.182,0.612,0.163,0.947l-0.025,0.336l0,0.005l-0.029,0.014l-0.258,0.14
		l-0.733,0.339c-0.643,0.304-1.271,0.602-1.866,0.904c-0.263,0.135-0.516,0.271-0.762,0.408
		C14.974,33.468,14.857,33.53,14.749,33.593z"/>
	<path style="fill:#FFFFFF;" d="M12.502,45.212c0.019-0.246,0.019-0.793,0.001-1.138c-0.206,0.216-0.416,0.432-0.638,0.64
		c-0.246,0.234-0.503,0.459-0.767,0.667c0.015-0.002,0.033-0.004,0.048-0.006C11.577,45.319,12.025,45.264,12.502,45.212z"/>
	<path style="fill:#FFFFFF;" d="M29.659,32.728c-0.429-0.137-0.906-0.26-1.456-0.374l-0.364-0.077l-0.12-0.035l-0.056-0.012
		l0.001-0.004l-0.008-0.002l0.056-0.285l0.04-0.239l0.128-0.772c-0.004,0.001-0.008,0.001-0.013,0.002l-0.028,0.015
		c-0.388,0.092-0.763,0.155-1.142,0.213c-0.072,0.011-0.144,0.023-0.216,0.033c-0.087,0.013-0.173,0.027-0.261,0.04
		c-0.3,0.027-0.601,0.051-0.879,0.075c-0.012,0.001-0.024,0.003-0.036,0.004c-0.011,0.002-0.023,0.005-0.034,0.007
		c-0.448,0.085-0.883,0.2-1.313,0.328c-0.085,0.026-0.171,0.048-0.255,0.075c-0.428,0.136-0.85,0.29-1.268,0.458
		c-0.047,0.019-0.093,0.037-0.14,0.056c-0.93,0.382-1.848,0.828-2.791,1.286c-0.261,2.13-0.653,4.145-0.941,6.158l4.348,5.005
		c0.234-0.001,0.457-0.007,0.693-0.007c2.764,0,5.381,0.085,7.698,0.23l-0.033-2.307v-0.038v-0.009
		c0.038-0.453,0.254-0.642,0.63-0.611c0.367,0.029,0.648,0.46,1.035,1.047c0.078,0.12,0.169,0.256,0.258,0.389
		c0.063,0.093,0.125,0.186,0.194,0.283c0.045,0.065,0.094,0.13,0.141,0.196c0.099,0.137,0.2,0.274,0.306,0.408
		c0.072,0.09,0.147,0.174,0.221,0.259c0.074,0.086,0.147,0.173,0.223,0.252c0.159,0.162,0.321,0.309,0.485,0.422
		c0.452,0.051,0.883,0.104,1.295,0.158c0.052-0.427,0.176-0.828,0.371-1.208c0.643-1.236,1.571-1.961,2.585-2.235l-3.192-2.662
		l-1.226-1.012l-0.008-0.018l-0.017-0.033c-0.608-1.183-1.093-2.125-1.58-2.879c-0.074-0.119-0.151-0.225-0.227-0.334
		c-0.132-0.187-0.264-0.366-0.401-0.528c0-0.001-0.001-0.001-0.002-0.002c-0.103-0.122-0.209-0.238-0.318-0.347
		C31.441,33.497,30.706,33.069,29.659,32.728z M20.325,40.73c-0.366,0-0.653-0.287-0.653-0.68c0-0.365,0.287-0.651,0.653-0.651
		c0.392,0,0.678,0.286,0.678,0.651C21.003,40.443,20.717,40.73,20.325,40.73z M20.508,35.746c-0.052,0-0.105-0.027-0.183-0.027
		c-0.261-0.078-0.497-0.339-0.497-0.652c0-0.312,0.236-0.57,0.497-0.625c0.078-0.025,0.131-0.025,0.183-0.025
		c0.364,0,0.65,0.287,0.65,0.65C21.158,35.432,20.872,35.746,20.508,35.746z"/>
	<path style="fill:#FFFFFF;" d="M19.913,44.735l-1.679-1.969c-0.039,0.675-0.074,1.351-0.104,2.027
		C18.705,44.767,19.312,44.752,19.913,44.735z"/>
	<path style="fill:#FFFFFF;" d="M30.319,19.621c-0.278-0.283-0.559-0.612-0.838-0.992c-0.25-0.369-0.452-0.763-0.615-1.181
		c-0.056-0.143-0.123-0.28-0.167-0.43c-0.002-0.009-0.003-0.018-0.005-0.027c-0.09-0.278-0.138-0.558-0.165-0.855
		c-0.003-0.03-0.014-0.056-0.017-0.086c-0.051,0.001-0.103,0-0.154,0.001c-0.172,0.001-0.34,0-0.519,0.021h-0.889h-0.73
		c-0.31,0-0.62,0.004-0.93,0.012c-0.079,0.002-0.159,0.005-0.238,0.008c-0.191,0.007-0.384,0.018-0.577,0.03
		c-0.283,0.018-0.566,0.043-0.851,0.075c-0.103,0.011-0.206,0.021-0.309,0.034c-0.207,0.028-0.416,0.062-0.624,0.099
		c-0.06,0.01-0.12,0.022-0.18,0.034c-0.512,0.099-1.031,0.235-1.556,0.412c-0.208,0.073-0.416,0.146-0.629,0.234
		c-0.131,0.051-0.264,0.113-0.396,0.171c-0.115,0.052-0.23,0.098-0.346,0.155c-0.049,0.023-0.098,0.051-0.146,0.075
		c-0.212,0.106-0.424,0.218-0.638,0.342c-0.044,0.025-0.089,0.054-0.133,0.08c-0.205,0.121-0.411,0.251-0.619,0.39
		c-0.077,0.052-0.155,0.106-0.232,0.16c-0.163,0.114-0.328,0.235-0.494,0.361c-0.12,0.092-0.241,0.184-0.362,0.282
		c-0.112,0.09-0.226,0.187-0.339,0.283c-0.164,0.14-0.328,0.279-0.495,0.431c-0.056,0.051-0.113,0.107-0.169,0.16
		c-0.456,0.425-0.92,0.891-1.397,1.415c0.236,0.025,0.472,0.078,0.678,0.156c0.444,0.183,0.836,0.419,1.172,0.758
		c0.316,0.339,0.55,0.756,0.681,1.253c0.07,0.392,0.073,0.823-0.019,1.289c-0.041,0.218-0.096,0.442-0.182,0.677l-0.166,0.447
		l-0.425-0.213l-0.05-0.025l-0.286-0.144l0.01-0.054l0.045-0.281c0.008-0.019,0.008-0.041,0.014-0.061
		c0.019-0.112,0.035-0.224,0.04-0.333c0-0.016,0.001-0.032,0.001-0.048c0.001-0.006,0-0.013,0.001-0.019
		c0.003-0.136,0-0.269-0.018-0.396c-0.096-0.699-0.504-1.314-1.268-1.593c-0.163-0.061-0.324-0.076-0.482-0.066
		c-0.161,0.013-0.324,0.053-0.487,0.11c-0.256,0.157-0.487,0.341-0.685,0.544c-0.199,0.205-0.361,0.427-0.478,0.662
		c-0.236,0.419-0.314,0.86-0.261,1.306c0.078,0.443,0.311,0.886,0.755,1.303c0.575,0.525,1.489,0.967,2.764,1.281
		c0.602,0.129,1.175,0.286,1.749,0.52l0.037-0.036l0.276-0.278l0.369,0.234c0.624,0.4,1.272,0.726,1.9,1.006
		c0.042,0.018,0.085,0.038,0.127,0.056c0.246,0.1,0.487,0.189,0.726,0.269c0.074,0.025,0.148,0.046,0.223,0.069
		c0.226,0.071,0.45,0.138,0.675,0.192c0.144,0.039,0.289,0.065,0.433,0.092c0.077,0.015,0.154,0.03,0.231,0.044
		c0.17,0.027,0.339,0.05,0.509,0.073c0.948,0.125,1.92,0.122,2.912,0.009c0.116-0.014,0.233-0.027,0.35-0.045
		c0.473-0.074,0.931-0.167,1.41-0.303c0.019,0,0.047-0.005,0.068-0.009c0.986-0.493,1.918-1.062,2.647-1.788
		c1.483-1.463,2.164-3.55,0.989-6.578c-0.282-0.744-0.717-1.211-1.178-1.723c-0.002-0.003-0.004-0.005-0.007-0.007
		C30.345,19.65,30.332,19.635,30.319,19.621z M27.656,19.23c0.053-0.025,0.131-0.025,0.183-0.025
		c0.364,0.051,0.703,0.442,0.809,0.964c0.102,0.6-0.184,1.147-0.628,1.226c-0.053,0.026-0.131,0.026-0.181,0
		c-0.391-0.053-0.73-0.442-0.808-0.938C26.926,19.855,27.212,19.308,27.656,19.23z M26.22,22.647l0.183-0.314
		c0.861,0.13,1.512,1.644,0.286,1.958c0.445-0.625,0.081-1.355-0.469-1.408h-0.103L26.22,22.647z M21.211,21.786
		c-0.13-0.598,0.156-1.148,0.598-1.228c0.083-0.023,0.133-0.023,0.186,0c0.392,0.055,0.728,0.419,0.809,0.941
		c0.103,0.599-0.156,1.148-0.6,1.227c-0.078,0.026-0.131,0.026-0.208,0C21.631,22.675,21.289,22.308,21.211,21.786z M27.839,26.117
		c-0.522,0.159-1.069,0.236-1.619,0.288c-1.459,0.131-2.923-0.078-3.676-0.547c0,0.288,0.075,0.547,0.233,0.729
		c-0.419-0.104-0.68-0.547-0.6-1.017c0.05-0.233,0.181-0.469,0.336-0.626l0.264,0.079c-0.078,0.131-0.131,0.236-0.158,0.392
		c1.358,0.312,2.503,0.443,3.601,0.338c0.55-0.052,1.069-0.157,1.619-0.338c0.756-0.235,1.539-0.576,2.451-1.044
		C29.929,25.23,28.987,25.806,27.839,26.117z"/>
	<path style="fill:#FFFFFF;" d="M13.139,6.872c-0.092-0.007-0.158-0.012-0.198-0.012c-0.038-0.004-0.108-0.004-0.206-0.004V6.852
		c-1.268,0-2.418,0.498-3.249,1.294c-0.826,0.795-1.338,1.888-1.338,3.095h0.005v0.002H8.148c0,0.565,0.112,1.104,0.319,1.602
		c0.062,0.155,0.14,0.314,0.228,0.469c0.063,0.112,0.142,0.214,0.214,0.32c0.436,0.626,1.021,1.141,1.735,1.498l0.161,0.079
		l0.011,0.019l0.004,0.002l0.016,0.033l0.072,0.127l2.608,5.401c2.451-2.792,4.695-4.253,6.809-5.009
		c0.573-0.208,1.12-0.365,1.67-0.469c0.068-0.015,0.134-0.022,0.202-0.035c0.086-0.017,0.171-0.03,0.257-0.045
		c1.293-0.233,2.533-0.285,3.767-0.285h0.73h0.506c0.166,0,0.332-0.003,0.499-0.004c0.198-0.006,0.395-0.021,0.612-0.021
		l0.087-0.995l0.175-2.032l0.017-0.162l0.008-0.086l0.001-0.001l0.001-0.011l0.208-0.157h0.027c0.179-0.104,0.339-0.235,0.495-0.366
		c0.155-0.13,0.286-0.261,0.441-0.418c0.451-0.516,0.78-1.128,0.964-1.796c0.09-0.344,0.154-0.698,0.154-1.069h0.005
		c0-1.102-0.443-2.102-1.15-2.875c-0.07-0.075-0.128-0.161-0.203-0.231c-0.832-0.791-1.973-1.282-3.237-1.282v0.002h-0.003V3.444
		c-0.257,0-0.513,0.021-0.759,0.06c-0.038,0.006-0.078,0.013-0.12,0.023c-0.201,0.037-0.399,0.088-0.596,0.151l-0.378,0.123
		L24.467,3.49V3.487l-0.005-0.004c-0.004-0.005-0.008-0.009-0.012-0.014h-0.005c-0.01-0.016-0.024-0.031-0.035-0.047
		c-0.137-0.176-0.282-0.346-0.439-0.506c-0.176-0.18-0.364-0.344-0.56-0.5c-0.488-0.382-1.045-0.685-1.646-0.903
		c-0.061-0.022-0.124-0.041-0.186-0.062c-0.248-0.081-0.503-0.146-0.764-0.195c-0.069-0.013-0.139-0.026-0.21-0.037
		c-0.308-0.047-0.623-0.079-0.945-0.079h-0.005V1.14c-0.434,0-0.861,0.045-1.275,0.135c-0.406,0.086-0.803,0.212-1.175,0.372
		c-1.826,0.798-3.143,2.455-3.416,4.431c-0.011,0.089-0.033,0.175-0.04,0.265l-0.047,0.51l-0.006,0.067L13.139,6.872z M24.97,10.88
		l-0.575,3.339l-0.681-3.26L24.97,10.88z M18.889,11.793l0.703,3.339l-1.928-3.287L18.889,11.793z"/>
	
		<line style="fill:none;stroke:#834224;stroke-width:0;stroke-linecap:round;stroke-linejoin:round;" x1="26.559" y1="3.418" x2="26.559" y2="3.444"/>
	
		<line style="fill:none;stroke:#834224;stroke-width:0;stroke-linecap:round;stroke-linejoin:round;" x1="26.559" y1="2.321" x2="26.559" y2="2.296"/>
	<path style="fill:#834224;" d="M40.053,42.526l-0.265-0.024l0.153,0.026C39.979,42.527,40.016,42.526,40.053,42.526z"/>
	<path style="fill:#834224;" d="M40.675,41.877c-0.13-0.025-0.261-0.054-0.392-0.054l-0.181-0.154l-4.539-4.018
		c-0.941-1.854-1.619-3.156-2.506-4.125c-0.075-0.077-0.13-0.129-0.208-0.207c-0.939-0.941-2.086-1.513-3.914-1.958l0.21-1.122
		l0.026-0.182c0.731-0.418,1.408-0.913,1.983-1.486c1.694-1.696,2.502-4.071,1.2-7.463c-0.369-0.939-0.861-1.461-1.386-2.035
		c-0.256-0.288-0.547-0.574-0.806-0.94c-0.289-0.417-0.498-0.86-0.655-1.356c-0.076-0.236-0.128-0.494-0.155-0.757h0.236
		l0.053-0.494l0.289-3.263c0.128-0.078,0.259-0.182,0.361-0.286c0.211-0.184,0.392-0.339,0.575-0.524
		c0.861-0.963,1.411-2.243,1.411-3.624c0-1.541-0.653-2.922-1.697-3.915c-0.731-0.706-1.67-1.227-2.74-1.461
		c-0.417-0.105-0.836-0.132-1.28-0.132H26.22c-0.209,0-0.392,0.026-0.6,0.054C25.57,2.4,25.517,2.4,25.464,2.4
		c-0.105,0.026-0.236,0.053-0.367,0.078c-0.105-0.13-0.205-0.236-0.336-0.364c-0.211-0.209-0.419-0.419-0.653-0.602
		c-0.628-0.468-1.331-0.861-2.114-1.121c-0.523-0.183-1.07-0.313-1.67-0.364C20.117,0.028,19.88,0,19.647,0
		c-0.522,0-1.019,0.053-1.514,0.158C17.663,0.261,17.191,0.417,16.75,0.6c-2.111,0.939-3.678,2.844-4.07,5.114
		C11.141,5.74,9.732,6.342,8.688,7.332c-1.017,0.992-1.67,2.375-1.67,3.889c0,0.73,0.156,1.408,0.392,2.033
		c0.104,0.21,0.181,0.419,0.287,0.6c0.522,0.913,1.306,1.698,2.269,2.192l2.895,6.026l0.131,0.236
		c-0.467,0.367-0.834,0.809-1.092,1.279c-0.314,0.574-0.444,1.199-0.341,1.827c0.105,0.625,0.444,1.252,1.017,1.8
		c0.68,0.6,1.697,1.12,3.159,1.461c0.519,0.13,1.017,0.261,1.486,0.442c-0.078,0.419,0.08,0.836,0.236,1.28
		c0.053,0.181,0.105,0.338,0.156,0.495c-0.206,0.105-0.289,0.158-0.392,0.183c-1.35,0.631-2.629,1.248-3.696,1.974
		c-0.335-0.227-0.648-0.357-0.949-0.357c-0.034,0-0.069,0.008-0.104,0.01L1.798,20.429l-0.233-0.26l-0.287,0.208l-0.966,0.757
		L0,21.368l0.262,0.313L10.99,34.244c-0.103,0.274-0.201,0.58-0.292,0.929c-0.027,0.051-0.158,0.152-0.263,0.233
		c-0.053,0.053-0.105,0.103-0.181,0.156l-0.028,0.026c-0.078-0.052-0.131-0.106-0.208-0.157L9.601,35.12l-0.208,0.235l-0.131,0.154
		l-4.934,5.639l-0.023,0.023l-0.03,0.026c-0.205,0.313-0.286,0.654-0.311,0.993c0,0.705,0.311,1.46,0.836,2.139
		c0.467,0.653,1.095,1.227,1.72,1.646c0.173,0.114,0.346,0.213,0.52,0.302c-0.468,0.201-0.728,0.414-0.728,0.635
		c0,1.226,7.75,2.219,17.271,2.219c5.035,0,9.529-0.275,12.695-0.712c0.003,0.014,0.002,0.028,0.006,0.042
		c0.006-0.001,0.013-0.002,0.019-0.002c0.019,0.092,0.05,0.186,0.092,0.275c0.003,0.007,0.009,0.013,0.012,0.021
		c0.04,0.077,0.107,0.146,0.165,0.219c0.037,0.036,0.073,0.075,0.112,0.106c0.103,0.131,0.258,0.209,0.417,0.287
		c0.128,0.053,0.286,0.105,0.444,0.105c0.012,0.024,0.026,0.042,0.038,0.065c0.005,0,0.01,0.002,0.014,0.002l0.027,0.051
		c-0.003,0.001-0.007,0.001-0.01,0.002c0.031,0.053,0.06,0.11,0.093,0.157c-0.029-0.04-0.059-0.076-0.088-0.121
		c-1.919,0.402-3.989,0.709-6.128,0.925c-9.31,0.981-19.927,0.165-25.082-2.266c-0.016-0.017-0.035-0.053-0.052-0.073
		c0.648,13.192,29.825,14.674,34.236,2.277c0.027,0.026,0.053,0.076,0.078,0.104c0.133,0.158,0.287,0.287,0.497,0.34
		c0.286,0.078,0.628,0.053,1.044-0.156h0.025l0.025-0.025c0.525-0.393,0.941-0.811,1.331-1.254c0.367-0.444,0.681-0.912,0.914-1.409
		h0.025v-0.024c0.027-0.053,0.053-0.133,0.053-0.182c0.13-0.342,0.208-0.707,0.208-1.072v-0.261
		c-0.025-0.862-0.339-1.67-0.808-2.374C43.13,42.896,41.9,42.087,40.675,41.877z M32.362,34.448c0.136,0.162,0.269,0.34,0.401,0.528
		c0.076,0.109,0.153,0.215,0.227,0.334c0.021,0.035,0.044,0.061,0.066,0.097c0.47,0.731,0.939,1.646,1.537,2.792v0.025l0.028,0.026
		l1.201,1.002l3.192,2.662l0.019,0.016c-1.02,0.261-1.931,0.989-2.584,2.243c-0.201,0.382-0.302,0.791-0.351,1.215
		c-0.415-0.055-0.852-0.108-1.31-0.158c-0.172-0.123-0.342-0.278-0.511-0.454c-0.076-0.079-0.149-0.166-0.223-0.252
		c-0.074-0.087-0.149-0.168-0.221-0.259c-0.106-0.134-0.207-0.271-0.306-0.408c-0.048-0.067-0.095-0.13-0.141-0.196
		c-0.068-0.097-0.131-0.19-0.194-0.283c-0.044-0.065-0.094-0.136-0.136-0.198l-0.105-0.155c-0.389-0.6-0.675-1.016-1.042-1.07
		c-0.367-0.024-0.603,0.157-0.625,0.627v0.051l0.022,2.301c-2.323-0.15-4.939-0.238-7.722-0.238c-0.223,0-0.439,0.003-0.66,0.004
		l-0.013-0.015l-4.348-5.005l-0.006-0.007c0.285-2.006,0.67-4.021,0.932-6.145c0.289-0.129,0.575-0.287,0.836-0.417
		c0.573-0.262,1.12-0.521,1.67-0.756c0.099-0.041,0.2-0.079,0.3-0.119c0.046-0.019,0.093-0.037,0.14-0.056
		c0.418-0.166,0.84-0.322,1.268-0.458c0.084-0.027,0.17-0.049,0.255-0.075c0.432-0.13,0.868-0.245,1.313-0.328
		c0.011-0.002,0.023-0.005,0.034-0.007c0.001,0,0.003-0.001,0.004-0.001c0.01-0.001,0.022-0.002,0.032-0.003
		c0.278-0.024,0.579-0.048,0.879-0.075c0.089-0.013,0.174-0.027,0.261-0.04c0.072-0.011,0.144-0.022,0.216-0.033
		c0.379-0.058,0.754-0.121,1.142-0.213l0.028-0.015l0.022-0.012l-0.05,0.289l-0.08,0.494l-0.047,0.238l-0.056,0.285l0.008,0.002
		l0.055,0.016l0.12,0.035l0.364,0.077c0.55,0.113,1.026,0.237,1.456,0.374c1.056,0.336,1.794,0.761,2.409,1.374
		c0.099,0.106,0.195,0.229,0.293,0.345C32.361,34.447,32.362,34.447,32.362,34.448z M32.329,43.992
		c0.233,0.311,0.467,0.651,0.728,0.991c0.021,0.021,0.044,0.06,0.066,0.087c-0.254-0.022-0.507-0.043-0.771-0.063L32.329,43.992z
		 M11.098,45.382c0.264-0.209,0.52-0.433,0.767-0.667c0.222-0.211,0.433-0.43,0.637-0.649c0,0.003,0,0.006,0,0.009
		c0.018,0.345,0.017,0.892-0.001,1.138c-0.476,0.051-0.925,0.106-1.355,0.164c-0.017,0.002-0.032,0.005-0.049,0.007
		C11.098,45.382,11.098,45.382,11.098,45.382z M1.461,21.212l10.31,11.798c-0.153,0.125-0.297,0.286-0.428,0.5L1.095,21.5
		L1.461,21.212z M17.714,32.093l0.733-0.339l0.258-0.14l0.029-0.016l0-0.003l0.025-0.336c0.019-0.335-0.064-0.654-0.163-0.947
		c-0.032-0.097-0.066-0.19-0.098-0.281c-0.011-0.03-0.015-0.059-0.024-0.089c-0.031-0.099-0.059-0.197-0.079-0.296
		c-0.001-0.003-0.002-0.005-0.002-0.008c0.213,0.125,0.432,0.233,0.65,0.344c0.113,0.058,0.224,0.122,0.338,0.175
		c0.091,0.043,0.184,0.075,0.275,0.115c0.223,0.098,0.446,0.199,0.67,0.28c0.012,0.004,0.023,0.007,0.035,0.011
		c0.143,0.052,0.282,0.093,0.423,0.139c0.171,0.056,0.343,0.112,0.511,0.16c0.117,0.033,0.233,0.063,0.349,0.093
		c0.117,0.031,0.235,0.065,0.352,0.094c0.183,0.05,0.364,0.078,0.55,0.102c-0.186,0.054-0.341,0.132-0.55,0.185
		c-0.55,0.184-1.148,0.392-1.67,0.625c-0.457,0.191-0.863,0.388-1.18,0.578c-0.043,0.026-0.086,0.052-0.125,0.077
		c-0.054,0.035-0.105,0.07-0.152,0.104c-0.092,0.067-0.166,0.133-0.226,0.197c-0.013,0.014-0.023,0.028-0.034,0.042
		c-0.058,0.07-0.1,0.138-0.11,0.201c-0.156,1.286-0.277,2.54-0.394,3.792c-0.03,0.322-0.073,0.655-0.101,0.975
		c-0.011,0.131-0.017,0.258-0.028,0.389c-0.018,0.211-0.029,0.418-0.046,0.629l0,0l-0.606-0.697c0.164-0.223,0.299-0.469,0.37-0.731
		c0.05-0.26,0.072-0.52,0.022-0.781c-0.031-0.162-0.093-0.322-0.171-0.478c-0.048-0.095-0.096-0.191-0.166-0.28
		c-0.157-0.155-0.315-0.286-0.52-0.364c-0.001,0-0.002-0.001-0.002-0.001c0,0,0,0,0-0.001c-0.328-0.613-0.621-1.068-0.981-1.402
		c-0.039-0.036-0.075-0.078-0.116-0.111c-0.045-0.037-0.093-0.064-0.139-0.097c-0.078-0.056-0.155-0.112-0.238-0.158
		c-0.091-0.05-0.186-0.093-0.285-0.131c-0.043-0.016-0.087-0.032-0.131-0.046c-0.076-0.024-0.157-0.044-0.239-0.062
		c0.008-0.005,0.015-0.01,0.023-0.014c0.108-0.063,0.225-0.125,0.338-0.188c0.247-0.137,0.498-0.274,0.762-0.408
		C16.443,32.695,17.071,32.397,17.714,32.093z M16.35,39.401c0.118-0.126,0.232-0.266,0.346-0.419
		c0.052-0.063,0.098-0.111,0.145-0.167l8.387,9.638l-1.12,0.052L16.35,39.401z M11.75,35.467c0.266-0.987,0.5-1.536,0.746-1.656
		c0.088-0.042,0.228,0.014,0.414,0.149c0.155,0.107,0.344,0.271,0.577,0.506l0.156,0.157h0.236c0.096,0,0.179,0.007,0.263,0.014
		c0.035,0.002,0.073,0.002,0.106,0.006c0.021,0.002,0.038,0.008,0.059,0.011c0.089,0.013,0.175,0.027,0.251,0.05
		c0.011,0.003,0.019,0.009,0.03,0.012c0.167,0.053,0.31,0.129,0.433,0.235c0.262,0.221,0.503,0.593,0.783,1.102
		c0.053,0.095,0.104,0.186,0.161,0.292l0.035,0.071l0.072,0.139l0.112,0.033l0.14,0.034c0.015,0.003,0.019,0.013,0.032,0.017
		c0.052,0.008,0.096,0.033,0.127,0.067c0.009,0.008,0.029,0.01,0.036,0.019c0.007,0.008,0.008,0.025,0.015,0.035
		c0.036,0.035,0.062,0.093,0.083,0.16c0,0.103,0,0.232-0.025,0.338c-0.053,0.182-0.13,0.365-0.261,0.47
		c-0.149,0.127-0.267,0.267-0.38,0.403c-0.046,0.057-0.094,0.115-0.137,0.171c-0.179,0.228-0.329,0.425-0.53,0.347l-0.281-0.107
		l-0.114,0.081l-0.124,0.097l-0.179,0.118l-0.156,0.11l-2.985-2.951C11.578,35.859,11.69,35.691,11.75,35.467z M17.543,44.837
		c-1.393,0.067-2.701,0.155-3.898,0.264c0.02-0.684-0.05-1.799-0.101-2.18c0.121-0.141,0.248-0.29,0.36-0.418
		c0.367-0.442,0.681-0.808,0.889-0.991l0.337-0.313l-0.233-0.392c-0.131-0.182-0.234-0.393-0.339-0.572l0.156-0.105l0.472-0.339
		c0.034,0.007,0.057-0.002,0.089,0.002c0.139,0.02,0.269,0.027,0.381,0.01c0.016-0.002,0.035,0,0.05-0.003l1.989,2.334l0,0
		c-0.009,0.148-0.024,0.3-0.032,0.448c-0.007,0.117-0.012,0.234-0.019,0.351c-0.033,0.554-0.063,1.106-0.088,1.659
		c-0.004,0.081-0.007,0.164-0.011,0.245C17.545,44.837,17.544,44.837,17.543,44.837z M18.227,42.756l0.007,0.009l1.679,1.969
		l0.01,0.011c-0.617,0.017-1.219,0.039-1.809,0.064C18.146,44.13,18.184,43.446,18.227,42.756z M30.365,19.672
		c0.462,0.512,0.897,0.979,1.178,1.723c1.175,3.028,0.495,5.114-0.989,6.578c-0.729,0.727-1.661,1.296-2.647,1.788
		c-0.021,0.004-0.049,0.009-0.068,0.009c-0.479,0.136-0.937,0.229-1.41,0.303c-0.07,0.011-0.138,0.026-0.209,0.036
		c-0.047,0.006-0.093,0.003-0.141,0.009c-0.992,0.114-1.964,0.116-2.912-0.009c-0.169-0.022-0.339-0.046-0.509-0.073
		c-0.077-0.012-0.154-0.029-0.231-0.044c-0.144-0.027-0.289-0.053-0.433-0.092c-0.225-0.053-0.449-0.121-0.675-0.192
		c-0.074-0.023-0.148-0.044-0.223-0.069c-0.239-0.08-0.48-0.169-0.726-0.269c-0.016-0.006-0.031-0.011-0.047-0.017
		c-0.027-0.012-0.054-0.027-0.081-0.039c-0.628-0.281-1.276-0.606-1.9-1.006l-0.369-0.234l-0.276,0.278l-0.036,0.036
		c0,0-0.001,0-0.002-0.001c-0.574-0.235-1.147-0.392-1.749-0.52c-1.275-0.314-2.189-0.756-2.764-1.281
		c-0.444-0.417-0.678-0.86-0.755-1.303c-0.053-0.445,0.025-0.886,0.261-1.306c0.117-0.235,0.279-0.456,0.478-0.662
		c0.199-0.205,0.434-0.394,0.695-0.564c0.156-0.052,0.313-0.078,0.497-0.105c0.156,0,0.314,0,0.469,0.079
		c0.756,0.26,1.173,0.888,1.278,1.59c0,0.125,0.023,0.274,0.001,0.401c-0.001,0.006,0,0.013-0.001,0.019
		c0,0.016-0.001,0.032-0.001,0.048c-0.001,0.117-0.009,0.229-0.04,0.333c-0.006,0.02-0.006,0.042-0.014,0.061l-0.045,0.281
		l-0.005,0.032l0.286,0.157l0.053,0.025l0.42,0.209l0.155-0.444c0.09-0.232,0.147-0.452,0.19-0.667
		c0.092-0.466,0.09-0.897,0.019-1.289c-0.131-0.497-0.364-0.914-0.681-1.253c-0.337-0.339-0.729-0.575-1.172-0.758
		c-0.206-0.078-0.442-0.131-0.678-0.156c0.476-0.524,0.941-0.99,1.397-1.415c0.056-0.052,0.113-0.108,0.169-0.16
		c0.167-0.152,0.331-0.291,0.495-0.431c0.113-0.097,0.227-0.192,0.339-0.283c0.122-0.098,0.242-0.191,0.362-0.282
		c0.166-0.126,0.33-0.246,0.494-0.361c0.077-0.054,0.155-0.108,0.232-0.16c0.208-0.139,0.414-0.269,0.619-0.39
		c0.044-0.026,0.089-0.054,0.133-0.08c0.214-0.123,0.427-0.237,0.638-0.342c0.049-0.024,0.098-0.052,0.146-0.075
		c0.116-0.056,0.231-0.104,0.346-0.155c0.132-0.058,0.265-0.119,0.396-0.171c0.214-0.088,0.421-0.161,0.629-0.234
		c0.35-0.123,0.696-0.233,1.041-0.315c0.174-0.04,0.344-0.064,0.515-0.097c0.06-0.011,0.12-0.023,0.18-0.034
		c0.209-0.037,0.418-0.072,0.624-0.099c0.104-0.013,0.206-0.023,0.309-0.034c0.285-0.031,0.57-0.058,0.851-0.075
		c0.192-0.012,0.385-0.024,0.577-0.03c0.079-0.003,0.159-0.006,0.238-0.008c0.311-0.008,0.621-0.012,0.93-0.012h0.73h0.889
		c0.179-0.021,0.346-0.02,0.519-0.021c0.053,0,0.105-0.006,0.16-0.006c0.002,0.031,0.008,0.06,0.011,0.091
		c0.027,0.296,0.075,0.577,0.165,0.855c0.002,0.007,0.003,0.014,0.005,0.02c0.041,0.155,0.111,0.292,0.167,0.437
		c0.163,0.417,0.366,0.811,0.615,1.181c0.279,0.38,0.559,0.709,0.838,0.992c0.008,0.008,0.016,0.018,0.023,0.026
		C30.35,19.655,30.357,19.663,30.365,19.672z M8.452,12.837C8.243,12.34,8.14,11.793,8.14,11.221c0-1.202,0.52-2.296,1.328-3.081
		c0.839-0.808,1.986-1.303,3.262-1.303h0.211c0.025,0,0.106,0.026,0.184,0.026l0.573,0.052l0.006-0.062l0.047-0.51
		c0.007-0.09,0.028-0.176,0.04-0.265c0.249-1.972,1.582-3.635,3.403-4.434c0.369-0.182,0.784-0.288,1.177-0.39
		c0.415-0.081,0.834-0.131,1.278-0.131c0.233,0,0.47,0.028,0.678,0.05c0.097,0.008,0.186,0.035,0.28,0.049
		c0.071,0.01,0.141,0.023,0.21,0.037c0.262,0.049,0.518,0.113,0.764,0.195c0.062,0.021,0.125,0.039,0.186,0.062
		c0.075,0.028,0.155,0.047,0.23,0.077c0.519,0.209,0.992,0.47,1.409,0.809c0.208,0.157,0.389,0.314,0.575,0.496
		c0.144,0.168,0.305,0.339,0.432,0.527c0.011,0.016,0.025,0.03,0.035,0.047h0.005h0.02l0.236,0.314l0.366-0.13
		c0.209-0.053,0.392-0.105,0.603-0.129c0.052-0.028,0.077-0.028,0.13-0.028c0.126-0.026,0.287-0.052,0.415-0.052
		c0.105,0,0.236-0.027,0.339-0.027c0.444,0,0.863,0.079,1.28,0.183c0.756,0.21,1.432,0.6,1.956,1.122
		c0.001,0.001,0.002,0.003,0.003,0.004c0.075,0.07,0.133,0.156,0.203,0.231c0.706,0.762,1.153,1.755,1.153,2.871
		c0,0.373-0.067,0.728-0.162,1.073c-0.183,0.667-0.513,1.28-0.964,1.796c-0.155,0.157-0.286,0.288-0.441,0.418
		c-0.156,0.131-0.316,0.262-0.495,0.366h-0.027l-0.208,0.157l-0.001,0.011l-0.009,0.087l-0.017,0.162l-0.175,2.032l-0.086,0.995
		c0,0-0.001,0-0.001,0c-0.217,0-0.414,0.015-0.612,0.021c-0.037,0.001-0.078,0.004-0.116,0.004h-0.383h-0.506h-0.73
		c-1.235,0-2.475,0.052-3.767,0.285c-0.086,0.015-0.17,0.028-0.257,0.045c-0.068,0.014-0.134,0.021-0.202,0.035
		c-0.55,0.104-1.097,0.261-1.67,0.469c-2.114,0.756-4.358,2.217-6.809,5.009l-2.608-5.401l-0.072-0.127l-0.02-0.035l-0.011-0.019
		l-0.161-0.079c-0.713-0.356-1.299-0.872-1.735-1.498c-0.075-0.108-0.156-0.212-0.221-0.327C8.609,13.15,8.532,12.993,8.452,12.837z
		 M5.684,43.666c-0.369-0.498-0.615-1.016-0.602-1.441c0-0.013,0.009-0.022,0.01-0.035c0.006-0.101,0.039-0.2,0.078-0.287
		c0.007-0.014,0.004-0.032,0.012-0.046l4.573-5.227c0.74,0.581,1.441,1.219,2.091,1.926c0.248,0.269,0.48,0.561,0.712,0.852
		c0.005,0.006,0.011,0.012,0.016,0.018c0.001,0.001,0.002,0.002,0.002,0.003c0.139,0.175,0.277,0.351,0.411,0.534
		c0.158,0.212,0.309,0.434,0.454,0.659c0.087,0.132,0.183,0.253,0.267,0.388c-0.193,0.215-0.414,0.479-0.663,0.773
		c-0.828,0.984-1.973,2.326-3.164,3.096c-0.048,0.031-0.096,0.06-0.144,0.089c-0.129,0.078-0.257,0.152-0.386,0.214
		c-0.168,0.083-0.336,0.15-0.504,0.201c-0.023,0.007-0.046,0.017-0.07,0.023c-0.184,0.05-0.368,0.072-0.551,0.07
		c-0.031,0-0.063,0.013-0.094,0.012C7.889,45.48,7.53,45.314,7.136,45.05C6.621,44.705,6.086,44.207,5.684,43.666z M37.716,49.755
		c0.052,0.073,0.106,0.135,0.162,0.191C37.823,49.89,37.769,49.826,37.716,49.755z M37.909,49.977
		c0.379,0.356,0.842,0.365,1.307,0.171C38.737,50.355,38.294,50.342,37.909,49.977z M39.446,50.342
		c0.001,0.001,0.002,0.001,0.003,0.002C39.448,50.343,39.447,50.343,39.446,50.342z M39.659,50.485
		c0.027,0.014,0.055,0.021,0.083,0.032C39.714,50.506,39.686,50.499,39.659,50.485z M39.883,50.565
		c0.048,0.01,0.098,0.014,0.149,0.018C39.982,50.579,39.931,50.576,39.883,50.565z M43.989,47.669
		c-0.025,0.025-0.05,0.078-0.05,0.105c-0.236,0.441-0.498,0.887-0.836,1.276c-0.342,0.394-0.731,0.757-1.203,1.124
		c-0.116,0.058-0.214,0.085-0.303,0.094c-0.088,0.019-0.161,0.023-0.217,0.008c-0.078-0.024-0.13-0.077-0.186-0.155
		c0.344-0.445,0.97-1.148,1.022-1.854c0.025-0.078,0.025-0.156,0-0.235v-0.104h-0.027v-0.025V47.88v-0.022
		c-0.271,0.588-0.882,1.809-1.72,1.996c-0.08,0.023-0.167,0.03-0.256,0.028c-0.011,0-0.022,0.005-0.033,0.004
		c-0.004,0-0.007-0.002-0.011-0.002c-0.015-0.001-0.027,0.004-0.042,0.002h-0.025H40.05h-0.025c0,0-0.027-0.025-0.053-0.025
		l-0.025-0.027h-0.028v-0.025h-0.025v-0.024h-0.028v-0.028h-0.025l0.025-0.024l0.158-0.183l0.078-0.078l0.025-0.025v-0.027
		l0.078-0.053v-0.025c0.159-0.184,0.314-0.365,0.47-0.574c0.373-0.502,0.615-1.019,0.341-1.337c0.07,0.527-0.917,1.812-2.008,2.067
		c-0.077,0.028-0.151,0.044-0.224,0.05c-0.219,0.04-0.421-0.047-0.587-0.337c0.355-0.215,1.063-0.847,1.536-1.513
		c0.001,0,0.002-0.001,0.003-0.001c0.023-0.032,0.038-0.064,0.06-0.096c0.06-0.09,0.117-0.179,0.167-0.268
		c0.014-0.026,0.025-0.051,0.038-0.077c0.036-0.07,0.075-0.14,0.102-0.209c0.011-0.03,0.017-0.059,0.026-0.089
		c0.006-0.018,0.01-0.035,0.015-0.052c0.025-0.095,0.044-0.19,0.047-0.281c0.001-0.033-0.005-0.064-0.008-0.096
		c-0.006-0.071-0.021-0.139-0.046-0.204c-0.005-0.011-0.002-0.024-0.008-0.034c-0.002-0.001-0.004-0.001-0.006-0.003
		c-0.008-0.017-0.01-0.035-0.019-0.051c-0.042-0.041-0.091-0.097-0.146-0.145c-0.28,0.858-0.738,1.609-1.426,2.137
		c-0.078,0.061-0.178,0.103-0.263,0.158c-0.15,0.096-0.291,0.201-0.462,0.277l-0.028,0.026c-0.056,0.056-0.128,0.071-0.203,0.067
		c-0.078,0.013-0.16,0.005-0.238-0.041c-0.078-0.026-0.128-0.08-0.208-0.131c-0.053-0.079-0.103-0.131-0.13-0.209
		c-0.017-0.017-0.02-0.037-0.027-0.057c-0.023-0.049-0.024-0.077,0-0.101c0.577-0.6,1.044-1.227,1.358-1.877
		c0.078-0.183,0.156-0.34,0.208-0.523c-0.001,0-0.002,0-0.003-0.001c0.16-0.486,0.228-0.988,0.189-1.515
		c-0.468,0.888-0.791,2.521-1.698,2.873c-0.003-0.01-0.004-0.02-0.007-0.03c-0.017,0.008-0.03,0.023-0.048,0.03
		c-0.081-0.268-0.133-0.528-0.171-0.782c-0.022-0.164-0.026-0.321-0.028-0.479c-0.002-0.076-0.007-0.153-0.004-0.227
		c0.022-0.432,0.12-0.835,0.308-1.2c0.653-1.277,1.67-1.904,2.714-1.983h0.028h0.025h0.106h0.103h0.052h0.05
		c0.046,0,0.069,0.019,0.091,0.025c0.128,0.008,0.256,0.024,0.384,0.048l-0.137-0.02h0.028h0.078h0.027l0.05,0.026h0.027h0.028
		c0.032,0.017,0.046,0.015,0.065,0.017l-0.12-0.017l-0.006-0.001c0.147,0.029,0.294,0.067,0.44,0.116
		c0.018,0.008,0.031,0.016,0.063,0.016v0.009c0.858,0.302,1.669,0.936,2.27,1.842C44.042,45.453,44.356,46.572,43.989,47.669z"/>
	<path style="fill:#834224;" d="M20.325,39.399c-0.366,0-0.653,0.286-0.653,0.651c0,0.393,0.287,0.68,0.653,0.68
		c0.392,0,0.678-0.287,0.678-0.68C21.003,39.685,20.717,39.399,20.325,39.399z"/>
	<path style="fill:#834224;" d="M20.508,34.416c-0.052,0-0.105,0-0.183,0.025c-0.261,0.055-0.497,0.312-0.497,0.625
		c0,0.313,0.236,0.574,0.497,0.652c0.078,0,0.131,0.027,0.183,0.027c0.364,0,0.65-0.313,0.65-0.68
		C21.158,34.703,20.872,34.416,20.508,34.416z"/>
	<path style="fill:#834224;" d="M26.22,25.752c-1.097,0.105-2.242-0.025-3.601-0.338c0.027-0.156,0.081-0.261,0.158-0.392
		l-0.264-0.079c-0.156,0.157-0.286,0.393-0.336,0.626c-0.08,0.47,0.181,0.913,0.6,1.017c-0.158-0.182-0.233-0.442-0.233-0.729
		c0.753,0.47,2.217,0.678,3.676,0.547c0.55-0.051,1.097-0.129,1.619-0.288c1.148-0.311,2.089-0.886,2.451-1.747
		c-0.912,0.468-1.695,0.809-2.451,1.044C27.289,25.595,26.77,25.7,26.22,25.752z"/>
	<path style="fill:#834224;" d="M22.803,21.5c-0.081-0.522-0.417-0.886-0.809-0.941c-0.053-0.023-0.103-0.023-0.186,0
		c-0.441,0.08-0.728,0.629-0.598,1.228c0.078,0.522,0.42,0.889,0.784,0.94c0.078,0.026,0.13,0.026,0.208,0
		C22.647,22.647,22.906,22.099,22.803,21.5z"/>
	<path style="fill:#834224;" d="M27.839,21.395c0.05,0.026,0.128,0.026,0.181,0c0.444-0.078,0.73-0.625,0.628-1.226
		c-0.106-0.522-0.445-0.913-0.809-0.964c-0.052,0-0.13,0-0.183,0.025c-0.444,0.078-0.731,0.625-0.625,1.227
		C27.109,20.952,27.448,21.341,27.839,21.395z"/>
	<path style="fill:#834224;" d="M26.689,24.292c1.226-0.314,0.575-1.828-0.286-1.958l-0.183,0.314l-0.103,0.236h0.103
		C26.77,22.936,27.134,23.667,26.689,24.292z"/>
	<polygon style="fill:#834224;" points="18.889,11.793 17.663,11.846 19.592,15.132 	"/>
	<polygon style="fill:#834224;" points="24.97,10.88 23.714,10.96 24.395,14.22 	"/>
	<path style="fill:#F1C36C;" d="M11.771,33.01L1.461,21.212L1.095,21.5L11.344,33.51C11.475,33.297,11.618,33.135,11.771,33.01z"/>
	<path style="fill:#F1C36C;" d="M24.109,48.504l1.12-0.052l-8.387-9.638c-0.047,0.056-0.093,0.103-0.145,0.167
		c-0.115,0.153-0.228,0.292-0.346,0.419L24.109,48.504z"/>
	<path style="fill:#FFFFFF;" d="M41.172,42.722c-0.021-0.007-0.042-0.018-0.063-0.025c-0.146-0.049-0.293-0.087-0.44-0.116
		c-0.014-0.003-0.028-0.003-0.041-0.006c-0.128-0.023-0.256-0.04-0.384-0.048c-0.064-0.004-0.127,0-0.191-0.001
		c-0.037,0-0.074,0.001-0.112,0.002c-1.093,0.037-2.14,0.649-2.814,1.985c-0.385,0.748-0.416,1.626-0.11,2.63
		c0.003,0.01,0.004,0.02,0.007,0.03c0.906-0.353,1.229-1.985,1.698-2.873c0.017-0.032,0.033-0.07,0.05-0.1
		c0.078,0.756-0.08,1.459-0.392,2.14c-0.314,0.65-0.781,1.277-1.356,1.877c-0.027,0.025-0.027,0.078,0.025,0.158
		c0.025,0.078,0.078,0.13,0.131,0.182c0.05,0.078,0.133,0.132,0.208,0.158c0.059,0.023,0.124,0.037,0.186,0.041
		c0.075,0.004,0.147-0.01,0.203-0.067l0.028-0.026c0.17-0.076,0.311-0.181,0.462-0.277c0.086-0.055,0.184-0.097,0.263-0.158
		c0.689-0.528,1.146-1.278,1.426-2.137c0.004-0.013,0.011-0.024,0.015-0.037c0.99,0.756-1.044,2.713-1.723,3.156
		c0.153,0.267,0.335,0.352,0.535,0.337c0.072-0.005,0.147-0.022,0.224-0.05c1.091-0.255,2.078-1.54,2.008-2.067
		c-0.002-0.014,0.004-0.033,0.001-0.046c0.598,0.498-0.497,1.669-1.122,2.373c0.075,0.102,0.176,0.127,0.276,0.129
		c0.004,0,0.007,0.002,0.011,0.002c0.011,0.001,0.022-0.004,0.033-0.004c0.088,0.004,0.172-0.01,0.256-0.028
		c0.838-0.187,1.449-1.407,1.72-1.996c0.008-0.018,0.02-0.042,0.027-0.058c0.287,0.861-0.55,1.772-0.992,2.296
		c0.053,0.079,0.128,0.132,0.181,0.155c0.058,0.024,0.123,0.025,0.192,0.018c0.089-0.009,0.187-0.037,0.303-0.094
		c0.472-0.367,0.861-0.73,1.203-1.124c0.338-0.39,0.6-0.835,0.836-1.276c0-0.027,0.025-0.08,0.05-0.105
		c0.367-1.098,0.053-2.217-0.548-3.105C42.841,43.658,42.03,43.024,41.172,42.722z"/>
	<path style="fill:#FFFFFF;" d="M14.432,38.949l0.156-0.11l0.171-0.121l0.132-0.094l0.114-0.081l0.281,0.107
		c0.201,0.078,0.352-0.119,0.53-0.347c0.043-0.056,0.091-0.114,0.137-0.171c0.108-0.135,0.224-0.27,0.37-0.399l0.003-0.003
		c0.126-0.107,0.218-0.279,0.261-0.468c0.027-0.116,0.038-0.233,0.02-0.334c-0.013-0.069-0.04-0.121-0.07-0.167
		c-0.007-0.01-0.007-0.027-0.015-0.035c-0.007-0.009-0.027-0.011-0.036-0.019c-0.032-0.028-0.073-0.05-0.127-0.067
		c-0.014-0.004-0.017-0.014-0.032-0.017l-0.14-0.034l-0.108-0.026l-0.004-0.007l-0.072-0.139l-0.043-0.083
		c-0.054-0.101-0.103-0.189-0.153-0.281c-0.28-0.509-0.521-0.881-0.783-1.102c-0.123-0.106-0.266-0.181-0.433-0.235
		c-0.011-0.003-0.019-0.009-0.03-0.012c-0.077-0.023-0.163-0.037-0.251-0.05c-0.021-0.003-0.037-0.009-0.059-0.011
		c-0.033-0.004-0.072-0.003-0.106-0.006c-0.086-0.006-0.171-0.012-0.268-0.011l-0.238,0.001l-0.166-0.169
		c-0.226-0.227-0.407-0.388-0.56-0.498c-0.186-0.135-0.326-0.191-0.414-0.149c-0.247,0.12-0.48,0.669-0.746,1.656
		c-0.06,0.224-0.173,0.392-0.304,0.53L14.432,38.949z"/>
	<path style="fill:#FFFFFF;" d="M8.133,45.488c0.031,0.001,0.063-0.011,0.094-0.012c0.182-0.003,0.366-0.021,0.551-0.07
		c0.023-0.006,0.046-0.016,0.07-0.023c0.168-0.049,0.336-0.12,0.504-0.201c0.129-0.062,0.257-0.137,0.386-0.214
		c0.048-0.029,0.096-0.058,0.144-0.089c1.191-0.77,2.336-2.112,3.164-3.096c0.248-0.295,0.469-0.559,0.663-0.773
		c-0.085-0.136-0.18-0.257-0.267-0.388c-0.148-0.224-0.298-0.446-0.454-0.659c-0.134-0.183-0.272-0.359-0.411-0.534
		c-0.006-0.007-0.012-0.014-0.018-0.021c-0.233-0.291-0.465-0.583-0.712-0.852c-0.65-0.707-1.351-1.345-2.091-1.926l-4.573,5.227
		c-0.008,0.014-0.005,0.032-0.012,0.046c-0.044,0.088-0.072,0.183-0.078,0.287c-0.001,0.013-0.009,0.022-0.01,0.035
		c-0.013,0.426,0.233,0.943,0.602,1.441c0.401,0.541,0.937,1.039,1.451,1.385C7.53,45.314,7.889,45.48,8.133,45.488z"/>
	<path style="fill:#FFFFFF;" d="M31.494,50.551c2.137-0.225,4.205-0.545,6.123-0.961c0.003-0.001,0.007-0.001,0.01-0.002
		l-0.027-0.051c-0.005,0-0.01-0.002-0.014-0.002c-0.149-0.002-0.299-0.038-0.44-0.1c-0.16-0.066-0.312-0.166-0.437-0.284
		c-0.056-0.052-0.088-0.119-0.135-0.179c-0.057-0.073-0.125-0.142-0.165-0.219c-0.002-0.005-0.008-0.009-0.01-0.013
		c-0.001-0.002-0.001-0.005-0.002-0.007c-0.043-0.089-0.073-0.183-0.092-0.275c-0.006,0.001-0.013,0.001-0.019,0.002
		c-3.163,0.447-7.674,0.726-12.686,0.726c-9.387,0-17.035-0.979-17.316-2.197l-0.098,0.97c0.059,0.107,0.119,0.182,0.177,0.253
		c0.017,0.021,0.036,0.056,0.052,0.073C11.567,50.716,22.184,51.532,31.494,50.551z"/>
	<path style="fill:#834224;" d="M241.017,32.259c-0.297-0.533-0.717-0.948-1.247-1.233c-1.058-0.57-2.213-0.571-3.273,0
		c-0.531,0.287-0.951,0.701-1.249,1.233c-0.297,0.531-0.447,1.093-0.447,1.67c0,0.571,0.149,1.128,0.442,1.655
		c0.293,0.527,0.708,0.942,1.234,1.234c0.523,0.291,1.081,0.438,1.656,0.438c0.577,0,1.135-0.147,1.657-0.438
		c0.527-0.292,0.942-0.707,1.233-1.234c0.291-0.527,0.439-1.084,0.439-1.655C241.462,33.352,241.312,32.79,241.017,32.259z
		 M236.808,36.238c-0.42-0.234-0.752-0.566-0.987-0.985c-0.234-0.422-0.354-0.866-0.354-1.323c0-0.461,0.121-0.91,0.361-1.337
		c0.236-0.424,0.571-0.755,0.994-0.984c0.424-0.229,0.864-0.346,1.311-0.346c0.443,0,0.884,0.116,1.309,0.346
		c0.423,0.228,0.758,0.559,0.995,0.984s0.357,0.875,0.357,1.337c0,0.459-0.118,0.904-0.352,1.323
		c-0.231,0.418-0.562,0.749-0.984,0.985C238.615,36.706,237.657,36.708,236.808,36.238z"/>
	<path style="fill:#834224;" d="M238.748,34.304c-0.04-0.039-0.086-0.074-0.138-0.107c0.228-0.049,0.419-0.153,0.571-0.311
		c0.194-0.203,0.292-0.443,0.292-0.715c0-0.194-0.06-0.379-0.176-0.551c-0.117-0.173-0.275-0.295-0.473-0.363
		c-0.191-0.068-0.492-0.102-0.917-0.102h-1.272v3.643h0.693v-1.494h0.271c0.184,0,0.324,0.036,0.418,0.109
		c0.143,0.104,0.336,0.372,0.575,0.798l0.331,0.587h0.842l-0.489-0.785C239.067,34.679,238.895,34.447,238.748,34.304z
		 M238.746,33.218c0,0.145-0.051,0.257-0.157,0.342c-0.106,0.088-0.32,0.133-0.634,0.133h-0.625v-0.936h0.582
		c0.27,0,0.453,0.019,0.547,0.056c0.092,0.037,0.161,0.091,0.212,0.161C238.722,33.047,238.746,33.126,238.746,33.218z"/>
	<polygon style="fill:#834224;" points="49.201,12.697 45.664,12.697 47.137,15.055 47.155,15.085 49.201,15.085 49.201,29.131 
		51.745,29.131 51.745,15.085 56.236,15.085 56.236,12.697 51.745,12.697 51.745,9.433 56.236,9.433 56.236,6.885 49.201,6.885 	"/>
	<path style="fill:#834224;" d="M68.903,13.727c-0.337-0.389-0.75-0.697-1.263-0.943c-0.514-0.244-1.126-0.368-1.82-0.368
		c-0.482,0-0.97,0.08-1.451,0.237c-0.479,0.164-0.913,0.412-1.289,0.736c-0.39,0.337-0.703,0.752-0.93,1.232
		c-0.234,0.494-0.353,1.073-0.353,1.721v12.789h2.545V16.94c0-0.172,0.011-0.365,0.033-0.592c0.02-0.226,0.075-0.446,0.166-0.655
		c0.089-0.207,0.235-0.383,0.435-0.524c0.199-0.137,0.494-0.207,0.876-0.207c0.365,0,0.642,0.068,0.845,0.207
		c0.201,0.141,0.343,0.308,0.434,0.51c0.089,0.197,0.145,0.411,0.168,0.654c0.02,0.237,0.03,0.441,0.03,0.607v0.062h2.545v-0.66
		c0-0.458-0.082-0.913-0.242-1.354C69.476,14.534,69.23,14.11,68.903,13.727z"/>
	<path style="fill:#834224;" d="M81.721,13.6c-0.33-0.381-0.754-0.698-1.263-0.942c-0.515-0.244-1.126-0.368-1.817-0.368
		c-0.486,0-0.974,0.08-1.449,0.239c-0.481,0.161-0.917,0.408-1.294,0.736c-0.381,0.328-0.693,0.742-0.928,1.231
		c-0.233,0.495-0.352,1.074-0.352,1.722v9.144c0,0.673,0.124,1.268,0.368,1.769c0.243,0.497,0.56,0.911,0.943,1.232
		c0.4,0.328,0.829,0.558,1.312,0.704c0.491,0.146,0.983,0.221,1.461,0.221c0.272,0,0.636-0.047,1.081-0.142
		c0.444-0.094,0.89-0.288,1.327-0.575c0.434-0.284,0.811-0.687,1.119-1.198c0.308-0.508,0.463-1.185,0.463-2.012V24.42h-2.545v0.284
		c0,0.159-0.01,0.363-0.03,0.605c-0.016,0.227-0.073,0.447-0.169,0.655c-0.088,0.2-0.228,0.372-0.416,0.509
		c-0.19,0.138-0.47,0.208-0.83,0.208c-0.393,0-0.684-0.064-0.892-0.196c-0.212-0.128-0.363-0.293-0.447-0.492
		c-0.092-0.199-0.148-0.418-0.168-0.655c-0.023-0.251-0.034-0.458-0.034-0.634V22.28h2.077c0.703,0,1.282-0.108,1.721-0.32
		c0.445-0.208,0.802-0.479,1.062-0.803c0.255-0.319,0.434-0.66,0.531-1.012c0.093-0.353,0.14-0.68,0.14-0.973v-2.955
		c0-0.445-0.08-0.901-0.237-1.355C82.29,14.398,82.05,13.985,81.721,13.6z M80.147,16.815v2.202c0,0.45-0.086,0.71-0.255,0.773
		c-0.193,0.071-0.445,0.107-0.747,0.107h-1.984v-3.081c0-0.156,0.011-0.344,0.034-0.592c0.02-0.223,0.077-0.443,0.169-0.658
		c0.086-0.209,0.227-0.38,0.432-0.522c0.2-0.139,0.494-0.21,0.873-0.21c0.362,0,0.646,0.071,0.846,0.21
		c0.202,0.142,0.344,0.309,0.433,0.509c0.096,0.21,0.152,0.429,0.169,0.652C80.137,16.453,80.147,16.652,80.147,16.815z"/>
	<path style="fill:#834224;" d="M89.6,28.363c0.385,0.32,0.825,0.557,1.307,0.704c0.492,0.146,0.984,0.221,1.464,0.221
		c0.274,0,0.627-0.046,1.08-0.142c0.442-0.094,0.887-0.287,1.322-0.575c0.439-0.284,0.806-0.676,1.122-1.198
		c0.311-0.514,0.469-1.191,0.469-2.012V24.42h-2.548v0.284c0,0.162-0.01,0.365-0.03,0.604c-0.02,0.237-0.075,0.458-0.166,0.655
		c-0.09,0.2-0.233,0.372-0.424,0.51c-0.187,0.137-0.464,0.207-0.824,0.207c-0.39,0-0.682-0.064-0.894-0.196
		c-0.209-0.125-0.356-0.286-0.448-0.492c-0.09-0.196-0.145-0.41-0.168-0.655c-0.02-0.208-0.029-0.421-0.029-0.634V22.28h2.071
		c0.712,0,1.276-0.104,1.724-0.32c0.444-0.21,0.8-0.479,1.059-0.803c0.256-0.32,0.435-0.661,0.531-1.012
		c0.097-0.348,0.146-0.675,0.146-0.973v-2.955c0-0.449-0.081-0.904-0.242-1.354c-0.155-0.448-0.402-0.873-0.735-1.263
		c-0.33-0.381-0.753-0.698-1.258-0.942c-0.517-0.244-1.13-0.368-1.822-0.368c-0.486,0-0.974,0.08-1.449,0.239
		c-0.482,0.161-0.916,0.409-1.291,0.735c-0.386,0.328-0.69,0.731-0.93,1.231c-0.232,0.49-0.35,1.069-0.35,1.722v9.144
		c0,0.684,0.124,1.28,0.368,1.769C88.892,27.622,89.21,28.036,89.6,28.363z M93.816,19.017c0,0.449-0.086,0.709-0.256,0.773
		c-0.196,0.071-0.449,0.107-0.751,0.107h-1.976v-3.081c0-0.193,0.01-0.387,0.029-0.591c0.023-0.23,0.08-0.451,0.168-0.657
		c0.091-0.21,0.233-0.381,0.433-0.523c0.204-0.14,0.5-0.21,0.879-0.21c0.357,0,0.641,0.071,0.842,0.209
		c0.201,0.143,0.347,0.314,0.436,0.51c0.09,0.2,0.146,0.419,0.166,0.653c0.021,0.246,0.03,0.445,0.03,0.61V19.017z"/>
	<path style="fill:#834224;" d="M107.56,29.272c0.444-0.096,0.889-0.29,1.322-0.576c0.437-0.286,0.814-0.689,1.122-1.199
		c0.308-0.508,0.463-1.185,0.463-2.011V6.885h-2.543v5.785c-0.476-0.171-0.971-0.254-1.509-0.254c-0.48,0-0.968,0.08-1.45,0.237
		c-0.491,0.168-0.914,0.41-1.295,0.736c-0.386,0.333-0.688,0.736-0.924,1.232c-0.234,0.493-0.353,1.072-0.353,1.721v9.145
		c0,0.68,0.125,1.275,0.371,1.77c0.239,0.494,0.556,0.909,0.94,1.233c0.385,0.318,0.826,0.554,1.312,0.703
		c0.489,0.146,0.981,0.221,1.465,0.221C106.748,29.414,107.112,29.366,107.56,29.272z M107.304,26.599
		c-0.186,0.137-0.463,0.206-0.824,0.206c-0.392,0-0.692-0.065-0.895-0.194c-0.208-0.124-0.355-0.285-0.448-0.493
		c-0.089-0.192-0.144-0.405-0.169-0.651c-0.019-0.216-0.028-0.43-0.028-0.638V16.94c0-0.185,0.009-0.384,0.027-0.591
		c0.026-0.237,0.082-0.452,0.17-0.657c0.095-0.217,0.237-0.389,0.433-0.524c0.197-0.137,0.491-0.207,0.873-0.207
		c0.304,0,0.553,0.051,0.742,0.151c0.188,0.096,0.335,0.222,0.451,0.385c0.108,0.165,0.182,0.338,0.225,0.529
		c0.041,0.19,0.062,0.38,0.062,0.566v8.236c0,0.161-0.012,0.359-0.03,0.605c-0.018,0.225-0.074,0.445-0.165,0.654
		C107.638,26.29,107.495,26.462,107.304,26.599z"/>
	<path style="fill:#834224;" d="M120.713,29.414c0.269,0,0.632-0.047,1.081-0.141c0.443-0.096,0.889-0.29,1.324-0.576
		c0.438-0.287,0.815-0.69,1.12-1.199c0.307-0.508,0.463-1.185,0.463-2.011v-9.145c0-0.446-0.08-0.902-0.237-1.354
		c-0.161-0.459-0.408-0.884-0.734-1.261c-0.33-0.383-0.754-0.701-1.261-0.944c-0.513-0.244-1.126-0.368-1.819-0.368
		c-0.48,0-0.968,0.08-1.449,0.237c-0.492,0.169-0.915,0.41-1.293,0.736c-0.384,0.332-0.696,0.746-0.927,1.232
		c-0.234,0.494-0.353,1.073-0.353,1.721v9.145c0,0.674,0.125,1.269,0.371,1.77c0.238,0.492,0.555,0.907,0.942,1.233
		c0.388,0.32,0.829,0.557,1.31,0.703C119.737,29.339,120.229,29.414,120.713,29.414z M119.171,24.829V16.94
		c0-0.174,0.011-0.373,0.033-0.592c0.019-0.222,0.076-0.442,0.168-0.655c0.091-0.209,0.237-0.386,0.433-0.524
		c0.197-0.137,0.493-0.207,0.878-0.207c0.359,0,0.642,0.07,0.84,0.207c0.202,0.14,0.345,0.307,0.436,0.509
		c0.092,0.209,0.149,0.429,0.168,0.654c0.018,0.248,0.03,0.447,0.03,0.608v7.889c0,0.161-0.012,0.359-0.03,0.605
		c-0.019,0.228-0.075,0.448-0.168,0.654c-0.091,0.201-0.233,0.373-0.422,0.511c-0.186,0.137-0.463,0.206-0.824,0.206
		c-0.392,0-0.692-0.065-0.895-0.194c-0.209-0.127-0.356-0.288-0.447-0.493c-0.092-0.199-0.148-0.418-0.168-0.652
		C119.182,25.24,119.171,25.025,119.171,24.829z"/>
	<path style="fill:#834224;" d="M143.067,13.601c-0.363-0.423-0.827-0.73-1.38-0.913c-0.559-0.183-1.069-0.271-1.561-0.271
		c-0.588,0-1.124,0.096-1.593,0.286c-0.452,0.185-0.826,0.413-1.14,0.696c-0.35-0.337-0.775-0.588-1.269-0.746
		c-0.511-0.157-1.004-0.236-1.466-0.236c-0.63,0-1.204,0.112-1.707,0.334c-0.502,0.225-0.916,0.523-1.227,0.881
		c-0.365,0.382-0.634,0.833-0.798,1.34c-0.173,0.506-0.261,1.168-0.261,1.968v12.191h2.546V16.94c0-0.146,0.006-0.335,0.018-0.578
		c0.008-0.231,0.058-0.45,0.15-0.652c0.092-0.204,0.234-0.376,0.437-0.525c0.198-0.148,0.481-0.223,0.842-0.223
		c0.322,0,0.581,0.051,0.771,0.151c0.186,0.095,0.331,0.224,0.433,0.385c0.1,0.157,0.169,0.33,0.212,0.529
		c0.044,0.201,0.065,0.391,0.065,0.566v12.538h2.542V16.625c0-0.163,0.02-0.344,0.061-0.536c0.038-0.189,0.108-0.373,0.207-0.544
		c0.108-0.172,0.252-0.31,0.439-0.418c0.188-0.109,0.436-0.165,0.737-0.165c0.367,0,0.644,0.068,0.844,0.207
		c0.201,0.14,0.345,0.302,0.438,0.496c0.091,0.186,0.145,0.4,0.162,0.636c0.023,0.245,0.035,0.454,0.035,0.64v12.191h2.543V16.94
		c0-0.673-0.064-1.265-0.19-1.758C143.831,14.684,143.532,14.152,143.067,13.601z"/>
	<path style="fill:#834224;" d="M162.396,26.681c1.356-1.529,2.045-3.367,2.045-5.462c0-1.195-0.225-2.334-0.669-3.386
		c-0.435-1.043-1.062-1.99-1.865-2.816c-0.065-0.062-0.131-0.121-0.194-0.177c-0.037-0.03-0.072-0.065-0.108-0.108
		c0.567-0.377,0.991-0.876,1.26-1.484c0.271-0.632,0.409-1.29,0.409-1.956c0-0.285-0.048-0.66-0.142-1.114
		c-0.095-0.46-0.287-0.922-0.571-1.373c-0.289-0.445-0.691-0.832-1.197-1.148V7.655c-0.514-0.319-1.191-0.481-2.014-0.481h-2.985
		v5.812h-3.538l1.477,2.359l0.019,0.029h2.043v14.725l0.079-0.022C159.046,29.342,161.049,28.2,162.396,26.681z M160.447,24.919
		c-0.388,0.496-0.904,0.966-1.537,1.397V15.554c0.557,0.377,1.025,0.79,1.396,1.228c0.396,0.467,0.716,0.948,0.949,1.431
		c0.243,0.496,0.406,0.964,0.498,1.433c0.096,0.47,0.142,0.903,0.142,1.322c0,0.292-0.03,0.639-0.093,1.061
		c-0.063,0.413-0.205,0.872-0.422,1.365C161.151,23.909,160.838,24.422,160.447,24.919z M160.152,12.618
		c-0.38,0.214-0.798,0.337-1.242,0.365V9.687c0.154,0.006,0.329,0.031,0.532,0.078c0.217,0.051,0.418,0.131,0.614,0.244
		c0.187,0.108,0.347,0.269,0.478,0.482c0.132,0.207,0.198,0.476,0.198,0.8C160.732,11.952,160.537,12.399,160.152,12.618z"/>
	<path style="fill:#834224;" d="M177.104,14.191c-0.237-0.343-0.506-0.633-0.799-0.861c-0.295-0.228-0.577-0.345-0.84-0.345h-5.81
		l0.035,0.086c0.097,0.237,0.215,0.481,0.361,0.748l0.001,0.001c0.146,0.253,0.32,0.458,0.531,0.625
		c0.459,0.411,0.888,0.662,1.312,0.769c0.421,0.106,0.904,0.16,1.435,0.16h0.598c0.521,0,0.9,0.125,1.129,0.372
		c0.231,0.254,0.345,0.544,0.345,0.885v1.288h-2.071c-0.695,0-1.275,0.108-1.724,0.322c-0.454,0.212-0.801,0.475-1.06,0.801
		c-0.254,0.318-0.433,0.665-0.531,1.029c-0.097,0.359-0.146,0.683-0.146,0.962v5.526c0,0.726,0.298,1.391,0.885,1.978
		c0.588,0.586,1.422,0.883,2.48,0.883h0.909c0.956,0,1.698-0.195,2.206-0.58c0.512-0.382,0.889-0.866,1.122-1.439
		c0.231-0.57,0.37-1.2,0.413-1.872c0.039-0.639,0.059-1.274,0.059-1.89v-7.007c0-0.406-0.079-0.831-0.236-1.263
		C177.554,14.942,177.35,14.546,177.104,14.191z M172.42,21.188c0-0.45,0.086-0.71,0.255-0.773c0.191-0.071,0.438-0.105,0.753-0.105
		h1.976v5.278c0,0.539-0.138,0.891-0.411,1.045c-0.277,0.159-0.593,0.24-0.938,0.24h-0.723c-0.186,0-0.386-0.029-0.612-0.088
		c-0.201-0.058-0.3-0.254-0.3-0.601V21.188z"/>
	<path style="fill:#834224;" d="M189.23,13.332c0,0.474-0.041,1.057-0.125,1.784c-0.084,0.703-0.368,1.541-0.843,2.491
		c-0.345,0.683-0.73,1.211-1.182,1.616c-0.387,0.354-0.73,0.654-1.024,0.893V7.173h-2.543V29.42h2.543v-6.851h2.227
		c0.473,0,0.751,0.093,0.826,0.274c0.08,0.206,0.121,0.463,0.121,0.765v5.812h2.572v-5.751c0-0.28-0.01-0.572-0.029-0.868
		c-0.024-0.339-0.115-0.674-0.27-0.997c-0.163-0.329-0.418-0.646-0.757-0.943c-0.313-0.279-0.762-0.506-1.334-0.677
		c0.925-0.931,1.561-1.998,1.893-3.173c0.33-1.202,0.498-2.439,0.498-3.677v-0.346h-2.572V13.332z"/>
	<path style="fill:#834224;" d="M204.058,13.886c-0.327-0.378-0.752-0.695-1.263-0.939c-0.509-0.244-1.12-0.368-1.816-0.368
		c-0.486,0-0.974,0.08-1.449,0.237c-0.478,0.16-0.913,0.407-1.294,0.734c-0.385,0.333-0.695,0.748-0.925,1.232
		c-0.236,0.492-0.352,1.056-0.352,1.723v9.143c0,0.675,0.123,1.271,0.365,1.771c0.247,0.5,0.563,0.914,0.942,1.23
		c0.392,0.324,0.833,0.561,1.311,0.702c0.488,0.149,0.98,0.224,1.463,0.224c0.274,0,0.628-0.047,1.081-0.143
		c0.444-0.093,0.879-0.281,1.328-0.574c0.436-0.289,0.811-0.692,1.116-1.199c0.307-0.508,0.463-1.185,0.463-2.012v-0.941h-2.539
		v0.283c0,0.163-0.016,0.371-0.035,0.606c-0.017,0.228-0.073,0.448-0.169,0.657c-0.085,0.197-0.225,0.368-0.417,0.509
		c-0.186,0.137-0.465,0.206-0.828,0.206c-0.389,0-0.683-0.063-0.896-0.194c-0.212-0.132-0.36-0.297-0.443-0.492
		c-0.089-0.195-0.145-0.41-0.168-0.655c-0.021-0.225-0.031-0.445-0.031-0.636v-2.422h2.076c0.702,0,1.281-0.108,1.719-0.32
		c0.446-0.21,0.804-0.48,1.062-0.803c0.255-0.316,0.434-0.657,0.531-1.012c0.093-0.345,0.14-0.673,0.14-0.975v-2.953
		c0-0.453-0.079-0.909-0.236-1.355C204.624,14.677,204.384,14.263,204.058,13.886z M202.49,19.303c0,0.442-0.089,0.71-0.258,0.774
		c-0.194,0.072-0.446,0.108-0.75,0.108h-1.98v-3.081c0-0.174,0.01-0.368,0.031-0.591c0.023-0.236,0.079-0.451,0.169-0.658
		c0.085-0.209,0.231-0.385,0.434-0.522c0.199-0.14,0.493-0.211,0.875-0.211c0.36,0,0.644,0.071,0.843,0.211
		c0.203,0.14,0.349,0.31,0.434,0.508c0.095,0.21,0.151,0.43,0.168,0.653c0.021,0.264,0.035,0.448,0.035,0.61V19.303z"/>
	<path style="fill:#834224;" d="M217.852,14.014c-0.329-0.382-0.753-0.699-1.26-0.941c-0.509-0.244-1.121-0.368-1.82-0.368
		c-0.482,0-0.971,0.08-1.45,0.237c-0.475,0.161-0.91,0.409-1.294,0.736c-0.383,0.33-0.695,0.745-0.928,1.231
		c-0.232,0.494-0.35,1.074-0.35,1.722V29.42h2.545V17.229c0-0.163,0.01-0.356,0.031-0.591c0.02-0.224,0.077-0.445,0.167-0.656
		c0.091-0.211,0.233-0.382,0.433-0.523c0.201-0.138,0.496-0.208,0.877-0.208c0.366,0,0.644,0.068,0.847,0.207
		c0.2,0.141,0.343,0.308,0.435,0.51c0.091,0.2,0.145,0.414,0.164,0.655c0.022,0.224,0.033,0.428,0.033,0.606v0.062h2.545v-0.66
		c0-0.433-0.08-0.889-0.239-1.355C218.428,14.821,218.181,14.397,217.852,14.014z"/>
	<path style="fill:#834224;" d="M229.289,25.461c0,0.18-0.021,0.372-0.062,0.571c-0.04,0.192-0.109,0.365-0.212,0.526
		c-0.105,0.162-0.25,0.293-0.43,0.388c-0.19,0.099-0.44,0.148-0.742,0.148c-0.388,0-0.682-0.063-0.897-0.194
		c-0.204-0.126-0.354-0.291-0.444-0.49c-0.091-0.2-0.145-0.414-0.168-0.654c-0.021-0.235-0.03-0.45-0.03-0.638V12.986h-2.546v12.79
		c0,0.678,0.125,1.274,0.371,1.769c0.235,0.492,0.552,0.906,0.94,1.231c0.388,0.322,0.827,0.559,1.308,0.704
		c0.491,0.146,0.984,0.221,1.467,0.221c0.387,0,0.873-0.087,1.445-0.259v2.428c0,0.338-0.117,0.658-0.348,0.952
		c-0.227,0.286-0.606,0.432-1.129,0.432h-0.062v2.545h0.062c0.525,0,1.04-0.103,1.53-0.306c0.489-0.201,0.925-0.479,1.295-0.827
		c0.379-0.363,0.674-0.782,0.876-1.246c0.213-0.485,0.321-1.007,0.321-1.55V12.986h-2.546V25.461z"/>
	<path style="fill:#834224;" d="M94.55,40.49l-1.634-0.523c-1.661-0.522-2.492-1.213-2.492-2.07c0-0.215,0.06-0.431,0.18-0.646
		c0.12-0.215,0.284-0.402,0.492-0.562c0.502-0.389,1.186-0.584,2.051-0.584c0.595,0,1.12,0.096,1.576,0.288
		c0.456,0.192,0.873,0.488,1.251,0.888c0.209,0.221,0.388,0.461,0.539,0.719c0.15,0.26,0.33,0.633,0.539,1.119h0.267l-0.081-3.053
		H96.97c-0.093,0.262-0.275,0.393-0.546,0.393c-0.108,0-0.232-0.014-0.371-0.043c-0.14-0.027-0.402-0.093-0.79-0.195
		c-0.519-0.144-0.933-0.24-1.242-0.289c-0.31-0.049-0.646-0.072-1.01-0.072c-1.122,0-2.093,0.251-2.914,0.754
		c-0.464,0.281-0.826,0.619-1.085,1.015c-0.259,0.395-0.389,0.805-0.389,1.229c0,0.693,0.333,1.279,0.999,1.762
		c0.24,0.174,0.555,0.346,0.946,0.516c0.391,0.169,0.954,0.377,1.689,0.623c0.835,0.281,1.456,0.515,1.863,0.699
		c0.406,0.185,0.721,0.377,0.946,0.576c0.217,0.195,0.389,0.429,0.517,0.7c0.127,0.273,0.191,0.538,0.191,0.8
		c0,0.605-0.29,1.105-0.871,1.5c-0.58,0.395-1.316,0.592-2.205,0.592c-1.277,0-2.337-0.43-3.18-1.289
		c-0.449-0.465-0.836-1.102-1.161-1.91l-0.267-0.008l-0.035,3.176h0.267c0.14-0.246,0.395-0.369,0.766-0.369
		c0.116,0,0.221,0.011,0.313,0.031c0.093,0.02,0.379,0.1,0.859,0.238c0.921,0.262,1.88,0.393,2.878,0.393
		c1.091,0,2.039-0.162,2.844-0.487s1.408-0.786,1.811-1.385c0.286-0.43,0.43-0.88,0.43-1.35c0-0.708-0.317-1.328-0.95-1.863
		C96.717,41.322,95.809,40.886,94.55,40.49z"/>
	<path style="fill:#834224;" d="M101.318,37.017c0.198,0.129,0.449,0.193,0.753,0.193c0.303,0,0.554-0.064,0.752-0.193
		c0.199-0.127,0.298-0.289,0.298-0.484c0-0.189-0.101-0.35-0.304-0.48c-0.202-0.131-0.451-0.195-0.746-0.195
		c-0.296,0-0.545,0.064-0.747,0.195c-0.203,0.131-0.304,0.291-0.304,0.48C101.021,36.728,101.12,36.89,101.318,37.017z"/>
	<path style="fill:#834224;" d="M103.098,45.745c-0.062-0.161-0.093-0.415-0.093-0.763l-0.012-0.582v-4.43l-3.343,0.277v0.162
		c0.348,0.015,0.615,0.055,0.801,0.118c0.186,0.063,0.344,0.167,0.476,0.309c0.131,0.133,0.217,0.305,0.255,0.517
		c0.038,0.212,0.058,0.58,0.058,1.105v1.89c0,0.449-0.018,0.792-0.052,1.029c-0.035,0.237-0.095,0.414-0.18,0.531
		c-0.124,0.18-0.286,0.305-0.487,0.379c-0.201,0.074-0.534,0.132-0.998,0.172v0.162h5.13V46.46c-0.581-0.07-0.979-0.176-1.196-0.313
		C103.28,46.04,103.16,45.906,103.098,45.745z"/>
	<path style="fill:#834224;" d="M115.553,45.743c-0.062-0.161-0.093-0.415-0.093-0.765v-3.256c0-0.559-0.298-0.988-0.894-1.291
		c-0.604-0.307-1.401-0.461-2.391-0.461c-1.323,0-2.465,0.32-3.424,0.959v-0.123c0-0.258-0.054-0.537-0.164-0.836l-3.179,0.277
		v0.162c0.348,0.015,0.615,0.055,0.801,0.118c0.186,0.063,0.344,0.167,0.476,0.309c0.131,0.133,0.217,0.305,0.255,0.517
		c0.039,0.212,0.058,0.58,0.058,1.105v1.89c0,0.449-0.018,0.792-0.052,1.029c-0.035,0.237-0.095,0.414-0.18,0.531
		c-0.124,0.18-0.286,0.305-0.487,0.379c-0.201,0.074-0.534,0.132-0.998,0.172v0.162h5.13V46.46c-0.581-0.07-0.979-0.176-1.196-0.314
		c-0.178-0.107-0.298-0.242-0.36-0.402c-0.062-0.162-0.093-0.416-0.093-0.766l-0.012-0.568v-1.504c0-0.6,0.037-1.029,0.11-1.287
		c0.073-0.259,0.226-0.49,0.458-0.695c0.216-0.194,0.511-0.348,0.886-0.461c0.374-0.112,0.778-0.168,1.21-0.168
		c0.401,0,0.768,0.049,1.1,0.148c0.332,0.101,0.586,0.24,0.764,0.419c0.162,0.159,0.272,0.369,0.33,0.63
		c0.058,0.262,0.087,0.671,0.087,1.229v1.629c0,0.445-0.018,0.787-0.052,1.025c-0.035,0.238-0.095,0.416-0.18,0.533
		c-0.123,0.18-0.286,0.307-0.487,0.381c-0.201,0.074-0.534,0.132-0.998,0.172v0.162h5.13V46.46c-0.58-0.07-0.979-0.176-1.195-0.314
		C115.734,46.039,115.615,45.904,115.553,45.743z"/>
	<path style="fill:#834224;" d="M121.093,40.951c0.235-0.223,0.523-0.408,0.862-0.557c0.386-0.17,0.807-0.254,1.262-0.254
		c0.347,0,0.64,0.059,0.88,0.177c0.123,0.062,0.217,0.134,0.283,0.216c0.065,0.082,0.152,0.235,0.26,0.461
		c0.24,0.486,0.611,0.731,1.115,0.731c0.231,0,0.429-0.055,0.592-0.166c0.162-0.109,0.243-0.246,0.243-0.41
		c0-0.246-0.193-0.473-0.58-0.678c-0.635-0.333-1.513-0.5-2.635-0.5c-0.812,0-1.561,0.096-2.246,0.285
		c-0.685,0.189-1.263,0.464-1.735,0.822c-0.418,0.312-0.747,0.689-0.986,1.131c-0.24,0.441-0.36,0.887-0.36,1.338
		c0,0.923,0.433,1.688,1.3,2.292c0.89,0.615,2.116,0.923,3.68,0.923c0.975,0,1.741-0.121,2.298-0.361
		c0.557-0.241,0.971-0.633,1.242-1.177l-0.232-0.054c-0.225,0.369-0.46,0.635-0.707,0.799c-0.486,0.313-1.101,0.47-1.842,0.47
		c-0.896,0-1.676-0.23-2.34-0.692c-0.425-0.292-0.761-0.656-1.008-1.092c-0.247-0.436-0.371-0.881-0.371-1.338
		c0-0.497,0.135-1.005,0.405-1.523C120.651,41.455,120.857,41.174,121.093,40.951z"/>
	<path style="fill:#834224;" d="M136.076,45.754c-0.246,0.164-0.557,0.293-0.932,0.385c-0.373,0.092-0.769,0.139-1.186,0.139
		c-0.562,0-1.1-0.082-1.613-0.246c-0.513-0.164-0.942-0.39-1.289-0.678c-0.34-0.281-0.607-0.635-0.805-1.061
		c-0.197-0.426-0.295-0.861-0.295-1.307c0-0.113,0.016-0.295,0.047-0.547h6.801c0-0.646-0.282-1.184-0.847-1.615
		c-0.364-0.276-0.809-0.488-1.335-0.634s-1.099-0.22-1.718-0.22c-1.161,0-2.194,0.238-3.099,0.716
		c-1.246,0.656-1.869,1.562-1.869,2.714c0,0.847,0.328,1.559,0.986,2.139c0.473,0.415,1.049,0.723,1.729,0.922
		c0.681,0.201,1.497,0.301,2.449,0.301c1.099,0,1.98-0.152,2.641-0.458c0.661-0.305,1.093-0.757,1.294-1.356l-0.244-0.055
		C136.593,45.287,136.354,45.574,136.076,45.754z M130.957,40.708c0.496-0.379,1.076-0.568,1.738-0.568
		c0.393,0,0.763,0.072,1.109,0.219c0.347,0.147,0.624,0.346,0.832,0.596c0.23,0.277,0.373,0.672,0.428,1.185h-4.992
		C130.166,41.566,130.46,41.088,130.957,40.708z"/>
	<path style="fill:#834224;" d="M150.832,45.521c-0.105-0.248-0.156-0.568-0.156-0.963v-8.432h-0.269l-0.256,0.123
		c-0.631,0.291-1.214,0.503-1.748,0.634c-0.535,0.131-1.102,0.196-1.697,0.196h-0.266v0.139c0.355,0.061,0.815,0.092,1.381,0.092
		c0.217,0,0.529-0.016,0.939-0.047v7.338c0,0.41-0.037,0.715-0.109,0.915c-0.074,0.2-0.211,0.371-0.412,0.515
		c-0.201,0.144-0.432,0.244-0.691,0.304c-0.259,0.059-0.648,0.101-1.166,0.126v0.162h6.709V46.46
		c-0.812-0.045-1.404-0.174-1.776-0.383C151.098,45.955,150.936,45.769,150.832,45.521z"/>
	<path style="fill:#834224;" d="M161.406,35.988c-1.311,0-2.422,0.312-3.336,0.938c-0.496,0.334-0.877,0.727-1.145,1.181
		c-0.267,0.454-0.4,0.935-0.4,1.442c0,0.687,0.255,1.303,0.766,1.85c0.511,0.545,1.219,0.954,2.125,1.227
		c0.596,0.179,1.188,0.269,1.775,0.269c0.533,0,1.041-0.063,1.521-0.188c0.479-0.125,0.979-0.33,1.497-0.611
		c-0.209,1.225-0.724,2.273-1.543,3.145c-0.797,0.857-1.703,1.285-2.717,1.285c-0.363,0-0.651-0.055-0.864-0.162
		c-0.213-0.107-0.389-0.287-0.528-0.538c-0.131-0.23-0.242-0.391-0.33-0.48c-0.09-0.09-0.207-0.16-0.355-0.212
		c-0.132-0.041-0.274-0.061-0.429-0.061c-0.232,0-0.424,0.055-0.575,0.164c-0.151,0.111-0.227,0.25-0.227,0.42
		c0,0.318,0.266,0.582,0.796,0.792c0.531,0.21,1.199,0.315,2.005,0.315c0.751,0,1.452-0.104,2.103-0.308
		c0.651-0.205,1.282-0.523,1.895-0.954c0.93-0.646,1.645-1.416,2.145-2.311c0.499-0.895,0.749-1.85,0.749-2.864
		c0-1.251-0.415-2.267-1.243-3.046C164.184,36.417,162.955,35.988,161.406,35.988z M164.117,40.936
		c-0.201,0.458-0.487,0.837-0.858,1.134c-0.51,0.4-1.129,0.6-1.853,0.6c-0.842,0-1.522-0.232-2.039-0.699
		c-0.302-0.271-0.541-0.619-0.719-1.042c-0.178-0.423-0.266-0.86-0.266-1.312c0-0.44,0.084-0.888,0.254-1.342
		c0.17-0.453,0.398-0.834,0.684-1.142c0.278-0.308,0.604-0.542,0.979-0.704c0.375-0.161,0.775-0.242,1.199-0.242
		c0.85,0,1.553,0.301,2.109,0.9c0.54,0.59,0.811,1.363,0.811,2.322C164.418,39.968,164.317,40.477,164.117,40.936z"/>
	<path style="fill:#834224;" d="M169.989,36.23c-0.116-0.044-0.201-0.15-0.255-0.319h-0.244l-1.045,3.067h0.232l0.059-0.092
		c0.247-0.379,0.448-0.646,0.604-0.803c0.154-0.156,0.348-0.286,0.58-0.389c0.17-0.072,0.367-0.122,0.592-0.15
		c0.225-0.027,0.545-0.042,0.963-0.042h5.061l-6.186,7.79l-0.244,0.3c-0.193,0.251-0.29,0.448-0.29,0.592
		c0,0.159,0.097,0.295,0.29,0.407c0.193,0.113,0.426,0.17,0.696,0.17c0.247,0,0.454-0.048,0.621-0.143
		c0.166-0.095,0.315-0.247,0.446-0.457l0.232-0.393l5.652-9.497l-7.01,0.022C170.357,36.294,170.105,36.273,169.989,36.23z"/>
	<path style="fill:#834224;" d="M186.784,37.487c0.851,0,1.482-0.115,1.892-0.347c0.225-0.127,0.399-0.272,0.524-0.43
		c0.123-0.159,0.22-0.364,0.289-0.615c-0.293,0.098-0.605,0.166-0.934,0.207c-0.329,0.041-0.775,0.062-1.341,0.062
		c-0.929,0-1.938-0.09-3.029-0.27l-2.089,5.66h0.383c0.247-0.482,0.568-0.848,0.963-1.096c0.395-0.25,0.855-0.373,1.381-0.373
		c0.767,0,1.378,0.232,1.834,0.699c0.457,0.467,0.686,1.09,0.686,1.869c0,0.512-0.108,1.015-0.324,1.507
		c-0.217,0.492-0.506,0.907-0.869,1.245c-0.703,0.642-1.592,0.962-2.664,0.962c-0.649,0-1.173-0.119-1.57-0.358
		c-0.398-0.238-0.597-0.555-0.597-0.949c0-0.098,0.011-0.202,0.034-0.314c0.016-0.134,0.023-0.236,0.023-0.309
		c0-0.184-0.079-0.336-0.238-0.453c-0.16-0.118-0.365-0.178-0.613-0.178c-0.305,0-0.555,0.076-0.754,0.228
		c-0.198,0.151-0.297,0.343-0.297,0.573c0,0.24,0.082,0.473,0.249,0.695c0.167,0.223,0.398,0.42,0.692,0.588
		c0.372,0.205,0.843,0.369,1.412,0.488c0.569,0.121,1.168,0.182,1.796,0.182c1.162,0,2.189-0.196,3.085-0.588
		c0.895-0.393,1.594-0.95,2.097-1.674c0.372-0.543,0.559-1.084,0.559-1.622c0-0.349-0.1-0.692-0.297-1.03
		c-0.197-0.338-0.479-0.636-0.842-0.893c-0.799-0.568-1.799-0.854-2.999-0.854c-0.465,0-0.862,0.04-1.191,0.119
		c-0.329,0.08-0.699,0.225-1.11,0.436l1.273-3.377C185.279,37.417,186.143,37.487,186.784,37.487z"/>
	<path style="fill:#834224;" d="M80.062,41.901c-0.861,0-1.56,0.698-1.56,1.56c0,0.861,0.698,1.561,1.56,1.561
		c0.861,0,1.559-0.699,1.559-1.561C81.621,42.599,80.922,41.901,80.062,41.901z"/>
	<path style="fill:#834224;" d="M197.495,41.901c-0.86,0-1.56,0.698-1.56,1.56c0,0.861,0.699,1.561,1.56,1.561
		c0.864,0,1.56-0.699,1.56-1.561C199.055,42.599,198.359,41.901,197.495,41.901z"/>
</g>
</svg>
