<?xml version="1.0" encoding="utf-8"?>
<!-- Generator: Adobe Illustrator 15.1.0, SVG Export Plug-In . SVG Version: 6.00 Build 0)  -->
<!DOCTYPE svg PUBLIC "-//W3C//DTD SVG 1.1//EN" "http://www.w3.org/Graphics/SVG/1.1/DTD/svg11.dtd">
<svg version="1.1" id="Layer_1" xmlns="http://www.w3.org/2000/svg" xmlns:xlink="http://www.w3.org/1999/xlink" x="0px" y="0px"
	 width="1229.865px" height="385.809px" viewBox="0 0 1229.865 385.809" enable-background="new 0 0 1229.865 385.809"
	 xml:space="preserve">
<g>
	<g id="XMLID_3_">
		<g>
			<path fill="#8D3F42" d="M144.742,132.818c-13,6.59-29.35,9.59-48.62,10.98c-22.37,1.62-48.08,1.31-58.81,14.12
				c-7.46,8.9-10.42,27.84-12.16,43.13c-1.94,17.04-6.18,101.49-3.13,132.91c0.58,7.91,1.56,18.13,6.27,21.18
				c4.55,2.93,18.48,1.33,25.49,1.96c21.73,1.94,40.98,3.69,61.55,7.06c3.44,0.56,7.81,0.39,9.81,3.52
				c-4.18,3.32-9.95,2.61-14.9,3.14c-15.37,1.63-32.63,1.94-48.23,4.71c-22.08,3.91-44.89,4.88-54.11-10.98
				c-9.58-16.48-7.45-43.27-7.45-68.23c0-8.56-1.5-118.01,16.86-147.42c10.59-16.95,27.43-22.46,52.93-25.09
				c31.4-3.25,72.03-0.86,81.17-27.84c1.63-4.83,1.67-9.8,2.35-14.12c5.08-32.29,23.17-54.91,59.59-57.24
				c24.64-1.58,49.41,3.33,70.19,7.45c6.949,1.38,14.449,2.38,19.6,6.27c-20.9,4.13-46.85,7.58-71.75,8.63
				c-8.55,0.36-17.53-0.46-25.88,0.78c-14.64,2.17-24.48,15.15-28.23,28.23c-2.16,7.55-2.06,16.15-4.7,25.1
				C168.142,116.108,159.222,125.488,144.742,132.818z"/>
			<path fill="#8F3F42" d="M373.332,213.588c7.88,35.08-4.2,67.29-20.391,88.22c-16.33,21.11-40.16,37.57-67.83,45.88
				c-31.609,9.49-67.88,9.39-98.02-1.18c-27.72-9.72-49.97-27.2-63.52-50.19c-7.4-12.54-13.04-25.93-14.9-42.34
				c-4.07-35.81,11.53-65.32,28.23-84.69c4.37-5.07,9.64-9.56,15.29-13.33c5.27-3.53,11.7-8.83,19.6-7.06
				c-2.73,3.77-6.72,4.69-9.8,7.45c-8.27,7.42-15.01,18.23-20.78,28.62c-6.17,11.12-10.43,23.12-12.55,36.86
				c-4.68,30.46,4.15,57.54,19.61,76.06c14.91,17.88,36.63,29.49,65.08,33.72c29.98,4.45,60.54-1.08,83.13-12.15
				c21.431-10.5,39.69-26.82,50.181-48.62c5.77-11.99,9.38-25.7,8.63-40.78c-0.71-14.32-5.29-26.03-11.761-37.25
				c-12.319-21.33-29.689-35.06-52.93-45.87c-21.88-10.18-48.51-19.48-79.6-17.25c5.87-5.86,16.47-7.58,26.66-8.24
				c18.88-1.2,35.579,2.76,50.189,7.06C330.821,141.168,363.241,168.708,373.332,213.588z"/>
			<path fill="#8D3F42" d="M137.682,77.538c7.89,3.08-1.93,14.78-3.92,16.47c-8.63,7.3-21.9,11.19-38.42,12.54
				c-15.52,1.27-34.47,0.17-43.52-6.66c-3.94-2.97-7.7-10.27-3.53-16.47c5.77-8.6,27.89-10.89,41.56-10.98
				c13.18-0.08,25.66,1.98,36.85,3.92c-19.64,2.45-39.52,4.65-56.06,10.2c18.36,2.59,34.35-3.19,50.97-6.28
				C127.302,79.228,134.072,76.128,137.682,77.538z"/>
		</g>
		<g>
		</g>
	</g>
</g>
<text transform="matrix(1 0 0 1 413.9717 224.4971)" display="none"><tspan x="0" y="0" display="inline" fill="#4D4742" font-family="'Cinzel-SemiBold'" font-size="260.5878" letter-spacing="36">KY</tspan><tspan x="441.174" y="0" display="inline" fill="#4D4742" font-family="'Cinzel-SemiBold'" font-size="260.5878" letter-spacing="18">E</tspan><tspan x="619.152" y="0" display="inline" fill="#4D4742" font-family="'Cinzel-SemiBold'" font-size="260.5878">R</tspan></text>
<text transform="matrix(1 0 0 1 423.4141 354.8076)" display="none"><tspan x="0" y="0" display="inline" fill="#4D4742" font-family="'NexaBold'" font-size="100.6524" letter-spacing="34">W</tspan><tspan x="143.831" y="0" display="inline" fill="#4D4742" font-family="'NexaBold'" font-size="100.6524" letter-spacing="28">I</tspan><tspan x="197.78" y="0" display="inline" fill="#4D4742" font-family="'NexaBold'" font-size="100.6524" letter-spacing="31">L</tspan><tspan x="288.468" y="0" display="inline" fill="#4D4742" font-family="'NexaBold'" font-size="100.6524" letter-spacing="30">T</tspan><tspan x="380.563" y="0" display="inline" fill="#4D4742" font-family="'NexaBold'" font-size="100.6524" letter-spacing="32">S</tspan><tspan x="479.303" y="0" display="inline" fill="#4D4742" font-family="'NexaBold'" font-size="100.6524" letter-spacing="30">H</tspan><tspan x="583.176" y="0" display="inline" fill="#4D4742" font-family="'NexaBold'" font-size="100.6524" letter-spacing="34">I</tspan><tspan x="643.164" y="0" display="inline" fill="#4D4742" font-family="'NexaBold'" font-size="100.6524" letter-spacing="26">R</tspan><tspan x="737.272" y="0" display="inline" fill="#4D4742" font-family="'NexaBold'" font-size="100.6524">E</tspan></text>
<g>
	<path fill="#4D4742" d="M447.327,61.108h-0.782c-0.175-4.516-1.869-8.379-5.081-11.596c-3.217-3.212-7.081-4.821-11.597-4.821
		c-0.175,0-0.74,0-1.693,0c-0.957,0-1.522,0-1.694,0v-2.606h20.848V61.108z M447.327,205.474v19.023h-20.848v-2.606
		c0.172,0,0.737,0,1.694,0c0.953,0,1.519,0,1.693,0c4.516,0,8.38-1.604,11.597-4.821c3.212-3.212,4.906-7.077,5.081-11.596H447.327z
		 M478.337,42.085v182.412h-31.792V42.085H478.337z M477.555,61.108V42.085h20.848v2.606c-0.175,0-1.303,0-3.388,0
		c-4.52,0-8.384,1.608-11.597,4.821c-3.216,3.217-4.91,7.081-5.081,11.596H477.555z M477.555,205.474h0.782
		c0.171,4.52,1.865,8.384,5.081,11.596c3.213,3.217,7.077,4.821,11.597,4.821c2.085,0,3.213,0,3.388,0v2.606h-20.848V205.474z
		 M579.445,43.91l-78.177,91.988l-14.593,1.042l71.661-93.03H579.445z M510.91,116.353l70.099,91.206
		c3.819,4.69,7.772,8.208,11.856,10.554c4.08,2.345,8.815,3.607,14.202,3.778v2.606h-17.98c-1.914,0-4.866-0.13-8.86-0.391
		c-3.998-0.26-8.469-0.953-13.42-2.084c-4.951-1.128-9.947-2.997-14.984-5.603c-5.04-2.606-9.471-6.34-13.29-11.206
		c-0.521-0.867-2.129-3.082-4.82-6.645c-2.695-3.559-6.038-7.903-10.033-13.029c-3.998-5.122-8.123-10.509-12.378-16.156
		c-4.259-5.644-8.253-10.9-11.986-15.766c-3.738-4.862-7.948-10.423-12.639-16.678L510.91,116.353z M597.687,42.085v2.345h-1.043
		c-5.732,0-11.075,1.132-16.026,3.388c-4.951,2.26-9.165,5.387-12.638,9.381l-19.545-0.521c2.085-2.952,2.432-5.733,1.043-8.339
		c-1.393-2.606-3.823-3.909-7.297-3.909h-2.605v-2.345h57.068H597.687z"/>
	<path fill="#4D4742" d="M699.314,60.848l-36.742-0.782c-2.436-3.995-5.994-7.557-10.685-10.685c-4.69-3.127-9.816-4.69-15.374-4.69
		h-3.648v-2.606h78.958v2.606h-3.388c-3.823,0-6.734,1.784-8.729,5.342C697.707,53.596,697.576,57.2,699.314,60.848z
		 M689.152,42.346l52.639,96.417l-28.404,5.472l-61.499-101.89H689.152z M712.865,205.474v19.023h-20.847v-2.606
		c2.085,0,3.213,0,3.388,0c4.516,0,8.379-1.604,11.596-4.821c3.213-3.212,4.906-7.077,5.082-11.596H712.865z M743.875,140.588
		v83.909h-31.791v-83.909H743.875z M787.394,42.346h18.763L741.53,145.799l-11.987-2.605L787.394,42.346z M743.094,205.474h0.781
		c0,4.52,1.649,8.384,4.951,11.596c3.299,3.217,7.207,4.821,11.727,4.821h3.127v2.606h-20.586V205.474z M776.71,60.848
		c1.388-2.431,1.734-4.907,1.042-7.427c-0.696-2.517-1.954-4.601-3.778-6.254c-1.824-1.649-3.954-2.476-6.385-2.476h-3.127v-2.606
		h60.717v2.606h-3.648c-5.387,0-10.468,1.563-15.244,4.69c-4.78,3.127-8.469,6.69-11.075,10.685L776.71,60.848z"/>
	<path fill="#4D4742" d="M888.501,61.108h-0.782c-0.175-4.516-1.869-8.379-5.081-11.596c-3.217-3.212-7.081-4.821-11.597-4.821
		h-3.388v-2.606h20.848V61.108z M888.501,205.474v19.023h-20.848v-2.606h3.388c4.516,0,8.38-1.604,11.597-4.821
		c3.212-3.212,4.906-7.077,5.081-11.596H888.501z M919.511,42.085v182.412h-31.792V42.085H919.511z M990.912,42.085v10.163h-72.184
		V42.085H990.912z M978.664,129.643v9.902h-59.936v-9.902H978.664z M988.566,214.334l4.43,10.163h-74.268v-10.163H988.566z
		 M1006.808,174.985l-13.029,49.512h-48.73l9.382-10.163c8.859,0,16.502-1.604,22.932-4.821c6.425-3.212,11.812-7.817,16.156-13.811
		c4.341-5.994,7.903-12.899,10.685-20.717H1006.808z M978.664,107.754v22.41h-21.629v-0.521c5.383-0.171,9.902-2.084,13.551-5.733
		s5.473-8.164,5.473-13.551v-2.605H978.664z M978.664,139.024v22.411h-2.605v-2.867c0-5.383-1.824-9.902-5.473-13.551
		c-3.648-3.648-8.168-5.472-13.551-5.472v-0.521H978.664z M990.912,37.395v7.557l-31.792-2.867c3.819,0,7.858-0.26,12.117-0.782
		c4.255-0.521,8.209-1.128,11.856-1.824C986.742,38.788,989.349,38.091,990.912,37.395z M990.912,51.467v27.101h-2.606v-3.648
		c0-6.6-2.085-12.027-6.254-16.287c-4.169-4.255-9.731-6.47-16.678-6.645v-0.521H990.912z"/>
	<path fill="#4D4742" d="M1067,61.108h-0.781c-0.175-4.516-1.869-8.379-5.081-11.596c-3.217-3.212-7.081-4.821-11.597-4.821
		c-0.175,0-0.741,0-1.693,0c-0.957,0-1.523,0-1.694,0v-2.606H1067V61.108z M1067,205.474v19.023h-20.847v-2.606
		c0.171,0,0.737,0,1.694,0c0.952,0,1.519,0,1.693,0c4.516,0,8.38-1.604,11.597-4.821c3.212-3.212,4.906-7.077,5.081-11.596H1067z
		 M1098.011,42.085v182.412h-31.792V42.085H1098.011z M1129.281,42.085c7.817,0,15.244,0.957,22.28,2.867
		c7.035,1.914,13.245,4.866,18.632,8.86c5.383,3.999,9.597,9.08,12.639,15.245c3.037,6.168,4.56,13.51,4.56,22.02
		c0,7.646-1.652,15.204-4.951,22.671c-3.302,7.472-8.167,13.681-14.593,18.632c-6.429,4.951-14.332,7.777-23.713,8.469
		c4.69,1.564,9.161,4.475,13.42,8.73c4.255,4.259,7.772,8.469,10.554,12.639c0.171,0.175,1.258,1.783,3.258,4.821
		c1.995,3.042,4.471,6.734,7.427,11.075c2.951,4.345,6.034,8.689,9.251,13.029c3.212,4.345,6.034,7.993,8.469,10.945
		c3.819,4.52,7.337,8.208,10.554,11.075c3.213,2.866,6.645,5.041,10.293,6.515c3.648,1.478,7.817,2.215,12.509,2.215v2.606h-21.629
		c-9.035,0-17.068-0.953-24.104-2.867c-7.036-1.909-13.16-4.776-18.371-8.599c-5.212-3.819-9.731-8.6-13.551-14.333
		c-1.043-1.563-2.521-3.949-4.431-7.166c-1.913-3.212-3.998-6.816-6.254-10.814c-2.26-3.994-4.475-7.858-6.645-11.596
		c-2.175-3.734-3.999-7.077-5.473-10.033c-1.478-2.952-2.476-5.037-2.997-6.254c-2.78-5.037-5.822-9.121-9.12-12.248
		c-3.302-3.127-6.865-4.862-10.685-5.212v-2.606c0.347,0,1.475,0.045,3.388,0.13c1.91,0.09,4.08,0.045,6.515-0.13
		c4.691-0.171,9.422-1.042,14.202-2.606c4.776-1.563,9.076-4.471,12.899-8.729c3.819-4.255,6.601-10.204,8.339-17.85
		c0.346-1.563,0.692-3.559,1.042-5.994c0.347-2.431,0.432-4.951,0.261-7.557c-0.521-12.158-3.648-21.368-9.381-27.622
		c-5.733-6.254-13.029-9.552-21.89-9.902c-3.302-0.171-6.775-0.216-10.424-0.13c-3.647,0.089-6.819,0.13-9.511,0.13
		c-2.695,0-4.3,0-4.821,0c0-0.171-0.22-1.128-0.651-2.867c-0.436-1.734-1.087-4.255-1.954-7.557H1129.281z M1097.229,205.474h0.782
		c0,4.52,1.648,8.384,4.951,11.596c3.298,3.217,7.206,4.821,11.727,4.821c0.171,0,1.213,0,3.127,0v2.606h-20.587V205.474z"/>
</g>
<g>
	<path fill="#4D4742" d="M504.435,354.808h-11.272l-8.756-22.143l-7.448-22.243l-7.347,22.444l-8.556,21.941h-11.272l-25.866-70.453
		h14.896l16.606,50.827l17.11-50.827h8.655l17.613,50.827l16.104-50.827h14.896L504.435,354.808z"/>
	<path fill="#4D4742" d="M572.277,354.808v-70.453h13.185v70.453H572.277z"/>
	<path fill="#4D4742" d="M639.411,284.354v58.174h36.233v12.279h-49.519v-70.453H639.411z"/>
	<path fill="#4D4742" d="M735.03,296.433h-22.344v-12.078c20.331,0,37.542,0,57.973,0v12.078h-22.343v58.375H735.03V296.433z"/>
	<path fill="#4D4742" d="M852.389,301.364c-2.415-4.026-9.059-7.851-16.707-7.851c-9.863,0-14.594,4.126-14.594,9.36
		c0,6.139,7.246,7.85,15.7,8.856c14.695,1.812,28.383,5.637,28.383,22.444c0,15.701-13.89,22.444-29.59,22.444
		c-14.393,0-25.464-4.428-30.697-17.311l11.07-5.737c3.12,7.75,11.272,11.172,19.828,11.172c8.354,0,16.204-2.919,16.204-10.568
		c0-6.643-6.944-9.36-16.305-10.366c-14.393-1.711-27.679-5.536-27.679-21.337c0-14.493,14.292-20.431,27.275-20.532
		c10.971,0,22.344,3.12,27.679,13.99L852.389,301.364z"/>
	<path fill="#4D4742" d="M955.657,354.908v-28.483h-34.623v28.483h-13.285v-70.453h13.285v29.691h34.623v-29.691h13.185v70.453
		H955.657z"/>
	<path fill="#4D4742" d="M1011.622,354.808v-70.453h13.185v70.453H1011.622z"/>
	<path fill="#4D4742" d="M1134.012,354.808h-15.802l-20.532-23.551h-12.782v23.551h-13.285v-70.554
		c11.172,0,22.344,0.101,33.516,0.101c16.606,0.101,25.363,11.172,25.363,23.351c0,9.662-4.429,19.425-17.814,22.142l21.337,24.055
		V354.808z M1084.896,296.734v22.545h20.23c8.454,0,12.077-5.636,12.077-11.272s-3.724-11.272-12.077-11.272H1084.896z"/>
	<path fill="#4D4742" d="M1218.156,354.808h-52.739c0-23.451,0-47.002,0-70.453h52.739v12.883h-39.555v16.205h38.146v12.379h-38.146
		v15.902h39.555V354.808z"/>
</g>
</svg>
