<?xml version="1.0" encoding="UTF-8" standalone="no"?>
<!DOCTYPE svg PUBLIC "-//W3C//DTD SVG 1.1//EN" "http://www.w3.org/Graphics/SVG/1.1/DTD/svg11.dtd">
<svg width="100%" height="100%" viewBox="0 0 3811 267" version="1.1" xmlns="http://www.w3.org/2000/svg" xmlns:xlink="http://www.w3.org/1999/xlink" xml:space="preserve" xmlns:serif="http://www.serif.com/" style="fill-rule:evenodd;clip-rule:evenodd;stroke-linejoin:round;stroke-miterlimit:2;">
    <g transform="matrix(1,0,0,1,-3844,-371)">
        <g transform="matrix(8.33333,0,0,8.33333,0,0)">
            <g transform="matrix(1,0,0,1,899.232,45.5277)">
                <path d="M0,28.631C-0.123,28.569 -0.174,28.422 -0.116,28.297L1.787,24.212C1.822,24.137 1.89,24.085 1.971,24.069C2.051,24.054 2.134,24.079 2.193,24.136C2.779,24.697 3.374,25.425 4.005,26.196C5.608,28.156 7.425,30.378 9.578,30.378C13.596,30.378 16.865,27.356 16.865,23.642C16.865,20.242 14.263,19.125 11.509,17.943C10.963,17.709 10.415,17.473 9.885,17.219L7.797,16.219C5.573,15.159 0.402,12.104 0.402,6.638C0.402,2.183 4.149,-0.928 9.515,-0.928C12.485,-0.881 15.405,-0.06 17.963,1.446C18.08,1.515 18.122,1.664 18.059,1.784L15.722,6.222C15.685,6.292 15.618,6.341 15.539,6.354C15.462,6.368 15.382,6.343 15.324,6.289C14.639,5.649 14.066,4.67 13.459,3.633C12.333,1.71 11.169,-0.28 9.199,-0.28C5.12,-0.28 2.919,2.747 2.919,5.593C2.919,9.102 5.614,10.673 9.42,12.51L11.508,13.51C15.338,15.366 19.296,17.284 19.296,22.429C19.296,28.317 14.182,30.998 9.431,30.998C6.168,30.916 2.909,30.098 0,28.631M-24.551,0.355L-20.329,0.355C-14.968,0.355 -12.782,2.46 -12.782,7.62C-12.782,7.63 -12.781,7.641 -12.78,7.651C-12.786,10.656 -13.656,15.656 -19.37,15.656C-21.069,15.674 -22.837,15.57 -24.551,15.39L-24.551,0.355ZM-28.383,30.496L-24.803,30.496C-24.662,30.496 -24.549,30.382 -24.549,30.242L-24.549,16.832L-19.731,16.832L-18.299,16.758L-10.143,30.307C-10.097,30.383 -10.015,30.43 -9.925,30.43L-6.63,30.43C-6.532,30.43 -6.443,30.374 -6.401,30.285C-6.359,30.197 -6.371,30.092 -6.433,30.016L-17.325,16.576C-12.988,15.719 -8.466,12.96 -8.331,7.644C-8.28,5.602 -8.898,3.906 -10.168,2.603C-12.131,0.59 -15.549,-0.431 -20.327,-0.431L-28.383,-0.431C-28.524,-0.431 -28.637,-0.317 -28.637,-0.176L-28.637,30.242C-28.637,30.382 -28.524,30.496 -28.383,30.496M-54.218,30.177L-54.218,-0.242C-54.218,-0.382 -54.104,-0.496 -53.964,-0.496L-36.297,-0.496C-36.218,-0.496 -36.143,-0.459 -36.095,-0.396C-36.047,-0.334 -36.031,-0.252 -36.052,-0.175L-36.873,2.862C-36.902,2.973 -37.003,3.05 -37.118,3.05L-37.203,3.05C-39.099,2.786 -40.63,2.313 -42.111,1.856C-43.928,1.294 -45.644,0.764 -47.662,0.764L-50.251,0.764L-50.251,13.712L-42.291,13.712C-42.151,13.712 -42.037,13.826 -42.037,13.966L-42.037,14.718C-42.037,14.859 -42.151,14.972 -42.291,14.972L-50.251,14.972L-50.251,29.172L-47.662,29.172C-45.683,29.172 -43.835,28.543 -41.879,27.877C-40.249,27.321 -38.563,26.747 -36.658,26.481L-36.567,26.479C-36.438,26.465 -36.323,26.545 -36.292,26.669L-35.424,30.115C-35.405,30.191 -35.422,30.272 -35.47,30.334C-35.518,30.395 -35.592,30.431 -35.671,30.431L-53.964,30.431C-54.104,30.431 -54.218,30.318 -54.218,30.177M-100.578,-0.096C-100.604,-0.174 -100.591,-0.259 -100.543,-0.325C-100.495,-0.391 -100.418,-0.431 -100.337,-0.431L-96.023,-0.431C-95.912,-0.431 -95.814,-0.358 -95.781,-0.253L-88.201,23.649L-80.442,-0.255C-80.408,-0.359 -80.31,-0.431 -80.2,-0.431L-78.028,-0.431C-77.919,-0.431 -77.822,-0.36 -77.787,-0.257L-70.268,22.342L-63.582,-0.248C-63.55,-0.356 -63.451,-0.431 -63.338,-0.431L-62.467,-0.431C-62.386,-0.431 -62.311,-0.392 -62.263,-0.327C-62.215,-0.262 -62.201,-0.178 -62.225,-0.101L-71.808,30.82C-71.841,30.926 -71.939,30.999 -72.051,30.999L-72.218,30.999C-72.328,30.999 -72.425,30.928 -72.459,30.825L-80.994,5.016L-89.65,30.826C-89.685,30.929 -89.782,30.999 -89.891,30.999L-90.056,30.999C-90.166,30.999 -90.263,30.929 -90.297,30.825L-100.578,-0.096ZM-132.319,4.334C-130.277,2.292 -127.998,1.451 -125.682,1.451C-121.675,1.451 -117.559,3.97 -114.38,7.149L-114.38,7.15C-111.386,10.143 -109.373,13.51 -108.713,16.631C-107.994,20.027 -108.863,23.07 -111.224,25.432C-113.646,27.855 -116.613,28.908 -119.816,28.478C-122.921,28.061 -126.114,26.288 -129.05,23.351C-134.587,17.812 -137.488,9.501 -132.319,4.334M-121.767,30.591C-117.744,30.591 -113.719,29.061 -110.656,25.999C-107.685,23.03 -106.049,19.082 -106.048,14.882C-106.047,10.682 -107.682,6.734 -110.651,3.763C-116.78,-2.366 -126.753,-2.368 -132.882,3.761C-139.012,9.889 -139.014,19.862 -132.887,25.992C-129.821,29.059 -125.795,30.591 -121.767,30.591M-158.1,30.242L-158.1,-0.176C-158.1,-0.317 -157.987,-0.431 -157.846,-0.431L-154.458,-0.431C-154.318,-0.431 -154.204,-0.317 -154.204,-0.176L-154.204,29.781L-153.454,29.781C-152.224,29.781 -150.243,29.113 -148.145,28.407C-146.055,27.703 -143.685,26.905 -141.523,26.572L-141.401,26.569C-141.285,26.569 -141.183,26.649 -141.155,26.761L-140.285,30.18C-140.266,30.256 -140.283,30.337 -140.331,30.398C-140.379,30.46 -140.453,30.496 -140.531,30.496L-157.846,30.496C-157.987,30.496 -158.1,30.382 -158.1,30.242M-182.012,30.177L-182.012,-0.242C-182.012,-0.382 -181.898,-0.496 -181.758,-0.496L-164.871,-0.496C-164.796,-0.496 -164.724,-0.463 -164.676,-0.405C-164.628,-0.348 -164.608,-0.271 -164.621,-0.198L-165.131,2.698C-165.152,2.82 -165.258,2.908 -165.381,2.908L-165.464,2.908C-167.303,2.653 -168.856,2.225 -170.358,1.811C-172.316,1.271 -174.165,0.761 -176.235,0.761L-177.987,0.761L-177.987,14.211L-170.449,14.211C-170.308,14.211 -170.195,14.325 -170.195,14.465L-170.195,15.218C-170.195,15.359 -170.308,15.472 -170.449,15.472L-177.987,15.472L-177.987,30.177C-177.987,30.318 -178.101,30.431 -178.242,30.431L-181.758,30.431C-181.898,30.431 -182.012,30.318 -182.012,30.177M-228.734,30.177L-228.734,-0.242C-228.734,-0.382 -228.62,-0.496 -228.48,-0.496L-210.812,-0.496C-210.734,-0.496 -210.659,-0.459 -210.61,-0.396C-210.563,-0.334 -210.547,-0.252 -210.567,-0.175L-211.388,2.862C-211.418,2.973 -211.519,3.05 -211.633,3.05L-211.718,3.05C-213.615,2.786 -215.146,2.313 -216.627,1.856C-218.443,1.294 -220.16,0.764 -222.177,0.764L-224.767,0.764L-224.767,13.712L-216.807,13.712C-216.667,13.712 -216.553,13.826 -216.553,13.966L-216.553,14.718C-216.553,14.859 -216.667,14.972 -216.807,14.972L-224.767,14.972L-224.767,29.172L-222.177,29.172C-220.198,29.172 -218.351,28.543 -216.395,27.877C-214.765,27.321 -213.079,26.747 -211.174,26.481L-211.083,26.479C-210.957,26.465 -210.839,26.545 -210.808,26.669L-209.94,30.115C-209.921,30.191 -209.937,30.272 -209.986,30.334C-210.034,30.395 -210.108,30.431 -210.186,30.431L-228.48,30.431C-228.62,30.431 -228.734,30.318 -228.734,30.177M-254.179,0.402L-248.953,0.402C-242.693,0.402 -241.411,3.509 -241.411,8.175C-241.411,13.977 -243.787,16.565 -249.118,16.565L-254.179,16.495L-254.179,0.402ZM-258.012,30.48L-254.431,30.476C-254.291,30.476 -254.178,30.363 -254.178,30.222L-254.178,17.412C-253.027,17.457 -250.089,17.457 -248.921,17.457C-241.514,17.457 -236.913,13.846 -236.913,8.035C-236.913,5.275 -237.951,3.146 -239.998,1.705C-242.031,0.275 -245.043,-0.451 -248.951,-0.451L-248.953,-0.451L-258.012,-0.448C-258.153,-0.448 -258.266,-0.334 -258.266,-0.194L-258.266,30.226C-258.266,30.293 -258.24,30.358 -258.192,30.405C-258.144,30.453 -258.08,30.48 -258.012,30.48M-281.228,3.912L-275.18,19.515L-287.275,19.515L-281.228,3.912ZM-292.676,30.497L-291.777,30.497C-291.673,30.497 -291.58,30.433 -291.541,30.337C-289.527,25.284 -288.972,23.975 -288.705,23.345C-288.435,22.708 -288.429,22.694 -287.57,20.387L-274.842,20.387L-271.018,30.334C-270.98,30.432 -270.886,30.497 -270.781,30.497L-265.839,30.497C-265.755,30.497 -265.677,30.456 -265.63,30.386C-265.582,30.317 -265.572,30.229 -265.602,30.151L-277.594,-0.769C-277.632,-0.867 -277.726,-0.931 -277.831,-0.931L-280.601,-0.931C-280.706,-0.931 -280.8,-0.867 -280.838,-0.769L-287.69,16.905L-288.61,19.292C-290.016,22.942 -291.471,26.715 -292.91,30.144C-292.943,30.223 -292.935,30.313 -292.888,30.383C-292.84,30.454 -292.761,30.497 -292.676,30.497M-320.685,26.239C-326.812,20.11 -326.81,10.138 -320.682,4.011C-314.554,-2.116 -304.583,-2.117 -298.454,4.01C-298.271,4.194 -298.093,4.381 -297.926,4.568C-297.835,4.671 -297.841,4.827 -297.941,4.922L-300.784,7.616C-300.833,7.663 -300.9,7.683 -300.968,7.686C-301.036,7.683 -301.1,7.653 -301.146,7.604C-301.308,7.428 -301.475,7.255 -301.642,7.089C-304.567,4.162 -307.965,2.266 -311.208,1.747C-314.638,1.199 -317.72,2.179 -320.122,4.583C-322.513,6.974 -323.453,10.128 -322.839,13.706C-322.261,17.075 -320.324,20.551 -317.384,23.49C-311.237,29.635 -303.858,30.514 -299.024,25.678C-298.771,25.425 -298.538,25.168 -298.33,24.914C-298.286,24.86 -298.223,24.828 -298.155,24.822C-298.084,24.815 -298.018,24.839 -297.967,24.883L-297.734,25.085C-297.628,25.177 -297.616,25.337 -297.707,25.443C-297.94,25.714 -298.186,25.976 -298.458,26.247C-301.521,29.308 -305.545,30.838 -309.568,30.838C-313.594,30.838 -317.621,29.305 -320.685,26.239M-351.654,28.631C-351.777,28.569 -351.829,28.422 -351.771,28.297L-349.867,24.212C-349.832,24.137 -349.764,24.085 -349.684,24.069C-349.603,24.054 -349.52,24.079 -349.461,24.136C-348.876,24.697 -348.281,25.424 -347.651,26.195C-346.047,28.156 -344.229,30.378 -342.077,30.378C-338.058,30.378 -334.79,27.356 -334.79,23.642C-334.79,20.242 -337.391,19.126 -340.144,17.943C-340.691,17.709 -341.239,17.474 -341.768,17.219L-343.858,16.219C-346.081,15.159 -351.252,12.104 -351.252,6.638C-351.252,2.183 -347.505,-0.928 -342.14,-0.928C-339.17,-0.881 -336.25,-0.06 -333.691,1.446C-333.575,1.515 -333.533,1.664 -333.596,1.784L-335.932,6.222C-335.969,6.292 -336.036,6.341 -336.115,6.354C-336.192,6.368 -336.273,6.343 -336.331,6.289C-337.016,5.649 -337.588,4.67 -338.195,3.633C-339.321,1.71 -340.485,-0.28 -342.455,-0.28C-346.534,-0.28 -348.735,2.747 -348.735,5.593C-348.735,9.102 -346.041,10.673 -342.234,12.51L-340.146,13.51C-336.317,15.366 -332.358,17.284 -332.358,22.429C-332.358,28.317 -337.472,30.998 -342.224,30.998C-345.487,30.916 -348.745,30.098 -351.654,28.631M-373.121,3.912L-367.074,19.515L-379.169,19.515L-373.121,3.912ZM-384.57,30.497L-383.671,30.497C-383.567,30.497 -383.474,30.433 -383.435,30.337C-381.42,25.284 -380.866,23.975 -380.599,23.345C-380.329,22.708 -380.323,22.694 -379.463,20.387L-366.735,20.387L-362.912,30.334C-362.874,30.432 -362.78,30.497 -362.675,30.497L-357.733,30.497C-357.649,30.497 -357.57,30.456 -357.523,30.386C-357.476,30.317 -357.466,30.229 -357.496,30.151L-369.488,-0.769C-369.526,-0.867 -369.62,-0.931 -369.725,-0.931L-372.495,-0.931C-372.6,-0.931 -372.694,-0.867 -372.732,-0.769L-380.504,19.292C-381.91,22.942 -383.364,26.715 -384.804,30.144C-384.837,30.223 -384.828,30.313 -384.781,30.383C-384.734,30.454 -384.655,30.497 -384.57,30.497M-409.098,30.177L-409.098,-0.242C-409.098,-0.382 -408.984,-0.496 -408.844,-0.496L-391.177,-0.496C-391.098,-0.496 -391.023,-0.459 -390.975,-0.396C-390.927,-0.334 -390.911,-0.252 -390.931,-0.175L-391.752,2.862C-391.782,2.973 -391.883,3.05 -391.998,3.05L-392.082,3.05C-393.979,2.786 -395.51,2.313 -396.991,1.856C-398.807,1.294 -400.524,0.764 -402.542,0.764L-405.131,0.764L-405.131,13.712L-397.171,13.712C-397.031,13.712 -396.917,13.826 -396.917,13.966L-396.917,14.718C-396.917,14.859 -397.031,14.972 -397.171,14.972L-405.131,14.972L-405.131,29.172L-402.542,29.172C-400.562,29.172 -398.715,28.543 -396.759,27.877C-395.129,27.321 -393.443,26.747 -391.538,26.481L-391.447,26.479C-391.321,26.465 -391.203,26.545 -391.172,26.669L-390.304,30.115C-390.285,30.191 -390.302,30.272 -390.35,30.334C-390.398,30.395 -390.472,30.431 -390.55,30.431L-408.844,30.431C-408.984,30.431 -409.098,30.318 -409.098,30.177M-437.774,28.631C-437.896,28.569 -437.948,28.422 -437.89,28.297L-435.987,24.212C-435.952,24.137 -435.884,24.085 -435.803,24.069C-435.722,24.054 -435.639,24.079 -435.581,24.136C-434.995,24.697 -434.4,25.425 -433.769,26.196C-432.166,28.156 -430.349,30.378 -428.196,30.378C-424.178,30.378 -420.909,27.356 -420.909,23.642C-420.909,20.242 -423.51,19.125 -426.265,17.943C-426.811,17.709 -427.359,17.473 -427.888,17.219L-429.977,16.219C-432.2,15.159 -437.372,12.104 -437.372,6.638C-437.372,2.183 -433.625,-0.928 -428.259,-0.928C-425.289,-0.881 -422.369,-0.06 -419.811,1.446C-419.694,1.515 -419.652,1.664 -419.715,1.784L-422.052,6.222C-422.088,6.292 -422.156,6.341 -422.234,6.354C-422.312,6.368 -422.392,6.343 -422.45,6.289C-423.135,5.649 -423.708,4.67 -424.314,3.633C-425.441,1.71 -426.605,-0.28 -428.575,-0.28C-432.653,-0.28 -434.855,2.747 -434.855,5.593C-434.855,9.102 -432.16,10.673 -428.354,12.51L-426.266,13.51C-422.436,15.366 -418.478,17.284 -418.478,22.429C-418.478,28.317 -423.592,30.998 -428.343,30.998C-431.606,30.916 -434.865,30.098 -437.774,28.631" style="fill:rgb(48,29,31);fill-rule:nonzero;"/>
            </g>
        </g>
    </g>
</svg>
